<?xml version="1.0" standalone="no"?>
<!DOCTYPE svg PUBLIC "-//W3C//DTD SVG 20010904//EN"
 "http://www.w3.org/TR/2001/REC-SVG-20010904/DTD/svg10.dtd">
<svg version="1.0" xmlns="http://www.w3.org/2000/svg"
 width="128" height="128" viewBox="0 0 128.000000 128.000000"
 preserveAspectRatio="xMidYMid meet">

<g transform="translate(0.000000,128.000000) scale(0.100000,-0.100000)"
fill="#000000" stroke="none">
<path d="M536 1264 c-101 -37 -157 -115 -164 -230 l-5 -74 -98 0 c-94 0 -99
-1 -104 -22 -3 -13 -39 -223 -80 -467 -55 -327 -71 -448 -63 -458 16 -19 1220
-19 1237 0 8 10 -12 132 -75 472 -46 252 -87 462 -90 466 -3 5 -54 9 -113 9
l-108 0 -7 67 c-12 118 -56 185 -151 229 -57 27 -120 30 -179 8z m182 -68 c54
-28 86 -88 90 -168 l4 -68 -193 2 c-223 3 -211 -3 -189 105 28 132 164 194
288 129z m-321 -456 c8 0 17 9 20 20 8 30 23 24 23 -8 0 -33 -16 -52 -45 -52
-40 0 -61 50 -32 79 10 10 13 7 15 -13 2 -15 10 -26 19 -26z m444 0 c14 0 19
7 19 28 1 26 1 26 15 8 19 -25 19 -41 -1 -61 -37 -36 -92 7 -71 55 l11 25 4
-27 c2 -20 9 -28 23 -28z"/>
</g>
</svg>
