<svg xmlns="http://www.w3.org/2000/svg" xmlns:xlink="http://www.w3.org/1999/xlink" viewBox="0 0 129.973 155.37">
    <defs>
        <filter id="Path_4845" x="0" y="0"  filterUnits="userSpaceOnUse">
            <feOffset dy="3" input="SourceAlpha"/>
            <feGaussianBlur stdDeviation="8" result="blur"/>
            <feFlood flood-opacity="0.161"/>
            <feComposite operator="in" in2="blur"/>
            <feComposite in="SourceGraphic"/>
        </filter>
    </defs>
    <g transform="matrix(1, 0, 0, 1, 0, 0)" filter="url(#Path_4845)">
        <path id="Path_4845-2" data-name="Path 4845" d="M144.24,152.264c0-.97,1.349-1.756,3.013-1.756V139.728c-1.664,0-3.013-.786-3.013-1.756s1.349-1.756,3.013-1.756V125.437c-1.664,0-3.013-.786-3.013-1.756s1.349-1.757,3.013-1.757V111.145c-1.664,0-3.013-.786-3.013-1.756s1.349-1.757,3.013-1.757V96.853c-1.664,0-3.013-.786-3.013-1.757s1.349-1.756,3.013-1.756V82.561c-1.664,0-3.013-.787-3.013-1.757s1.349-1.756,3.013-1.756v-8.8c-7.007,0-12.686-3.311-12.686-7.395h-51.7c-2.389,0-4.418.952-5.067,2.291-1.865,3.848-6.481,7.009-12.521,8.75v85.286c6.041,1.741,10.656,4.9,12.521,8.75.649,1.34,2.679,2.292,5.067,2.292h51.7c0-4.085,5.679-7.4,12.686-7.4v-8.8C145.589,154.021,144.24,153.234,144.24,152.264Z" transform="translate(-41.28 -41.85)" fill="#fc500c"/>
    </g>
</svg>
