<svg xmlns="http://www.w3.org/2000/svg" width="224.162" height="223.754" viewBox="0 0 224.162 223.754">
  <g id="Group_679" data-name="Group 679" transform="translate(-26.677 -37.302)">
    <g id="Floor" transform="translate(26.677 131.636)">
      <ellipse id="Ellipse_42" data-name="Ellipse 42" cx="112.081" cy="64.71" rx="112.081" ry="64.71" transform="translate(0 0)" fill="#f5f5f5"/>
    </g>
    <g id="Shadows" transform="translate(33.062 150.411)">
      <path id="Path_1051" data-name="Path 1051" d="M337.427,297.832l37.748,21.793a3.131,3.131,0,0,0,3.132,0l21-12.135a.934.934,0,0,0,0-1.619l-37.744-21.733a3.132,3.132,0,0,0-3.123,0l-21.016,12.076A.935.935,0,0,0,337.427,297.832Z" transform="translate(-187.621 -273.158)" fill="#e0e0e0"/>
      <path id="Path_1052" data-name="Path 1052" d="M159.5,279.241,68.694,331.8a4.907,4.907,0,0,1-4.874.024L40.214,318.47a1.6,1.6,0,0,1-.013-2.782l90.666-52.356a4.909,4.909,0,0,1,4.853-.032l23.76,13.312A1.513,1.513,0,0,1,159.5,279.241Z" transform="translate(-39.4 -262.674)" fill="#e0e0e0"/>
      <ellipse id="Ellipse_43" data-name="Ellipse 43" cx="24.92" cy="14.388" rx="24.92" ry="14.388" transform="translate(109.714 40.535)" fill="#e0e0e0"/>
      <ellipse id="Ellipse_44" data-name="Ellipse 44" cx="8.69" cy="5.017" rx="8.69" ry="5.017" transform="translate(179.84 53.166)" fill="#e0e0e0"/>
    </g>
    <g id="Furniture" transform="translate(185.442 96.206)">
      <g id="Group_655" data-name="Group 655" transform="translate(0 0)">
        <g id="Group_650" data-name="Group 650">
          <path id="Path_1053" data-name="Path 1053" d="M415.607,208.8l.01,66.233,21.453-12.395V196.465Z" transform="translate(-379.177 -175.488)" fill="#e6e6e6"/>
          <path id="Path_1054" data-name="Path 1054" d="M343.02,245.477l36.44,21.038V200.342l-36.43-20.976Z" transform="translate(-343.02 -166.971)" fill="#ebebeb"/>
          <path id="Path_1055" data-name="Path 1055" d="M343.02,167l36.44,21.038,21.453-12.395-36.43-20.976Z" transform="translate(-343.02 -154.669)" fill="#f5f5f5"/>
        </g>
        <g id="Group_654" data-name="Group 654" transform="translate(3.287 20.071)">
          <g id="Group_651" data-name="Group 651">
            <path id="Path_1056" data-name="Path 1056" d="M350.551,211.144l27.691,15.987a.8.8,0,0,0,1.193-.689V212.41a1.964,1.964,0,0,0-.984-1.7l-27.684-15.94a.8.8,0,0,0-1.192.689l-.007,13.985A1.964,1.964,0,0,0,350.551,211.144Z" transform="translate(-349.569 -194.66)" fill="#fafafa"/>
            <path id="Path_1057" data-name="Path 1057" d="M378.8,216.608a.544.544,0,0,1-.273-.073l-4.887-2.814a.549.549,0,0,1,.548-.951l4.886,2.814a.549.549,0,0,1-.275,1.024Z" transform="translate(-361.421 -203.644)" fill="#e0e0e0"/>
          </g>
          <g id="Group_652" data-name="Group 652" transform="translate(0 19.609)">
            <path id="Path_1058" data-name="Path 1058" d="M350.551,250.216,378.242,266.2a.8.8,0,0,0,1.193-.689V251.481a1.963,1.963,0,0,0-.984-1.7l-27.684-15.94a.8.8,0,0,0-1.192.689l-.007,13.985A1.965,1.965,0,0,0,350.551,250.216Z" transform="translate(-349.569 -233.732)" fill="#fafafa"/>
            <path id="Path_1059" data-name="Path 1059" d="M378.8,255.679a.539.539,0,0,1-.273-.073l-4.887-2.814a.549.549,0,0,1,.548-.951l4.886,2.814a.548.548,0,0,1-.275,1.024Z" transform="translate(-361.421 -242.716)" fill="#e0e0e0"/>
          </g>
          <g id="Group_653" data-name="Group 653" transform="translate(0 39.218)">
            <path id="Path_1060" data-name="Path 1060" d="M350.551,289.287l27.691,15.987a.8.8,0,0,0,1.193-.689V290.553a1.964,1.964,0,0,0-.984-1.7l-27.684-15.94a.8.8,0,0,0-1.192.689l-.007,13.985A1.964,1.964,0,0,0,350.551,289.287Z" transform="translate(-349.569 -272.803)" fill="#fafafa"/>
            <path id="Path_1061" data-name="Path 1061" d="M378.8,294.751a.54.54,0,0,1-.273-.074l-4.887-2.814a.549.549,0,0,1,.548-.951l4.886,2.814a.549.549,0,0,1-.275,1.024Z" transform="translate(-361.421 -281.787)" fill="#e0e0e0"/>
          </g>
        </g>
      </g>
    </g>
    <g id="Pictures" transform="translate(208.223 62.34)">
      <g id="Group_657" data-name="Group 657">
        <path id="Path_1062" data-name="Path 1062" d="M388.411,88.146v17.7l15.329,8.85V97l-15.329-8.85Z" transform="translate(-388.411 -87.667)" fill="#fafafa"/>
        <path id="Path_1063" data-name="Path 1063" d="M390.071,88.628l13.67,7.892V112.3l-13.67-7.892V88.628m-.83-1.437-.83.479v17.7l15.33,8.851.83-.479v-17.7l-15.329-8.851Z" transform="translate(-388.411 -87.191)" fill="#e0e0e0"/>
        <path id="Path_1064" data-name="Path 1064" d="M389.241,89.583l13.67,7.892V113.26l-13.67-7.893V89.583m-.83-1.437v17.7l15.33,8.851V97l-15.33-8.85Z" transform="translate(-388.411 -87.667)" fill="#ebebeb"/>
        <g id="Group_656" data-name="Group 656" transform="translate(2.25 7.815)">
          <path id="Path_1065" data-name="Path 1065" d="M392.894,112.513l11.6,6.7-3.426-8.914-2.372,2.818-2.426-3.454Z" transform="translate(-392.894 -106.197)" fill="#e0e0e0"/>
          <path id="Path_1066" data-name="Path 1066" d="M400.91,103.517a2.337,2.337,0,0,0,1.057,1.832c.585.337,1.058.064,1.058-.611a2.336,2.336,0,0,0-1.058-1.832C401.383,102.569,400.91,102.842,400.91,103.517Z" transform="translate(-396.887 -102.762)" fill="#e0e0e0"/>
        </g>
      </g>
      <g id="Group_659" data-name="Group 659" transform="translate(19.922 21.527)">
        <path id="Path_1067" data-name="Path 1067" d="M428.105,130.845v14.1L440.318,152V137.9l-12.212-7.051Z" transform="translate(-428.105 -130.463)" fill="#fafafa"/>
        <path id="Path_1068" data-name="Path 1068" d="M429.427,131.229l10.89,6.287v12.575l-10.89-6.288V131.229m-.661-1.145-.661.382v14.1l12.212,7.05.661-.381v-14.1l-12.212-7.051Z" transform="translate(-428.105 -130.084)" fill="#e0e0e0"/>
        <path id="Path_1069" data-name="Path 1069" d="M428.766,131.99l10.89,6.288v12.575l-10.89-6.288V131.99m-.661-1.145v14.1L440.317,152V137.9l-12.212-7.05Z" transform="translate(-428.105 -130.463)" fill="#ebebeb"/>
        <g id="Group_658" data-name="Group 658" transform="translate(1.793 6.225)">
          <path id="Path_1070" data-name="Path 1070" d="M431.677,150.257l9.238,5.334-2.729-7.1-1.89,2.245-1.933-2.752Z" transform="translate(-431.677 -145.225)" fill="#e0e0e0"/>
          <path id="Path_1071" data-name="Path 1071" d="M438.062,143.09a1.864,1.864,0,0,0,.843,1.46c.466.269.843.051.843-.487a1.861,1.861,0,0,0-.843-1.459C438.439,142.335,438.062,142.552,438.062,143.09Z" transform="translate(-434.857 -142.488)" fill="#e0e0e0"/>
        </g>
      </g>
    </g>
    <g id="Plant" transform="translate(208.593 173.03)">
      <g id="Group_665" data-name="Group 665">
        <g id="Group_660" data-name="Group 660" transform="translate(10.275)">
          <path id="Path_1072" data-name="Path 1072" d="M412.859,330.517s-5.339-5.214-2.3-13.948c1.7-4.895,7.345-8.489,10.559-8.827a15.015,15.015,0,0,0-2.511,4.234l-4.047,2.691,3.72-1.165-.792,3.184s-3.46,2.092-3.972,2.549l3.73-.975S416.958,327.276,412.859,330.517Z" transform="translate(-409.623 -307.742)" fill="#ba68c8"/>
          <path id="Path_1073" data-name="Path 1073" d="M412.859,330.517s-5.339-5.214-2.3-13.948c1.7-4.895,7.345-8.489,10.559-8.827a15.015,15.015,0,0,0-2.511,4.234l-4.047,2.691,3.72-1.165-.792,3.184s-3.46,2.092-3.972,2.549l3.73-.975S416.958,327.276,412.859,330.517Z" transform="translate(-409.623 -307.742)" opacity="0.4"/>
          <path id="Path_1074" data-name="Path 1074" d="M414.819,335.977s-2.765-10.911,1.325-17.273C416.145,318.7,411.35,324.318,414.819,335.977Z" transform="translate(-411.584 -313.202)" fill="#fff"/>
        </g>
        <path id="Path_1075" data-name="Path 1075" d="M415.21,355.982l-6.532-.082h-.067l-6.532.082s-.072,8.048,2.406,11.322h0a6.578,6.578,0,0,0,8.323,0C415.283,364.022,415.21,355.982,415.21,355.982Z" transform="translate(-395.59 -331.73)" fill="#37474f"/>
        <path id="Path_1076" data-name="Path 1076" d="M415.211,352.565c0,1.947-2.94,3.525-6.566,3.525s-6.566-1.578-6.566-3.525,2.939-3.525,6.566-3.525S415.211,350.618,415.211,352.565Z" transform="translate(-395.59 -328.313)" fill="#455a64"/>
        <g id="Group_662" data-name="Group 662" transform="translate(7.948 21.731)">
          <path id="Path_1077" data-name="Path 1077" d="M410.093,352.627c2.259,0,4.172.725,4.846,1.728a1.414,1.414,0,0,0,.261-.793c0-1.392-2.287-2.521-5.108-2.521s-5.108,1.129-5.108,2.521a1.414,1.414,0,0,0,.261.793C405.92,353.352,407.834,352.627,410.093,352.627Z" transform="translate(-404.985 -351.041)" fill="#263238"/>
          <g id="Group_661" data-name="Group 661" transform="translate(0.261 1.586)">
            <path id="Path_1078" data-name="Path 1078" d="M410.352,354.2c-2.259,0-4.172.725-4.846,1.728.674,1,2.587,1.728,4.846,1.728s4.172-.725,4.846-1.728C414.524,354.926,412.611,354.2,410.352,354.2Z" transform="translate(-405.506 -354.201)" fill="#e0e0e0"/>
          </g>
        </g>
        <g id="Group_663" data-name="Group 663" transform="translate(0 8.586)">
          <path id="Path_1079" data-name="Path 1079" d="M402.285,341.744s-2.53-.1-4.7-3.459c-.9-1.386-1.327-2.114-1.327-2.114l3.526-.262-3.95-.988-1.866-2.855,3.28-.243a16.26,16.26,0,0,0-4.188-.867s-3.025-5.344-3.91-6.105a17.149,17.149,0,0,1,11.949,5.937C406.071,336.667,403.022,341.894,402.285,341.744Z" transform="translate(-389.149 -324.85)" fill="#ba68c8"/>
          <path id="Path_1080" data-name="Path 1080" d="M406.868,343.36s1.582-9.533-8.517-15.267C398.351,328.093,408.833,333.128,406.868,343.36Z" transform="translate(-393.733 -326.465)" fill="#fff"/>
        </g>
        <g id="Group_664" data-name="Group 664" transform="translate(12.041 11.451)">
          <path id="Path_1081" data-name="Path 1081" d="M414.236,344.587s2.292.15,4.567-2.679c.938-1.166,1.4-1.782,1.4-1.782l-3.156-.569,3.657-.519,1.953-2.4-2.937-.529a14.759,14.759,0,0,1,3.86-.388s3.232-4.536,4.1-5.14a15.554,15.554,0,0,0-11.34,4.231C411.3,339.65,413.556,344.654,414.236,344.587Z" transform="translate(-413.141 -330.558)" fill="#ba68c8"/>
          <path id="Path_1082" data-name="Path 1082" d="M414.236,344.587s2.292.15,4.567-2.679c.938-1.166,1.4-1.782,1.4-1.782l-3.156-.569,3.657-.519,1.953-2.4-2.937-.529a14.759,14.759,0,0,1,3.86-.388s3.232-4.536,4.1-5.14a15.554,15.554,0,0,0-11.34,4.231C411.3,339.65,413.556,344.654,414.236,344.587Z" transform="translate(-413.141 -330.558)" opacity="0.2"/>
          <path id="Path_1083" data-name="Path 1083" d="M415.275,345.637s-.53-8.75,9.122-12.972C424.4,332.665,414.466,336.221,415.275,345.637Z" transform="translate(-414.181 -331.607)" fill="#fff"/>
        </g>
      </g>
    </g>
    <g id="Envelope" transform="translate(33.264 75.514)">
      <g id="Group_666" data-name="Group 666" transform="translate(0 0)">
        <path id="Path_1084" data-name="Path 1084" d="M128.627,114.652l-2.284-.931c-.075-.035-.152-.065-.229-.093l-.027-.011v0a2.993,2.993,0,0,0-2.529.229L45.216,159.079a10.829,10.829,0,0,0-5.414,9.378V236.7a4.13,4.13,0,0,0,6.2,3.577l78.438-45.286a7.367,7.367,0,0,0,3.683-6.379V116.481a3.014,3.014,0,0,0-.381-1.475Z" transform="translate(-39.802 -113.44)" fill="#ba68c8"/>
        <path id="Path_1085" data-name="Path 1085" d="M128.627,114.652l-2.284-.931c-.075-.035-.152-.065-.229-.093l-.027-.011v0a2.993,2.993,0,0,0-2.529.229L45.216,159.079a10.829,10.829,0,0,0-5.414,9.378V236.7a4.13,4.13,0,0,0,6.2,3.577l78.438-45.286a7.367,7.367,0,0,0,3.683-6.379V116.481a3.014,3.014,0,0,0-.381-1.475Z" transform="translate(-39.802 -113.44)" opacity="0.3"/>
        <path id="Path_1086" data-name="Path 1086" d="M132.252,118.129V190.26a7.367,7.367,0,0,1-3.681,6.378L50.13,241.923a4.131,4.131,0,0,1-6.2-3.576V170.106a10.831,10.831,0,0,1,1.406-5.333l.013-.023a7.819,7.819,0,0,1,2.926-2.886L129.3,115.092a3.049,3.049,0,0,1,2.954,3.037Z" transform="translate(-41.861 -114.263)" fill="#ba68c8"/>
        <path id="Path_1087" data-name="Path 1087" d="M132.252,118.129V190.26a7.367,7.367,0,0,1-3.681,6.378L50.13,241.923a4.131,4.131,0,0,1-6.2-3.576V170.106a10.831,10.831,0,0,1,1.406-5.333l.013-.023a7.819,7.819,0,0,1,2.926-2.886L129.3,115.092a3.049,3.049,0,0,1,2.954,3.037Z" transform="translate(-41.861 -114.263)" opacity="0.1"/>
        <path id="Path_1088" data-name="Path 1088" d="M130.757,252.629,52.318,297.915a4.081,4.081,0,0,1-3.994.067l46.815-70.488,39.3,18.755A7.367,7.367,0,0,1,130.757,252.629Z" transform="translate(-44.047 -170.253)" fill="#ba68c8"/>
        <path id="Path_1089" data-name="Path 1089" d="M130.757,252.629,52.318,297.915a4.081,4.081,0,0,1-3.994.067l46.815-70.488,39.3,18.755A7.367,7.367,0,0,1,130.757,252.629Z" transform="translate(-44.047 -170.253)" opacity="0.2"/>
        <path id="Path_1090" data-name="Path 1090" d="M132.33,115.63l-31.988,66.9a10.584,10.584,0,0,1-14.836,4.6L46.737,164.773h0a7.537,7.537,0,0,1,2.8-2.827l81.16-46.855A2.985,2.985,0,0,1,132.33,115.63Z" transform="translate(-43.256 -114.263)" fill="#ba68c8"/>
      </g>
    </g>
    <g id="Letter" transform="translate(44.795 37.302)">
      <g id="Group_670" data-name="Group 670">
        <g id="Group_667" data-name="Group 667" transform="translate(0 37.526)">
          <path id="Path_1091" data-name="Path 1091" d="M62.778,141.786l22.977-13.269V112.074l-16.7,9.2A12.134,12.134,0,0,0,62.778,131.9Z" transform="translate(-62.778 -112.074)" fill="#ba68c8"/>
          <path id="Path_1092" data-name="Path 1092" d="M62.778,141.786l22.977-13.269V112.074l-16.7,9.2A12.134,12.134,0,0,0,62.778,131.9Z" transform="translate(-62.778 -112.074)" fill="#fff" opacity="0.5"/>
        </g>
        <path id="Path_1093" data-name="Path 1093" d="M157.724,40.85l-2.08-1.2a17.506,17.506,0,0,0-17.57.034L72.363,77.977a19.3,19.3,0,0,0-9.585,16.679,9.848,9.848,0,0,1,14.824-8.5l2.754,1.613a19.014,19.014,0,0,1,9.406,16.408v97.635l-4.477,11.374,8.412-5.12h0l67.662-39.261a15.84,15.84,0,0,0,7.891-13.7V60.819A23.06,23.06,0,0,0,157.724,40.85Z" transform="translate(-62.778 -37.302)" fill="#ba68c8"/>
        <path id="Path_1094" data-name="Path 1094" d="M157.724,40.85l-2.08-1.2a17.506,17.506,0,0,0-17.57.034L72.363,77.977a19.3,19.3,0,0,0-9.585,16.679,9.848,9.848,0,0,1,14.824-8.5l2.754,1.613a19.014,19.014,0,0,1,9.406,16.408v97.635l-4.477,11.374,8.412-5.12h0l67.662-39.261a15.84,15.84,0,0,0,7.891-13.7V60.819A23.06,23.06,0,0,0,157.724,40.85Z" transform="translate(-62.778 -37.302)" fill="#fff" opacity="0.7"/>
        <path id="Path_1095" data-name="Path 1095" d="M68.206,356.3s4.713,6.894,12.288,9.176c8.145,2.453,11.972-2.944,11.972-10.108V342.41Z" transform="translate(-65.482 -189.283)" fill="#ba68c8"/>
        <path id="Path_1096" data-name="Path 1096" d="M68.206,356.3s4.713,6.894,12.288,9.176c8.145,2.453,11.972-2.944,11.972-10.108V342.41Z" transform="translate(-65.482 -189.283)" fill="#fff" opacity="0.5"/>
        <g id="Group_668" data-name="Group 668" transform="translate(40.883 67.242)">
          <path id="Path_1097" data-name="Path 1097" d="M144.982,201.758a.743.743,0,0,1-.372-1.386l50.2-28.989a.743.743,0,0,1,.743,1.286l-50.2,28.989A.742.742,0,0,1,144.982,201.758Z" transform="translate(-144.239 -171.284)" fill="#fff"/>
          <path id="Path_1098" data-name="Path 1098" d="M144.982,223.9a.743.743,0,0,1-.372-1.386l50.2-28.989a.743.743,0,0,1,.743,1.287l-50.2,28.988A.737.737,0,0,1,144.982,223.9Z" transform="translate(-144.239 -182.313)" fill="#fff"/>
          <path id="Path_1099" data-name="Path 1099" d="M144.982,246.042a.743.743,0,0,1-.372-1.386l50.2-28.989a.743.743,0,0,1,.743,1.286l-50.2,28.989A.737.737,0,0,1,144.982,246.042Z" transform="translate(-144.239 -193.342)" fill="#fff"/>
          <path id="Path_1100" data-name="Path 1100" d="M144.982,268.184a.743.743,0,0,1-.372-1.386l50.2-28.99a.743.743,0,0,1,.743,1.287l-50.2,28.989A.737.737,0,0,1,144.982,268.184Z" transform="translate(-144.239 -204.372)" fill="#fff"/>
          <path id="Path_1101" data-name="Path 1101" d="M144.982,290.326a.743.743,0,0,1-.372-1.386l50.2-28.989a.742.742,0,1,1,.743,1.286l-50.2,28.989A.737.737,0,0,1,144.982,290.326Z" transform="translate(-144.239 -215.401)" fill="#fff"/>
          <path id="Path_1102" data-name="Path 1102" d="M210.653,293.436a.743.743,0,0,1-.372-1.386l17.247-9.958a.743.743,0,0,1,.743,1.286l-17.246,9.958A.742.742,0,0,1,210.653,293.436Z" transform="translate(-176.951 -226.43)" fill="#fff"/>
        </g>
        <g id="Group_669" data-name="Group 669" transform="translate(58.747 40.762)">
          <path id="Path_1103" data-name="Path 1103" d="M201,135.719l-14.461,8.349v-7.125c0-4.956,3.012-10.712,6.729-12.857l1-.58c3.716-2.146,6.729.132,6.729,5.087Z" transform="translate(-183.174 -120.602)" fill="#ba68c8"/>
          <path id="Path_1104" data-name="Path 1104" d="M201.028,149.472l-21.2,12.238,3.367-7.8,14.462-8.349Z" transform="translate(-179.832 -131.991)" fill="#ba68c8"/>
          <path id="Path_1105" data-name="Path 1105" d="M199.826,124.068c-.625.361-1.132.068-1.132-.653v-2.778a2.5,2.5,0,0,1,1.132-1.961c.625-.361,1.132-.068,1.132.653v2.778A2.5,2.5,0,0,1,199.826,124.068Z" transform="translate(-189.228 -118.521)" fill="#ba68c8"/>
          <path id="Path_1106" data-name="Path 1106" d="M196.148,167.642c.063,1.44,1.116,2.007,2.41,1.26a5.359,5.359,0,0,0,2.4-4.039Z" transform="translate(-187.959 -141.605)" fill="#ba68c8"/>
        </g>
      </g>
    </g>
    <g id="Speech_bubble" data-name="Speech bubble" transform="translate(172.745 59.151)">
      <g id="Group_672" data-name="Group 672">
        <circle id="Ellipse_45" data-name="Ellipse 45" cx="10.554" cy="10.554" r="10.554" transform="translate(0 4.85) rotate(-13.282)" fill="#ba68c8"/>
        <path id="Path_1107" data-name="Path 1107" d="M336.416,122.483s.946,3.353-2.875,6.462c0,0,5.881-.59,6.2-6.183Z" transform="translate(-325.601 -101.581)" fill="#ba68c8"/>
        <g id="Group_671" data-name="Group 671" transform="translate(10.901 8.225)">
          <path id="Path_1108" data-name="Path 1108" d="M342.277,102.666h-2.267l-.567-5.442h3.4Zm-1.134,3.5a1.555,1.555,0,0,1-1.663-1.512,1.673,1.673,0,0,1,3.326,0A1.555,1.555,0,0,1,341.143,106.168Z" transform="translate(-339.442 -97.224)" fill="#fff"/>
        </g>
      </g>
    </g>
    <g id="Character" transform="translate(136.076 89.538)">
      <g id="Group_678" data-name="Group 678">
        <path id="Path_1109" data-name="Path 1109" d="M273.186,184.322a6.634,6.634,0,0,0-5.723,2.515c-2.233,2.936-6.961,9.9-6.961,9.9s-1.977-2.194-3.273-3.734-2.491-2.845-2.491-2.845-.272-1.3-.38-2.5a3.813,3.813,0,0,0-1.142-2.828,4.661,4.661,0,0,1-1.614-2.205c-.072-.622-.506-1.247-1.05-.609s-.49,2.6.652,3.9a10.413,10.413,0,0,1-2.991-2.084c-.924-1.124-2.175-3.082-2.719-2.538s-1.577,6.378,0,7.675a56.1,56.1,0,0,0,5.492,3.527S256.1,205,259.687,205s9.518-9.245,9.518-9.245Z" transform="translate(-244.656 -161.215)" fill="#ffa8a7"/>
        <path id="Path_1110" data-name="Path 1110" d="M288.785,316.27l1.122,16.966a3.687,3.687,0,0,0,2.937,1.794l1.754-1.917a36.354,36.354,0,0,1,.571-6.77c.652-3.426,1.917-8.442,2.284-11.338Z" transform="translate(-266.638 -227.868)" fill="#ffa8a7"/>
        <path id="Path_1111" data-name="Path 1111" d="M288.813,241.016s-.879,5.71-1.316,11.256c-.349,4.427-.575,10.569-.652,12.868a16.732,16.732,0,0,0,.038,1.809l.932,12.4s5.486,2.406,8.667-1.265a22.89,22.89,0,0,0-.165-6.025,10.3,10.3,0,0,1,.113-4.713l3.437-13.814V240.894Z" transform="translate(-265.666 -190.951)" fill="#37474f"/>
        <path id="Path_1112" data-name="Path 1112" d="M296.094,250.569a5.694,5.694,0,0,0,4.1,4.239l2.056,12.5,3.007-10.947v-5.789Z" transform="translate(-270.279 -195.771)" fill="#263238"/>
        <path id="Path_1113" data-name="Path 1113" d="M317.349,321.187l3.466,19.128h3.753s1.421-16.116,1.346-20.514Z" transform="translate(-280.866 -230.256)" fill="#ffa8a7"/>
        <path id="Path_1114" data-name="Path 1114" d="M294.247,239.072s-.734,7.382,5.872,8.035l3.426,21.988,2.284,10.966s5.351,3.489,8.565-1.387c0,0,.325-5.529-1-9.326a7.729,7.729,0,0,1-.423-3.083c.372-5.388,1.4-21.2.892-24.7l-3.3-4.323Z" transform="translate(-269.346 -189.13)" fill="#37474f"/>
        <path id="Path_1115" data-name="Path 1115" d="M303.25,188.217H306.6l2.243,11.2-1.475,4.792a4.173,4.173,0,0,0,.2,2.989c1.02,2.19,2.864,6.464,3.272,9.552a5.193,5.193,0,0,1-4.772-2.406s-2.814,3.711-9.666,3.711a9.481,9.481,0,0,1-6.933-3.671l1.234-5.55a4.97,4.97,0,0,0,.11-1.373c-.068-1.151-.191-3.525-.161-5.312a4.356,4.356,0,0,1-2.365-5.179c.816-3.915,6.566-9.543,6.566-9.543l2.462.093Z" transform="translate(-266.323 -164.317)" fill="#ba68c8"/>
        <g id="Group_675" data-name="Group 675" transform="translate(21.255 1.099)">
          <path id="Path_1116" data-name="Path 1116" d="M294.589,144.764s-4.063-1.41-5.054,2.751,2.065,8.2-2.528,9.584c0,0,2.7,2.248,5.079-1.951l2.027,8.544s-.008.466-.711.823c0,0,11.56,2.569,13.767-3.2a2.46,2.46,0,0,1,.505,2.533s3.407-1.382,2.45-5.792c0,0,2.695-.078,3.336-2.27a4.116,4.116,0,0,1-4.285-4.552c.03-5.494-2.861-4.7-2.861-4.7S302.765,141.28,294.589,144.764Z" transform="translate(-287.007 -143.572)" fill="#455a64"/>
          <g id="Group_674" data-name="Group 674" transform="translate(2.018 1.581)">
            <path id="Path_1117" data-name="Path 1117" d="M304.7,176.932v3.67s-3.8,4.227-.1,4.562,6.031-3.861,6.031-3.861v-7.761Z" transform="translate(-296.986 -160.081)" fill="#ffa8a7"/>
            <path id="Path_1118" data-name="Path 1118" d="M312.238,169.835v.213c-1.322,5.216-4.76,6.353-5.869,6.618l-.04-8.075,5.74-.028Z" transform="translate(-298.65 -157.602)" fill="#f28f8f"/>
            <path id="Path_1119" data-name="Path 1119" d="M300.388,147.926a7.293,7.293,0,0,0-6.816,7.559c-.067,5.776.816,10.182,3.81,10.365a10.255,10.255,0,0,0,10-10.017C307.69,148.337,302.525,147.751,300.388,147.926Z" transform="translate(-292.294 -147.309)" fill="#ffa8a7"/>
            <path id="Path_1120" data-name="Path 1120" d="M299.706,167.634l.052,3.391-2-.579Z" transform="translate(-294.383 -157.138)" fill="#f28f8f"/>
            <path id="Path_1121" data-name="Path 1121" d="M306.2,166.777a.691.691,0,1,1-.7-.681A.691.691,0,0,1,306.2,166.777Z" transform="translate(-297.898 -156.372)" fill="#263238"/>
            <path id="Path_1122" data-name="Path 1122" d="M297.133,165.944a.691.691,0,1,1-.7-.681A.691.691,0,0,1,297.133,165.944Z" transform="translate(-293.381 -155.957)" fill="#263238"/>
            <path id="Path_1123" data-name="Path 1123" d="M303.131,175.793a20.656,20.656,0,0,0-2.22.7s-.206-1.176.775-1.446A1.284,1.284,0,0,1,303.131,175.793Z" transform="translate(-295.942 -160.809)" fill="#f28f8f"/>
            <path id="Path_1124" data-name="Path 1124" d="M296.665,161.525l-1.34.822s.526.531,1.038.2A.944.944,0,0,0,296.665,161.525Z" transform="translate(-293.169 -154.096)" fill="#263238"/>
            <path id="Path_1125" data-name="Path 1125" d="M306,157.107s-.049,2.139,1.352,2.139h2.743V154.61c0-5.2-3.944-10.629-12.335-6.336C297.758,148.274,297.264,155.507,306,157.107Z" transform="translate(-294.378 -146.722)" fill="#455a64"/>
            <g id="Group_673" data-name="Group 673" transform="translate(0 8.351)">
              <path id="Path_1126" data-name="Path 1126" d="M293.4,167.43a2.047,2.047,0,1,1,2.37-2.022A2.22,2.22,0,0,1,293.4,167.43Zm0-3.632a1.641,1.641,0,1,0,1.958,1.61A1.812,1.812,0,0,0,293.4,163.8Z" transform="translate(-291.028 -163.373)" fill="#ba68c8"/>
              <path id="Path_1127" data-name="Path 1127" d="M304.728,167.43c-1.464,0-2.654-.913-2.654-2.035s1.19-2.034,2.654-2.034,2.654.912,2.654,2.034S306.192,167.43,304.728,167.43Zm0-3.632c-1.223,0-2.218.717-2.218,1.6s1,1.6,2.218,1.6,2.218-.717,2.218-1.6S305.951,163.8,304.728,163.8Z" transform="translate(-296.53 -163.361)" fill="#ba68c8"/>
              <rect id="Rectangle_135" data-name="Rectangle 135" width="1.227" height="0.437" transform="translate(4.535 1.816)" fill="#ba68c8"/>
              <rect id="Rectangle_136" data-name="Rectangle 136" width="3.174" height="0.437" transform="translate(10.634 1.816)" fill="#ba68c8"/>
            </g>
            <path id="Path_1128" data-name="Path 1128" d="M316.845,168.5a3.531,3.531,0,0,1,.3-1.54,1.63,1.63,0,0,1,1.426-1.093,1.842,1.842,0,0,1,1.81,2.106,3.35,3.35,0,0,1-3.5,3.083Z" transform="translate(-303.888 -156.256)" fill="#ffa8a7"/>
          </g>
        </g>
        <g id="Group_676" data-name="Group 676" transform="translate(35.603)">
          <path id="Path_1129" data-name="Path 1129" d="M320.268,165.283s-3.82,9.144,2.243,11.2l1.332-2.841s11.1-10.169,13.816-12.4-.765-5.527-4.136-8.609-6.743-6.073-6.743-6.073l-1.688-2.983a2.63,2.63,0,0,0-1.754-1.283,34.819,34.819,0,0,0-6.89-.9c-2.518.134,1.277,3.262,1.916,3.262a3.364,3.364,0,0,1,2.815,1.686c.761,1.36.9,3.806,3.331,3.7l5.642,8.429Z" transform="translate(-315.595 -141.383)" fill="#ffa8a7"/>
          <path id="Path_1130" data-name="Path 1130" d="M343.512,175.424l1.958,2.5-3.053-1.746Z" transform="translate(-328.955 -158.339)" fill="#f28f8f"/>
        </g>
        <path id="Path_1131" data-name="Path 1131" d="M276.23,211.091l1.74,2.012-1.009-3.083Z" transform="translate(-260.384 -175.573)" fill="#f28f8f"/>
        <path id="Path_1132" data-name="Path 1132" d="M306.2,212.8s5.026.4,6.576-4.361C312.773,208.444,312.835,214.518,306.2,212.8Z" transform="translate(-275.311 -174.787)" opacity="0.2"/>
        <path id="Path_1133" data-name="Path 1133" d="M282.02,350.49s-.7-2.188.385-2.3,2.986.456,3.176,1.026a3.307,3.307,0,0,1,.14,1.169,5.749,5.749,0,0,0,1.478-.748v-.806s1.129.112,1.21.956.1,1.87.136,2.828c.067,1.939.353,3.236-1.849,3.807a8.181,8.181,0,0,0-4.078,2.447,6.648,6.648,0,0,1-5.954,1.985c-3.317-.462-3.127-3.263-1.958-4.16a21.234,21.234,0,0,1,3.589-2.139Z" transform="translate(-259.24 -244.389)" fill="#ba68c8"/>
        <path id="Path_1134" data-name="Path 1134" d="M284.893,362.737a.274.274,0,0,1-.243-.147,3.877,3.877,0,0,0-2.358-1.713.274.274,0,0,1,.117-.536,4.366,4.366,0,0,1,2.727,1.993.274.274,0,0,1-.115.371A.271.271,0,0,1,284.893,362.737Z" transform="translate(-263.296 -250.447)" fill="#fafafa"/>
        <path id="Path_1135" data-name="Path 1135" d="M287.426,360.038a.275.275,0,0,1-.243-.147,3.876,3.876,0,0,0-2.358-1.714.275.275,0,0,1,.117-.537,4.369,4.369,0,0,1,2.726,1.994.275.275,0,0,1-.242.4Z" transform="translate(-264.558 -249.103)" fill="#fafafa"/>
        <path id="Path_1136" data-name="Path 1136" d="M289.959,357.34a.275.275,0,0,1-.242-.147,3.873,3.873,0,0,0-2.359-1.713.275.275,0,0,1-.209-.327.272.272,0,0,1,.326-.209,4.367,4.367,0,0,1,2.726,1.994.275.275,0,0,1-.242.4Z" transform="translate(-265.819 -247.758)" fill="#fafafa"/>
        <path id="Path_1137" data-name="Path 1137" d="M322.234,359.009a1.417,1.417,0,0,1,1.509-1.678c1.754.006,3.018.052,2.855,1.355l.014.935a43.789,43.789,0,0,0,.353,6.158c.367,1.509,1.212,6.269-2.371,6.969s-4.888-2.36-4.236-5.256a26.124,26.124,0,0,0,.734-4.976c.082-1.06-.326-4.934.838-5.185Z" transform="translate(-282.284 -248.951)" fill="#ba68c8"/>
        <path id="Path_1138" data-name="Path 1138" d="M327.416,371.179a.272.272,0,0,1-.135-.037,3.858,3.858,0,0,0-2.91-.177.274.274,0,0,1-.189-.515,4.371,4.371,0,0,1,3.371.216.275.275,0,0,1-.136.513Z" transform="translate(-284.18 -255.364)" fill="#fafafa"/>
        <path id="Path_1139" data-name="Path 1139" d="M327.794,367.06a.272.272,0,0,1-.135-.036,3.851,3.851,0,0,0-2.91-.178.274.274,0,0,1-.189-.515,4.364,4.364,0,0,1,3.371.216.274.274,0,0,1-.136.512Z" transform="translate(-284.369 -253.312)" fill="#fafafa"/>
        <path id="Path_1140" data-name="Path 1140" d="M328.172,362.941a.271.271,0,0,1-.135-.036,3.887,3.887,0,0,0-2.91-.178.274.274,0,0,1-.189-.515,4.369,4.369,0,0,1,3.371.216.274.274,0,0,1-.137.512Z" transform="translate(-284.557 -251.261)" fill="#fafafa"/>
        <path id="Path_1141" data-name="Path 1141" d="M277.037,362.163a18.9,18.9,0,0,0-2.331,1.5c-1.169.9-1.36,3.7,1.958,4.16a6.783,6.783,0,0,0,4.1-.611A6.63,6.63,0,0,0,277.037,362.163Z" transform="translate(-259.24 -251.358)" fill="#fff"/>
        <g id="Group_677" data-name="Group 677" transform="translate(14.699 109.365)">
          <path id="Path_1142" data-name="Path 1142" d="M286.7,361.531a8.181,8.181,0,0,0-4.078,2.447,6.648,6.648,0,0,1-5.954,1.985c-1.859-.259-2.615-1.252-2.717-2.233-.094,1.1.585,2.363,2.717,2.66a6.648,6.648,0,0,0,5.954-1.985,8.181,8.181,0,0,1,4.078-2.447c1.736-.45,1.925-1.353,1.894-2.664C288.563,360.376,288.242,361.132,286.7,361.531Z" transform="translate(-273.943 -359.295)" fill="#37474f"/>
        </g>
        <path id="Path_1143" data-name="Path 1143" d="M327.271,376.348a4.926,4.926,0,0,0-6.913-.116c-.652,2.9.653,5.952,4.236,5.254C327.193,380.978,327.459,378.337,327.271,376.348Z" transform="translate(-282.284 -257.689)" fill="#f5f5f5"/>
        <path id="Path_1144" data-name="Path 1144" d="M324.6,383.056c-2.88.562-4.286-1.3-4.388-3.563-.122,2.5,1.269,4.739,4.388,4.131,2.312-.451,2.777-2.59,2.72-4.458C327.26,380.878,326.675,382.65,324.6,383.056Z" transform="translate(-282.286 -259.828)" fill="#455a64"/>
      </g>
    </g>
  </g>
</svg>
