<svg xmlns="http://www.w3.org/2000/svg" width="8.883" height="8.474" viewBox="0 0 8.883 8.474">
    <g id="star" transform="translate(0 -11.795)">
        <path id="Path_199" data-name="Path 199" d="M8.871,15.013a.26.26,0,0,0-.21-.177l-2.754-.4-1.232-2.5a.26.26,0,0,0-.467,0l-1.232,2.5-2.754.4a.26.26,0,0,0-.144.444l1.993,1.942L1.6,19.965a.26.26,0,0,0,.378.274l2.463-1.295L6.9,20.239a.26.26,0,0,0,.378-.274l-.47-2.743L8.8,15.28A.26.26,0,0,0,8.871,15.013Z" transform="translate(0)" fill="#fed42d"/>
        <path id="Path_200" data-name="Path 200" d="M260.43,15.013a.26.26,0,0,0-.21-.177l-2.754-.4-1.232-2.5A.26.26,0,0,0,256,11.8v7.149l2.463,1.295a.26.26,0,0,0,.378-.274l-.47-2.743,1.993-1.942A.26.26,0,0,0,260.43,15.013Z" transform="translate(-251.559)" fill="#fcbf29"/>
    </g>
</svg>
