<svg xmlns="http://www.w3.org/2000/svg" width="62" height="62" viewBox="0 0 62 62">
  <g id="Group_5139" data-name="Group 5139" transform="translate(-10494 21525)">
    <g id="Group_5137" data-name="Group 5137" transform="translate(-19 -404)">
      <circle id="Ellipse_1398" data-name="Ellipse 1398" cx="31" cy="31" r="31" transform="translate(10513 -21121)" fill="#ffefcc"/>
      <path id="Path_14136" data-name="Path 14136" d="M211.09,116.892a31.005,31.005,0,0,0,27.3-30.782c0-.019,0-.039,0-.058L223.564,70.764l-31.422,34.393Z" transform="translate(10336.606 -21175.893)" fill="#ffe4a7"/>
    </g>
    <g id="Group_5138" data-name="Group 5138" transform="translate(10498.837 -21510.805)">
      <g id="groceries_1_" data-name="groceries (1)" transform="translate(4.543 -3.47)">
        <path id="Path_123" data-name="Path 123" d="M236.4,7.553a29.262,29.262,0,0,0-2.861,4.526l-.141-.063-5.857-2.643c-1.213-3.457-.812-6.468.389-6.468,1.182,0,2.463,2.934,2.5,3.025-.017-.111-.674-4.45,1.3-4.45A1.829,1.829,0,0,1,233.409,2.9a6.368,6.368,0,0,1,.331,1.91s1.5-3.4,3.3-2.9S237.415,6.54,236.4,7.553Z" transform="translate(-209.43 0.065)" fill="#95d6a4"/>
        <path id="Path_124" data-name="Path 124" d="M233.089,10.833a2.9,2.9,0,0,1,.31,1.182l-5.857-2.643c-1.213-3.457-.812-6.468.389-6.468,1.182,0,2.463,2.934,2.5,3.025-.017-.111-.674-4.45,1.3-4.45A1.829,1.829,0,0,1,233.409,2.9h0C232.714,1.48,230.686,5.587,233.089,10.833Z" transform="translate(-209.43 0.065)" fill="#78c2a4"/>
        <g id="Group_67" data-name="Group 67" transform="translate(11.976)">
          <ellipse id="Ellipse_18" data-name="Ellipse 18" cx="14.615" cy="7.496" rx="14.615" ry="7.496" transform="translate(0 20.665) rotate(-45)" fill="#e49542"/>
          <g id="Group_66" data-name="Group 66" transform="translate(4.021 4.014)">
            <path id="Path_125" data-name="Path 125" d="M210.057,55.649c-2.927-2.927-.674-9.927,5.033-15.634s12.708-7.961,15.635-5.034c-1.232-1.232-6.858,2.4-12.566,8.1S208.824,54.417,210.057,55.649Z" transform="translate(-208.774 -33.698)" fill="#e28424"/>
            <path id="Path_126" data-name="Path 126" d="M378.039,89.558l-4.3-4.3a1.268,1.268,0,1,0-1.794,1.794l4.3,4.3a1.268,1.268,0,0,0,1.794-1.794Z" transform="translate(-359.1 -80.963)" fill="#e28424"/>
            <path id="Path_127" data-name="Path 127" d="M313.863,153.734l-4.3-4.3a1.268,1.268,0,0,0-1.794,1.794l4.3,4.3a1.268,1.268,0,1,0,1.794-1.794Z" transform="translate(-299.841 -140.222)" fill="#e28424"/>
          </g>
        </g>
        <g id="Group_68" data-name="Group 68" transform="translate(3.759 1.613)">
          <path id="Path_128" data-name="Path 128" d="M62.763,24.879a37.283,37.283,0,0,1-.5,4.277,1.94,1.94,0,0,1-1.163,1.43c-.542.226-1.126.6-1.126,1.164a1.191,1.191,0,0,0,.1.485H51.757a1.191,1.191,0,0,0,.1-.485c0-.564-.584-.939-1.126-1.164a1.937,1.937,0,0,1-1.162-1.43,37.15,37.15,0,0,1-.5-4.277,1.916,1.916,0,0,1,.248-1.075,12.216,12.216,0,0,1,4.209-3.949V15.964h4.786v3.891A12.21,12.21,0,0,1,62.516,23.8a1.909,1.909,0,0,1,.248,1.075Z" transform="translate(-49.06 -14.922)" fill="#80b4fb"/>
          <path id="Path_129" data-name="Path 129" d="M107.285,32.189h4.786V33.6h-4.786Z" transform="translate(-102.824 -29.904)" fill="#61a2f9"/>
          <path id="Path_130" data-name="Path 130" d="M54.861,29.575v2.848A9.248,9.248,0,0,0,52,36.372a3.019,3.019,0,0,0-.147,1.075c.032.863.114,2.63.3,4.277a2.02,2.02,0,0,0,.688,1.43,1.422,1.422,0,0,1,.666,1.164,1.9,1.9,0,0,1-.058.485h-1.7a1.191,1.191,0,0,0,.1-.485c0-.564-.584-.939-1.126-1.164a1.938,1.938,0,0,1-1.162-1.43,37,37,0,0,1-.5-4.277,1.908,1.908,0,0,1,.248-1.075,12.216,12.216,0,0,1,4.209-3.95V30.2Z" transform="translate(-49.06 -27.49)" fill="#61a2f9"/>
          <path id="Path_131" data-name="Path 131" d="M105.618,2.366h-3.681A1.042,1.042,0,0,0,100.9,3.408V5.079h5.764V3.408A1.042,1.042,0,0,0,105.618,2.366Z" transform="translate(-96.923 -2.366)" fill="#db5c6e"/>
          <path id="Path_132" data-name="Path 132" d="M104,2.37a1.041,1.041,0,0,0-1.042,1.041V5.083H100.9V3.411a1.041,1.041,0,0,1,1.042-1.041Z" transform="translate(-96.923 -2.37)" fill="#d64553"/>
        </g>
        <path id="Path_133" data-name="Path 133" d="M64.136,274.62s-.035,1.151-.149,2.941a102.672,102.672,0,0,1-1.13,10.214,5.9,5.9,0,0,1-5.815,4.919H36.508a5.9,5.9,0,0,1-5.815-4.919,102.67,102.67,0,0,1-1.13-10.214c-.114-1.79-.149-2.941-.149-2.941Z" transform="translate(-27.16 -252.147)" fill="#db5c6e"/>
        <path id="Path_134" data-name="Path 134" d="M64.135,274.62s-.035,1.151-.149,2.941a2.938,2.938,0,0,1-.562.065q-16.65.32-33.3,0a2.943,2.943,0,0,1-.562-.065c-.114-1.79-.149-2.941-.149-2.941Z" transform="translate(-27.159 -252.147)" fill="#d64553"/>
        <path id="Path_135" data-name="Path 135" d="M39.045,292.695H36.508a5.9,5.9,0,0,1-5.815-4.919,110.71,110.71,0,0,1-1.279-13.156H33.7s.157,6.875.963,13.155C35.032,290.614,36.877,292.695,39.045,292.695Z" transform="translate(-27.16 -252.147)" fill="#d64553"/>
        <path id="Path_136" data-name="Path 136" d="M158.164,104.867a63.489,63.489,0,0,0-12.023-.152c-.532.044-.731.428-1.263.485a56.464,56.464,0,0,0-.333,12.979,63.516,63.516,0,0,0,13.619,0A59.336,59.336,0,0,0,158.164,104.867Z" transform="translate(-133.241 -95.062)" fill="#ededed"/>
        <path id="Path_137" data-name="Path 137" d="M144.6,120.917q-.8-.065-1.6-.152a59.309,59.309,0,0,1,0-13.313q.8-.085,1.6-.152A62.825,62.825,0,0,0,144.6,120.917Z" transform="translate(-131.701 -97.648)" fill="#dbdbdb"/>
        <path id="Path_138" data-name="Path 138" d="M36.266,202.628q-16.649.32-33.3,0a2.95,2.95,0,0,1-2.833-2.362,6.5,6.5,0,0,1,0-2.611,2.949,2.949,0,0,1,2.833-2.362q16.649-.32,33.3,0a2.949,2.949,0,0,1,2.833,2.362,6.5,6.5,0,0,1,0,2.611A2.95,2.95,0,0,1,36.266,202.628Z" transform="translate(-0.002 -178.751)" fill="#ffd064"/>
        <path id="Path_139" data-name="Path 139" d="M5.8,204.016q-1.418-.021-2.838-.049a2.949,2.949,0,0,1-2.832-2.362,6.492,6.492,0,0,1,0-2.611,2.948,2.948,0,0,1,2.832-2.362q1.418-.027,2.838-.049a3.058,3.058,0,0,0-2.26,2.361,6.724,6.724,0,0,0,0,2.71A3.06,3.06,0,0,0,5.8,204.016Z" transform="translate(0.001 -180.09)" fill="#ffc250"/>
        <g id="Group_69" data-name="Group 69" transform="translate(9.815 27.248)">
          <path id="Path_140" data-name="Path 140" d="M130.071,336.932h-.037a1.916,1.916,0,0,0-1.9,1.862q-.072,2.4,0,4.8a1.916,1.916,0,0,0,1.9,1.862h.037a1.916,1.916,0,0,0,1.9-1.862q.072-2.4,0-4.8A1.916,1.916,0,0,0,130.071,336.932Z" transform="translate(-128.098 -336.932)" fill="#365e7d"/>
          <path id="Path_141" data-name="Path 141" d="M232.46,336.932h-.037a1.916,1.916,0,0,0-1.9,1.862q-.072,2.4,0,4.8a1.916,1.916,0,0,0,1.9,1.862h.037a1.916,1.916,0,0,0,1.9-1.862q.072-2.4,0-4.8A1.916,1.916,0,0,0,232.46,336.932Z" transform="translate(-222.642 -336.932)" fill="#365e7d"/>
          <path id="Path_142" data-name="Path 142" d="M334.849,336.932h-.037a1.916,1.916,0,0,0-1.9,1.862q-.072,2.4,0,4.8a1.916,1.916,0,0,0,1.9,1.862h.037a1.916,1.916,0,0,0,1.9-1.862q.072-2.4,0-4.8A1.916,1.916,0,0,0,334.849,336.932Z" transform="translate(-317.186 -336.932)" fill="#365e7d"/>
        </g>
        <g id="Group_72" data-name="Group 72" transform="translate(1.125 18.641)">
          <g id="Group_70" data-name="Group 70" transform="translate(0 0)">
            <path id="Path_143" data-name="Path 143" d="M23.272,225.127a5.832,5.832,0,0,0-1.3-.475,1.944,1.944,0,0,0-2.242,1.194q-2.634,6.712-4.931,13.547a1.944,1.944,0,0,0,.95,2.356,5.834,5.834,0,0,0,1.3.475,1.944,1.944,0,0,0,2.242-1.194q2.634-6.712,4.931-13.547A1.943,1.943,0,0,0,23.272,225.127Z" transform="translate(-14.691 -224.602)" fill="#407093"/>
            <path id="Path_144" data-name="Path 144" d="M16.283,241.991a5.74,5.74,0,0,1-.542-.24,1.943,1.943,0,0,1-.95-2.356q2.3-6.834,4.931-13.547a1.943,1.943,0,0,1,2.242-1.194,5.678,5.678,0,0,1,.568.165,2.044,2.044,0,0,0-1.374,1.229q-2.744,7-5.138,14.117A2.043,2.043,0,0,0,16.283,241.991Z" transform="translate(-14.688 -224.603)" fill="#365e7d"/>
          </g>
          <g id="Group_71" data-name="Group 71" transform="translate(27.345)">
            <path id="Path_145" data-name="Path 145" d="M373.934,224.648a5.826,5.826,0,0,0-1.3.475,1.943,1.943,0,0,0-.95,2.356q2.3,6.835,4.931,13.547a1.944,1.944,0,0,0,2.242,1.194,5.83,5.83,0,0,0,1.3-.475,1.944,1.944,0,0,0,.95-2.356q-2.3-6.835-4.931-13.547A1.944,1.944,0,0,0,373.934,224.648Z" transform="translate(-371.576 -224.598)" fill="#407093"/>
            <path id="Path_146" data-name="Path 146" d="M379.421,245.511a5.715,5.715,0,0,1-.569.164,1.943,1.943,0,0,1-2.242-1.194q-2.633-6.712-4.931-13.547a1.943,1.943,0,0,1,.95-2.356,5.719,5.719,0,0,1,.541-.239,2.043,2.043,0,0,0-.262,1.825q2.395,7.123,5.138,14.117A2.042,2.042,0,0,0,379.421,245.511Z" transform="translate(-371.575 -228.052)" fill="#365e7d"/>
          </g>
        </g>
        <path id="Path_147" data-name="Path 147" d="M100.981,31.424H95.442a.575.575,0,1,1,0-1.149h5.539a.575.575,0,0,1,0,1.149Z" transform="translate(-87.598 -26.523)" fill="#db5c6e"/>
        <path id="Path_148" data-name="Path 148" d="M97.167,31.424H95.442a.575.575,0,1,1,0-1.149h1.725a.575.575,0,1,0,0,1.149Z" transform="translate(-87.598 -26.523)" fill="#d64553"/>
      </g>
    </g>
  </g>
</svg>
