<svg xmlns="http://www.w3.org/2000/svg" width="292.873" height="216.099" viewBox="0 0 292.873 216.099">
  <g id="check" transform="translate(0 -67.108)">
    <path id="Path_6616" data-name="Path 6616" d="M247.763,67.108,115.144,199.727a9.153,9.153,0,0,1-12.945,0L45.11,142.638,0,187.748l86.116,86.117a31.9,31.9,0,0,0,22.555,9.343h0a31.9,31.9,0,0,0,22.555-9.343L292.873,112.217Z" transform="translate(0 0)" fill="#ffb517"/>
    <g id="Group_3148" data-name="Group 3148" transform="translate(90.232 97.299)" opacity="0.1">
      <path id="Path_6617" data-name="Path 6617" d="M345.467,119.888,174.816,290.539a34.918,34.918,0,0,1-17.073,9.376,31.893,31.893,0,0,0,18.439,5.88h0a31.9,31.9,0,0,0,22.555-9.343L360.384,134.805Z" transform="translate(-157.743 -119.888)"/>
    </g>
  </g>
</svg>
