<svg id="heart_1_" data-name="heart (1)" xmlns="http://www.w3.org/2000/svg" width="231.599" height="212.3" viewBox="0 0 231.599 212.3">
  <path id="Path_6235" data-name="Path 6235" d="M115.8,233.632a4.813,4.813,0,0,1-3.407-1.409s-89.8-89.7-90.011-90.054C8.138,129.094,0,109.987,0,89.486,0,51.909,27.056,21.333,60.312,21.333c25.689,0,46.907,23.861,55.487,35.123,8.58-11.262,29.8-35.123,55.487-35.123,33.257,0,60.312,30.576,60.312,68.153A72.846,72.846,0,0,1,215.573,135.6c-.222.419-96.363,96.617-96.363,96.617A4.811,4.811,0,0,1,115.8,233.632Z" transform="translate(0 -21.333)" fill="red"/>
  <path id="Path_6236" data-name="Path 6236" d="M127.478,233.673s91.618-91.66,91.75-91.816a63.1,63.1,0,0,0,14.4-40.687c0-32.258-22.726-58.5-50.662-58.5-27.621,0-51.195,36.027-51.43,36.39a5.02,5.02,0,0,1-8.114,0c-.236-.363-23.809-36.39-51.43-36.39-27.937,0-50.662,26.245-50.662,58.5,0,18.292,7.393,35.24,20.289,46.5C42.089,148.081,127.478,233.673,127.478,233.673Z" transform="translate(-11.683 -33.017)" fill="red"/>
  <path id="Path_6237" data-name="Path 6237" d="M311.485,42.667a33.233,33.233,0,0,0-5.252.433c20.583,3.4,36.614,28.124,36.614,58.069,0,15.2-4.186,29.652-11.785,40.687-.109.156-75.036,91.777-75.066,91.813.037-.037,91.615-91.658,91.747-91.813a63.1,63.1,0,0,0,14.4-40.687C362.147,68.912,339.422,42.667,311.485,42.667Z" transform="translate(-140.199 -33.017)" fill="red" opacity="0.1"/>
  <path id="Path_6238" data-name="Path 6238" d="M57.233,147.671c-10.552-11.262-16.6-28.21-16.6-46.5,0-29.945,16.031-54.673,36.614-58.069A33.225,33.225,0,0,0,72,42.667c-27.937,0-50.662,26.245-50.662,58.5,0,18.292,7.393,35.24,20.289,46.5.466.41,85.855,86,85.855,86h0S57.615,148.081,57.233,147.671Z" transform="translate(-11.683 -33.017)" fill="red" opacity="0.2"/>
  <path id="Path_6239" data-name="Path 6239" d="M115.8,233.632a4.813,4.813,0,0,1-3.407-1.409s-89.8-89.7-90.011-90.054C8.138,129.094,0,109.987,0,89.486,0,51.909,27.056,21.333,60.312,21.333c25.689,0,46.907,23.861,55.487,35.123,8.58-11.262,29.8-35.123,55.487-35.123,33.257,0,60.312,30.576,60.312,68.153A72.846,72.846,0,0,1,215.573,135.6c-.222.419-96.363,96.617-96.363,96.617A4.811,4.811,0,0,1,115.8,233.632Z" transform="translate(0 -21.333)" fill="red"/>
</svg>
