<svg xmlns="http://www.w3.org/2000/svg" width="275.826" height="275.854" viewBox="0 0 275.826 275.854">
  <path id="home" d="M268.417,119.983l-.019-.019L155.871,7.441a25.39,25.39,0,0,0-35.915,0L7.488,119.9l-.114.116a25.384,25.384,0,0,0,16.9,43.266q.388.038.783.038h4.485v82.81a29.755,29.755,0,0,0,29.723,29.719H103.29a8.082,8.082,0,0,0,8.082-8.082V202.849a13.574,13.574,0,0,1,13.56-13.56H150.9a13.574,13.574,0,0,1,13.56,13.56v64.923a8.081,8.081,0,0,0,8.082,8.082h44.024a29.755,29.755,0,0,0,29.723-29.719v-82.81h4.159a25.4,25.4,0,0,0,17.971-43.342Zm0,0" transform="translate(0 0.001)" fill="#262626"/>
</svg>
