<svg id="heart" xmlns="http://www.w3.org/2000/svg" width="235.958" height="212.301" viewBox="0 0 235.958 212.301">
  <g id="Group_3081" data-name="Group 3081" transform="translate(0 0)">
    <path id="Path_6234" data-name="Path 6234" d="M174.51,21.333c-26.173,0-47.79,23.861-56.532,35.123C109.237,45.194,87.62,21.333,61.447,21.333,27.565,21.333,0,51.909,0,89.486c0,20.5,8.291,39.608,22.8,52.684a4.782,4.782,0,0,0,.773.985l90.933,89.069a4.979,4.979,0,0,0,6.946,0l93.957-92.189.97-.924c.768-.712,1.527-1.433,2.376-2.356a4.7,4.7,0,0,0,.874-1.15,72,72,0,0,0,16.327-46.116C235.958,51.909,208.393,21.333,174.51,21.333Zm36.94,108.841a4.487,4.487,0,0,0-.37.49c-.461.518-.965.975-1.464,1.442L117.974,221.99,31.646,137.425a4.856,4.856,0,0,0-1.142-1.437c-13.139-11.262-20.672-28.211-20.672-46.5,0-32.258,23.153-58.5,51.616-58.5,28.141,0,52.158,36.027,52.4,36.39a5.171,5.171,0,0,0,8.267,0c.24-.363,24.257-36.39,52.4-36.39,28.462,0,51.616,26.246,51.616,58.5A62.389,62.389,0,0,1,211.451,130.174Z" transform="translate(0 -21.333)" fill="#707070"/>
  </g>
</svg>
