<svg id="profile-user" xmlns="http://www.w3.org/2000/svg" width="275.867" height="275.854" viewBox="0 0 275.867 275.854">
  <path id="Path_6245" data-name="Path 6245" d="M137.933,0A137.927,137.927,0,1,0,275.867,137.928,137.934,137.934,0,0,0,137.933,0Zm0,41.242A45.622,45.622,0,1,1,92.317,86.865,45.625,45.625,0,0,1,137.933,41.243Zm-.03,198.551a101.229,101.229,0,0,1-65.919-24.308,19.441,19.441,0,0,1-6.822-14.777,46.01,46.01,0,0,1,46.234-46h53.087a45.944,45.944,0,0,1,46.162,46,19.393,19.393,0,0,1-6.816,14.771A101.194,101.194,0,0,1,137.9,239.793Z" transform="translate(0 -0.001)" fill="#262626"/>
</svg>
