<svg xmlns="http://www.w3.org/2000/svg" width="62" height="62" viewBox="0 0 62 62">
  <g id="Group_5141" data-name="Group 5141" transform="translate(-10428 21515)">
    <g id="Group_5140" data-name="Group 5140" transform="translate(-66 10)">
      <g id="Group_5137" data-name="Group 5137" transform="translate(-19 -404)">
        <circle id="Ellipse_1398" data-name="Ellipse 1398" cx="31" cy="31" r="31" transform="translate(10513 -21121)" fill="#fff"/>
      </g>
    </g>
    <g id="menu_2_" data-name="menu (2)" transform="translate(10432.77 -21490.559)">
      <path id="Path_149" data-name="Path 149" d="M397.86,195.253a6.558,6.558,0,1,1-9.274,0,6.558,6.558,0,0,1,9.274,0" transform="translate(-347.32 -193.333)" fill="#ffb517"/>
      <path id="Path_150" data-name="Path 150" d="M204.528,195.253a6.558,6.558,0,1,1-9.274,0,6.558,6.558,0,0,1,9.274,0" transform="translate(-173.661 -193.333)" fill="#ffb517"/>
      <path id="Path_151" data-name="Path 151" d="M11.2,195.253a6.558,6.558,0,1,1-9.274,0,6.558,6.558,0,0,1,9.274,0" transform="translate(-0.001 -193.333)" fill="#ffb517"/>
    </g>
  </g>
</svg>
