<?xml version="1.0" standalone="no"?>
<!DOCTYPE svg PUBLIC "-//W3C//DTD SVG 20010904//EN"
 "http://www.w3.org/TR/2001/REC-SVG-20010904/DTD/svg10.dtd">
<svg version="1.0" xmlns="http://www.w3.org/2000/svg"
 width="64.000000pt" height="64.000000pt" viewBox="0 0 64.000000 64.000000"
 preserveAspectRatio="xMidYMid meet">

<g transform="translate(0.000000,64.000000) scale(0.100000,-0.100000)"
fill="#000000" stroke="none">
<path d="M226 584 c-70 -22 -149 -103 -170 -174 -33 -112 -11 -206 67 -284
169 -168 450 -68 474 169 17 161 -119 307 -281 304 -23 0 -63 -7 -90 -15z
m204 -154 c0 -16 -7 -20 -35 -20 -26 0 -33 -3 -29 -15 4 -9 19 -15 35 -15 22
0 29 -5 29 -20 0 -15 -7 -20 -26 -20 -16 0 -34 -11 -50 -29 -14 -16 -34 -31
-45 -33 -19 -3 -17 -7 20 -50 23 -25 41 -49 41 -52 0 -3 -11 -6 -24 -6 -17 0
-38 16 -70 54 -56 65 -59 86 -12 86 18 0 39 7 46 15 11 13 6 15 -34 15 -39 0
-46 3 -46 20 0 17 7 20 45 20 45 0 60 12 29 24 -9 3 -29 6 -45 6 -22 0 -29 5
-29 20 0 19 7 20 100 20 93 0 100 -1 100 -20z"/>
</g>
</svg>
