<svg xmlns="http://www.w3.org/2000/svg" xmlns:xlink="http://www.w3.org/1999/xlink" width="254.088" height="178.951" viewBox="0 0 254.088 178.951">
    <defs>
        <linearGradient id="linear-gradient" x1="0.088" y1="2.01" x2="1.087" y2="2.01" gradientUnits="objectBoundingBox">
            <stop offset="0" stop-color="#a6cad1"/>
            <stop offset="0.09" stop-color="#98baca"/>
            <stop offset="0.239" stop-color="#88a6c1"/>
            <stop offset="0.411" stop-color="#7d98bb"/>
            <stop offset="0.624" stop-color="#7690b8"/>
            <stop offset="1" stop-color="#758eb7"/>
        </linearGradient>
        <linearGradient id="linear-gradient-2" x1="0.556" y1="-0.166" x2="0.594" y2="0.932" gradientUnits="objectBoundingBox">
            <stop offset="0" stop-color="#758eb7"/>
            <stop offset="1" stop-color="#a6cad1"/>
        </linearGradient>
        <linearGradient id="linear-gradient-3" x1="0.716" y1="-15.008" x2="1.716" y2="-15.008" gradientUnits="objectBoundingBox">
            <stop offset="0" stop-color="#758eb7"/>
            <stop offset="0.268" stop-color="#7891b8"/>
            <stop offset="0.52" stop-color="#819dbd"/>
            <stop offset="0.763" stop-color="#90afc5"/>
            <stop offset="1" stop-color="#a6cad1"/>
        </linearGradient>
        <linearGradient id="linear-gradient-4" x1="0.244" y1="-15.001" x2="1.244" y2="-15.001" xlink:href="#linear-gradient-3"/>
        <linearGradient id="linear-gradient-5" x1="0.244" y1="-15.001" x2="1.244" y2="-15.001" xlink:href="#linear-gradient-3"/>
    </defs>
    <g id="Group_2718" data-name="Group 2718" transform="translate(-488.405 -113.454)">
        <g id="Group_2586" data-name="Group 2586" transform="translate(583.98 113.454)">
            <path id="Path_5490" data-name="Path 5490" d="M1596.773,474.3l-1.035-5.9a.569.569,0,0,1,.286-.6l1.3-.713a.569.569,0,0,1,.823.348l.6,2.168,2.07-2.126c1.264-1.3,1.967-1.412,3.295-.18l1.13,1.271c1.467,1.361,1.335,4.687-.192,5.98l-4.7,3.911Z" transform="translate(-1532.992 -415.276)" fill="#feac84"/>
            <path id="Path_5491" data-name="Path 5491" d="M1162.894,486.179l10.928-22.83a9.228,9.228,0,0,1,7.84-5.453l15.953-1.021,9.746.219a9.228,9.228,0,0,1,5.891,2.3l7.7,10.485,5.863-3.811,3.89,3.575-3.347,7.689a7.806,7.806,0,0,1-5,3.025h0a6.726,6.726,0,0,1-4.082-.625l-7.171-7.167c.442,15.993,1.251,39.468,2.318,45.142l-27.5.016a248.86,248.86,0,0,0-9-33.836l-3.2,4.306Z" transform="translate(-1162.894 -407.097)" fill="#4e3654"/>
            <path id="Path_5492" data-name="Path 5492" d="M1342.809,401.138l.324,9.251a3.232,3.232,0,0,0,1.492,2.611l.322.205a4.493,4.493,0,0,0,6.259-1.46l.344-.568a4.176,4.176,0,0,0,.568-1.613l.992-7.442Z" transform="translate(-1316.731 -359.439)" fill="#ea9378"/>
            <path id="Path_5493" data-name="Path 5493" d="M1352.5,406.722l-.006.054c-2.926,2.017-9.011.074-8.983,5.02a3.169,3.169,0,0,1-.375-1.4l-.325-9.25,6.64.634Z" transform="translate(-1316.732 -359.448)" fill="#e87979"/>
            <path id="Path_5494" data-name="Path 5494" d="M1392.284,405.871l-.612,4.592-3.049-4.94Z" transform="translate(-1355.904 -363.189)" fill="#ea9378"/>
            <path id="Path_5495" data-name="Path 5495" d="M1332.625,291.435s-.029,15.83-6.722,18.406-13.555-5.409-14.841-11.3,5.129-11.115,5.129-11.115Z" transform="translate(-1289.439 -262.209)" fill="#feac84"/>
            <path id="Path_5496" data-name="Path 5496" d="M1357.241,297.536c-5.35,7.131-12.907-1.859-15.667-3.8s1.376-3.906,1.376-3.906l7.379,3.193Z" transform="translate(-1314.864 -264.268)" fill="#e87979"/>
            <path id="Path_5497" data-name="Path 5497" d="M1313.222,262.647a29.009,29.009,0,0,0,8.714,5.086c5.849,2.34,10.986-4.97,9.228-10.831,0,0-3.44,2.475-5.63.555s-9.105-4.914-14.4-3.134-5.658,12.972-3.542,16.868l1.866-3.6a4.862,4.862,0,0,1-.72-3.419c.226-2.253,2.588-1.175,2.535.237Z" transform="translate(-1285.584 -233.439)" fill="#925454"/>
            <g id="Group_2585" data-name="Group 2585" transform="translate(50.661 0)">
                <path id="Path_5498" data-name="Path 5498" d="M1630.5,155.8l-1.55.432-5.6-14.453-19.528,19.467,5.437,19.487,26.786,6.545-2.689-15.265,1.55-.432-2.975-7.668Z" transform="translate(-1590.574 -137.672)" fill="#d9e0e9"/>
                <path id="Path_5499" data-name="Path 5499" d="M1808.227,235.669a9.026,9.026,0,0,1-5.445,10.838l-4.824-17.291A9.026,9.026,0,0,1,1808.227,235.669Z" transform="translate(-1756.569 -212.315)" fill="#64a5c7"/>
                <path id="Path_5500" data-name="Path 5500" d="M1830.771,264.318a9.026,9.026,0,0,1-5.445,10.838l-1-3.594a9.043,9.043,0,0,0,5.761-8.982A9.1,9.1,0,0,1,1830.771,264.318Z" transform="translate(-1779.113 -240.965)" fill="#226b8e" opacity="0.49"/>
                <path id="Path_5501" data-name="Path 5501" d="M1552.137,349.332l8.036,28.8a3.628,3.628,0,0,0,2.542,2.535,4.365,4.365,0,0,0,5.618-5.269l-7.917-28.376Z" transform="translate(-1546.379 -313.167)" fill="#d9e0e9"/>
                <path id="Path_5502" data-name="Path 5502" d="M1572.942,395.858a11.378,11.378,0,0,1-8.419,1.809l-1.957-7.015,8.465-1.642Z" transform="translate(-1555.296 -349.069)" fill="#2d87c1" opacity="0.49"/>
                <path id="Path_5503" data-name="Path 5503" d="M1519.81,277.715a10.187,10.187,0,0,0-4.939,16.458,9.478,9.478,0,0,0,9.938,3.151l6.288-1.755-5.437-19.487Z" transform="translate(-1512.411 -252.511)" fill="#64a5c7"/>
                <path id="Path_5504" data-name="Path 5504" d="M1557.529,338l-1.015.283,2.689,15.265L1532.415,347l-5.853,1.633a10.107,10.107,0,0,1-12.459-7.023,6.083,6.083,0,0,1-.15-.693c5.061,7.042,16.4-1.32,16.4-1.32s10.689,3.672,26.183-3.359C1556.532,336.235,1556.9,336.881,1557.529,338Z" transform="translate(-1513.73 -303.944)" fill="#226b8e" opacity="0.49"/>
                <path id="Path_5505" data-name="Path 5505" d="M1737.4,114.79a2.423,2.423,0,0,0-.463,2.212l13.006,46.613a2.423,2.423,0,0,0,1.541,1.653,3.19,3.19,0,0,0,4.356-3.743l-12.775-45.787A3.19,3.19,0,0,0,1737.4,114.79Z" transform="translate(-1704.313 -113.454)" fill="#596584"/>
                <g id="Group_2584" data-name="Group 2584" transform="translate(47.98 1.579)">
                    <g id="Group_2583" data-name="Group 2583" transform="translate(0 0)">
                        <g id="Group_2578" data-name="Group 2578">
                            <g id="Group_2577" data-name="Group 2577">
                                <rect id="Rectangle_632" data-name="Rectangle 632" width="16.572" height="1.817" rx="0.908" transform="translate(0 14.408) rotate(-60.394)" fill="#f2f2f2"/>
                            </g>
                        </g>
                        <g id="Group_2580" data-name="Group 2580" transform="translate(4.386 14.946)">
                            <g id="Group_2579" data-name="Group 2579" transform="translate(0 0)">
                                <rect id="Rectangle_633" data-name="Rectangle 633" width="16.572" height="1.817" rx="0.908" transform="matrix(0.964, -0.265, 0.265, 0.964, 0, 4.399)" fill="#f2f2f2"/>
                            </g>
                        </g>
                        <g id="Group_2582" data-name="Group 2582" transform="translate(3.653 26.098)">
                            <g id="Group_2581" data-name="Group 2581" transform="translate(0 0)">
                                <rect id="Rectangle_634" data-name="Rectangle 634" width="1.817" height="16.572" rx="0.908" transform="matrix(0.494, -0.869, 0.869, 0.494, 0, 1.579)" fill="#f2f2f2"/>
                            </g>
                        </g>
                    </g>
                </g>
            </g>
            <path id="Path_5506" data-name="Path 5506" d="M1629.756,473.324a4.316,4.316,0,0,0-1.986,5.362c1.222,3.776,4.431,2.719,4.431,2.719Z" transform="translate(-1560.151 -421.162)" fill="#d1d3d4" style="mix-blend-mode: multiply;isolation: isolate"/>
            <path id="Path_5507" data-name="Path 5507" d="M1629.756,466.667a4.316,4.316,0,0,0-1.986,5.362c1.222,3.776,4.431,2.719,4.431,2.719Z" transform="translate(-1560.151 -415.47)" fill="#feac84"/>
        </g>
        <g id="Group_2589" data-name="Group 2589" transform="translate(537.803 118.876)">
            <g id="Group_2587" data-name="Group 2587" transform="translate(0 7.165)">
                <path id="Path_5508" data-name="Path 5508" d="M901.127,291.227c-.387-.947-.791-1.879-1.2-2.771l.691-.318c.415.9.823,1.844,1.215,2.8Zm-1.739-3.91c-.446-.921-.911-1.823-1.383-2.68l.667-.367c.478.869.949,1.783,1.4,2.716Zm-2-3.775c-.513-.883-1.049-1.743-1.593-2.555l.632-.423c.552.826,1.1,1.7,1.618,2.6Zm-2.305-3.588c-.589-.828-1.2-1.63-1.83-2.385l.586-.485c.637.769,1.264,1.586,1.864,2.43Zm-2.645-3.336c-.669-.754-1.37-1.482-2.083-2.161l.525-.551c.729.694,1.444,1.437,2.127,2.207Zm-3-3.008c-.746-.661-1.531-1.3-2.332-1.888l.452-.612c.82.606,1.622,1.255,2.385,1.931ZM886.078,271c-.809-.554-1.667-1.089-2.549-1.592l.376-.661c.9.513,1.775,1.059,2.6,1.625Zm-3.649-2.2c-.857-.453-1.743-.885-2.71-1.32l.312-.694c.982.442,1.883.881,2.754,1.341Zm-3.864-1.825c-.838-.356-1.73-.715-2.809-1.131l.273-.71c1.087.419,1.987.781,2.833,1.141Zm-3.991-1.581-1-.375q-.934-.351-1.852-.7l.272-.71q.915.35,1.847.7l1,.375Zm-4.033-1.536c-1.067-.423-1.989-.813-2.818-1.192l.317-.692c.817.374,1.727.759,2.782,1.177Zm-3.975-1.744a29.56,29.56,0,0,1-2.683-1.5l.407-.642a28.814,28.814,0,0,0,2.615,1.464Zm-3.75-2.219a22.057,22.057,0,0,1-2.385-1.955l.523-.553a21.253,21.253,0,0,0,2.3,1.887Zm-3.292-2.868a21.723,21.723,0,0,1-1.936-2.4l.624-.435a20.98,20.98,0,0,0,1.868,2.313Zm-2.641-3.471c-.437-.706-.854-1.463-1.238-2.248q-.113-.231-.223-.462l.687-.327q.108.227.22.455c.373.763.777,1.5,1.2,2.182Zm-2-3.87c-.419-.942-.808-1.9-1.155-2.841l.714-.263c.341.927.724,1.868,1.136,2.795Zm-1.58-4.048c-.329-.981-.622-1.972-.869-2.944l.737-.188c.243.954.53,1.927.853,2.89Zm-1.164-4.19c-.223-1.016-.4-2.034-.532-3.028l.754-.1c.127.972.3,1.969.521,2.964Zm-.674-4.3c-.043-.468-.075-.934-.1-1.4a9.323,9.323,0,0,1-1.006.071l-.011-.761a8.586,8.586,0,0,0,.991-.074q-.006-.293-.006-.582,0-.169,0-.337l.761.009q0,.163,0,.328,0,.225,0,.453.553-.115,1.133-.294l.225.727a12.881,12.881,0,0,1-1.334.339c.021.478.054.962.1,1.448Zm-2.433-1.419a5.165,5.165,0,0,1-2.885-1.436l.54-.536a4.422,4.422,0,0,0,2.471,1.221Zm5.651-.873-.285-.705a17.6,17.6,0,0,0,2.652-1.352l.4.647A18.34,18.34,0,0,1,854.691,234.855Zm-9.36-1.646a7.922,7.922,0,0,1-.93-3.033l.755-.09a7.172,7.172,0,0,0,.834,2.743Zm6.821-.378-.759-.046a23,23,0,0,1,.387-3.067l.746.148A22.265,22.265,0,0,0,852.152,232.831Zm6.383-.1-.443-.619a16.512,16.512,0,0,0,2.259-1.932l.547.529A17.269,17.269,0,0,1,858.535,232.727Zm3.225-3-.6-.472a7.133,7.133,0,0,0,1.368-2.52l.735.2A7.877,7.877,0,0,1,861.759,229.724Zm-17.445-.85,0-.39c0-.909.037-1.811.111-2.682l.758.064c-.072.85-.108,1.73-.108,2.618l0,.376Zm8.492-.218-.734-.2a14.975,14.975,0,0,1,1.1-2.915l.677.346A14.218,14.218,0,0,0,852.807,228.656Zm9.844-3.053a2.622,2.622,0,0,0-.844-1.74c-.184-.177-.373-.341-.561-.489l.47-.6c.208.163.415.344.617.538a3.36,3.36,0,0,1,1.076,2.235Zm-8.183-.768-.631-.425a7.172,7.172,0,0,1,2.27-2.234l.385.656A6.425,6.425,0,0,0,854.468,224.835Zm-9.156-.211-.754-.1a27.194,27.194,0,0,1,.561-3.024l.739.182A26.456,26.456,0,0,0,845.312,224.624Zm14.934-1.892a3.824,3.824,0,0,0-2.689-.342l-.186-.738a4.583,4.583,0,0,1,3.215.4Zm-14.061-2.249-.729-.219a24.2,24.2,0,0,1,1.072-2.889l.695.31A23.45,23.45,0,0,0,846.186,220.483Zm1.576-3.92-.677-.348a23.387,23.387,0,0,1,1.589-2.644l.625.434A22.618,22.618,0,0,0,847.762,216.563ZM850.037,213l-.6-.467a24.734,24.734,0,0,1,2.045-2.31l.537.538A23.987,23.987,0,0,0,850.037,213Zm2.888-3.1-.51-.564a28.155,28.155,0,0,1,2.4-1.936l.445.617A27.381,27.381,0,0,0,852.925,209.9Zm3.365-2.593-.418-.635c.837-.551,1.728-1.079,2.65-1.569l.357.671C857.978,206.256,857.107,206.772,856.29,207.31Zm3.707-2.1-.333-.684c.9-.438,1.847-.854,2.817-1.235l.278.708C861.808,204.371,860.879,204.778,860,205.208Zm3.94-1.653-.257-.716c.946-.339,1.931-.655,2.927-.937l.208.732C865.835,202.911,864.867,203.221,863.937,203.555Zm4.094-1.25-.188-.737c.986-.251,1.995-.476,3-.666l.142.747C870,201.837,869,202.057,868.031,202.305Zm4.2-.875-.122-.751c1.357-.22,2.413-.332,3.061-.388l.065.758C874.6,201.1,873.561,201.214,872.228,201.43Z" transform="translate(-844.312 -200.292)" fill="#bebebe"/>
            </g>
            <g id="Group_2588" data-name="Group 2588" transform="translate(32.14)">
                <path id="Path_5509" data-name="Path 5509" d="M1076.316,173.619l3.762,9.514,21.716-7.487-20.991-3.8Z" transform="translate(-1074.828 -168.803)" fill="#c5d7ed"/>
                <path id="Path_5510" data-name="Path 5510" d="M1079.6,150.858l22.194,6.844-25.478-2.028Z" transform="translate(-1074.828 -150.858)" fill="#f2f2f2"/>
                <path id="Path_5511" data-name="Path 5511" d="M1093.018,198.074l-26.966,6.262.879-6.124Z" transform="translate(-1066.052 -191.23)" fill="#f2f2f2"/>
            </g>
        </g>
        <g id="Group_2592" data-name="Group 2592" transform="translate(488.405 194.254)">
            <g id="Group_2590" data-name="Group 2590" transform="translate(35.417 0)">
                <path id="Path_5512" data-name="Path 5512" d="M750.151,704.6l6.31,5.021-5.322-.423c9.339,39.691,35.609,64.255,38.841,36.515a47.256,47.256,0,0,0-1.6-17.933l-3.1,2.73,1.537-7.655c-10-27.817-38.487-51.965-38.487-51.965A118.846,118.846,0,0,0,750.151,704.6Z" transform="translate(-747.853 -670.895)" fill="#ed8b90"/>
                <path id="Path_5513" data-name="Path 5513" d="M825.405,860.034l-14.132-35.055c-2.383-5.831-4.636-11.714-7.179-17.489a70.192,70.192,0,0,0-9.551-16.265,69.989,69.989,0,0,1,9.186,16.423c2.413,5.808,4.545,11.741,6.8,17.621l13.392,35.344Z" transform="translate(-787.776 -773.783)" fill="#fff"/>
            </g>
            <g id="Group_2591" data-name="Group 2591" transform="translate(0 30.087)">
                <path id="Path_5514" data-name="Path 5514" d="M570.451,932.27c-1.6-12.128-1.836-31.117-7.164-30.967s-2.53,8.6-6.468,8.025-4.075-6.338-3.472-16.651-7.614-15.418-12.221-13.878,3.341,15.914-.55,18.995-4.136-14.72-13.626-17.885-13.051-.986-8.972,5.215,6.382,10.679.894,11.128-14.165-4.517-15.293,2.9,12.047,4.151,12.457,11.007-10.211,8.6-10.1,12.635,9.263,5.743,14.553,1.638,9.516-8.241,12.28-3.9-7.518,4.877-8.514,10.4,16.5,2.759,23.459-1.3,6.382.185,2.871,3.277c-6.064,5.34,2.377,5.183,8.079,1.983C564.462,931.64,571.407,939.522,570.451,932.27Z" transform="translate(-503.511 -878.467)" fill="#f7b97b"/>
                <path id="Path_5515" data-name="Path 5515" d="M633.718,991.288a3.512,3.512,0,0,0,.622-1.441c.026-.118.053-.234.081-.346.207-.811.385-1.626.529-2.426a20.106,20.106,0,0,0,.458-5.52.355.355,0,0,0-.706.071,19.532,19.532,0,0,1-.449,5.324c-.14.782-.316,1.582-.519,2.376-.03.117-.057.24-.085.366a3.152,3.152,0,0,1-.42,1.085,56.1,56.1,0,0,0-4.263-4.02c-.005-.006,0-.015-.009-.021s-.02,0-.028-.011a59.078,59.078,0,0,0-4.991-3.871,47.082,47.082,0,0,0-5.665-3.246,6.088,6.088,0,0,0,1.707-2.932,29.054,29.054,0,0,0,1.076-12.263.355.355,0,0,0-.7.091,28.354,28.354,0,0,1-1.048,11.962,4.994,4.994,0,0,1-1.717,2.792c-.165-.081-.356-.186-.517-.264a96.387,96.387,0,0,0-15.579-6.162,19.621,19.621,0,0,0-.077-5.85,19.906,19.906,0,0,0-.608-2.087l-1.079-3.25a.355.355,0,0,0-.675.224l1.078,3.25a14.1,14.1,0,0,1,.663,7.511,48.6,48.6,0,0,0-12.02-1.806.355.355,0,0,0-.014.709h.007a53.09,53.09,0,0,1,18.15,3.8,4.014,4.014,0,0,1-.541,1.192,24.558,24.558,0,0,1-4.779,6.235,16.192,16.192,0,0,1-2.263,1.569,24.627,24.627,0,0,1-7.394,2.863.355.355,0,0,0,.063.7.334.334,0,0,0,.083-.007,25.342,25.342,0,0,0,7.607-2.946,17.005,17.005,0,0,0,2.362-1.638,25.072,25.072,0,0,0,4.925-6.409,5.016,5.016,0,0,0,.591-1.3c3.222,1.245,6.306,2.649,9.189,4.045a51.794,51.794,0,0,1,6.775,3.806,58.508,58.508,0,0,1,4.648,3.581A38.9,38.9,0,0,1,621.213,993a16.01,16.01,0,0,1-8.745,2.667,1.04,1.04,0,0,1-.19-.007.355.355,0,0,0-.026.709l.193.007a16.484,16.484,0,0,0,9.145-2.775,39.779,39.779,0,0,0,7.133-6.114,47.651,47.651,0,0,1,14.353,20.576.352.352,0,0,0,.326.242.339.339,0,0,0,.123-.019.353.353,0,0,0,.224-.448A46.148,46.148,0,0,0,633.718,991.288Z" transform="translate(-576.108 -949.382)" fill="#fdfdfd"/>
            </g>
        </g>
        <g id="Group_2595" data-name="Group 2595" transform="translate(672.401 206.523)">
            <g id="Group_2593" data-name="Group 2593" transform="translate(13.392 18.038)">
                <path id="Path_5516" data-name="Path 5516" d="M1866.685,932.4c.312-10.911-1.21-27.788,3.532-28.142s3.031,7.4,6.474,6.533,3.039-6,1.562-15.1,5.352-14.381,9.581-13.434-1.513,14.431,2.222,16.81,2.328-13.444,10.463-17.119,11.494-2.067,8.44,3.81-4.691,10.062.222,9.959,12.161-5.3,13.839,1.181-10.314,4.784-10.052,10.907,9.849,6.7,10.118,10.294-7.7,5.943-12.768,2.782-9.2-6.447-11.257-2.343,7.118,3.643,8.506,8.454-14.392,3.955-20.942.989-5.648.747-2.249,3.171c5.87,4.186-1.637,4.818-6.99,2.5C1871.943,931.291,1866.5,938.921,1866.685,932.4Z" transform="translate(-1866.481 -879.986)" fill="url(#linear-gradient)"/>
                <path id="Path_5517" data-name="Path 5517" d="M1872.71,987.86a3.136,3.136,0,0,1-.684-1.222c-.033-.1-.068-.2-.1-.3-.257-.7-.49-1.408-.691-2.1a17.936,17.936,0,0,1-.91-4.859.317.317,0,0,1,.634,0,17.418,17.418,0,0,0,.885,4.685c.2.681.425,1.376.678,2.062.037.1.072.207.109.317a2.814,2.814,0,0,0,.471.925,50.058,50.058,0,0,1,3.417-3.957c0-.006,0-.014.006-.019s.017-.006.024-.012a52.7,52.7,0,0,1,4.077-3.892,42,42,0,0,1,4.732-3.4,5.433,5.433,0,0,1-1.783-2.447,25.926,25.926,0,0,1-2.074-10.787.317.317,0,1,1,.633.016,25.3,25.3,0,0,0,2.022,10.522,4.457,4.457,0,0,0,1.779,2.322c.139-.087.3-.2.435-.282a86.015,86.015,0,0,1,13.266-6.891,17.517,17.517,0,0,1-.466-5.2,17.755,17.755,0,0,1,.349-1.908l.661-2.983a.317.317,0,0,1,.619.137l-.661,2.983a16.879,16.879,0,0,0-.338,1.839,16.6,16.6,0,0,0,.436,4.888,43.367,43.367,0,0,1,10.5-2.7.317.317,0,0,1,.077.628h-.006a47.376,47.376,0,0,0-15.764,5.026,3.587,3.587,0,0,0,.589,1.008,21.914,21.914,0,0,0,4.811,5.1,14.423,14.423,0,0,0,2.152,1.186,21.971,21.971,0,0,0,6.824,1.867.317.317,0,0,1,.008.629.311.311,0,0,1-.075,0,22.619,22.619,0,0,1-7.021-1.921,15.18,15.18,0,0,1-2.246-1.238,22.365,22.365,0,0,1-4.957-5.239,4.485,4.485,0,0,1-.643-1.1c-2.746,1.4-5.356,2.927-7.787,4.429a46.218,46.218,0,0,0-5.667,4,52.188,52.188,0,0,0-3.8,3.6,34.691,34.691,0,0,0,6.732,4.669,14.286,14.286,0,0,0,8.006,1.57.961.961,0,0,0,.168-.023.316.316,0,0,1,.088.627l-.17.024a14.711,14.711,0,0,1-8.371-1.629,35.5,35.5,0,0,1-6.89-4.776,42.523,42.523,0,0,0-10.862,19.575.315.315,0,0,1-.267.245.308.308,0,0,1-.11-.005.315.315,0,0,1-.24-.378A41.18,41.18,0,0,1,1872.71,987.86Z" transform="translate(-1865.31 -946.861)" fill="#fdfdfd"/>
            </g>
            <g id="Group_2594" data-name="Group 2594">
                <path id="Path_5518" data-name="Path 5518" d="M1785.353,826.88c7.907-6.967,28.042-13.453,26.772-20.3s-7.761-8.978-14.92-5.391c0,0,1.814-8.65,9.112-11.511s13.825-6.29,13.274-9.2-7.922-3.941-11.54-1.658c0,0-2.155-9.807,5.07-12.405,8.789-3.161,10.8-8.054,7.955-9.579s-16.225-3.69-18.607,6.625-3.2,11.359-3.2,11.359-3.5.982-4.353-5.97-7.119-8.73-9.554.475,5.236,12.3,5.958,18.025-2.8,18.478-6.638,9.771-14.839-8.456-10.93,4.445S1785.353,826.88,1785.353,826.88Z" transform="translate(-1772.918 -755.543)" fill="#ed8b90"/>
                <path id="Path_5519" data-name="Path 5519" d="M1846.962,814.669a.453.453,0,0,0-.534-.354l-4.453.9a8.577,8.577,0,0,0-3.526,1.288,9.451,9.451,0,0,0-1.329,1.3,6.488,6.488,0,0,1-1.428,1.3c5.031-12.149,10.632-22.813,14.469-26.119a.454.454,0,0,0-.593-.687c-3.6,3.105-8.743,12.6-13.532,23.75l-.042-.157a20.176,20.176,0,0,0-3.987-7.564l-.218-.255a6.063,6.063,0,0,1-1.1-1.591,6.142,6.142,0,0,1-.238-2.5.453.453,0,1,0-.905-.037,5.251,5.251,0,0,0,1.556,4.719l.213.25a19.283,19.283,0,0,1,3.806,7.221l.109.4c.071.269.142.537.224.8,0,.012.015.019.02.031a215.782,215.782,0,0,0-10.386,30.38,9.128,9.128,0,0,0-2.258-4.149,15.149,15.149,0,0,1-1.591-2.266,14.193,14.193,0,0,1-1.135-3.646l-1.449-6.714a.453.453,0,1,0-.886.191l1.449,6.714a14.864,14.864,0,0,0,1.22,3.878,15.75,15.75,0,0,0,1.684,2.409,8.219,8.219,0,0,1,2.1,3.861,1.723,1.723,0,0,0,.521,1.182,60.9,60.9,0,0,0-1.5,8.971.453.453,0,0,0,.354.475.54.54,0,0,0,.065.01.453.453,0,0,0,.485-.42,70.36,70.36,0,0,1,2.2-11.853.446.446,0,0,0,.272-.289,5.821,5.821,0,0,1,3.635-3.465,22.342,22.342,0,0,1,3.218-.93c.719-.17,1.438-.339,2.145-.552a8.145,8.145,0,0,0,4.82-3.236.454.454,0,0,0-.772-.475,7.281,7.281,0,0,1-4.31,2.843c-.688.208-1.389.373-2.091.538a22.938,22.938,0,0,0-3.348.972,8.2,8.2,0,0,0-2.824,1.841,224.443,224.443,0,0,1,8.133-23.4,4.957,4.957,0,0,0,2.57-1.833,8.559,8.559,0,0,1,1.2-1.175,7.872,7.872,0,0,1,3.164-1.126l4.453-.9A.453.453,0,0,0,1846.962,814.669Z" transform="translate(-1811.258 -786.874)" fill="#fff"/>
            </g>
        </g>
        <g id="Group_2597" data-name="Group 2597" transform="translate(546.692 202.328)">
            <g id="Group_2596" data-name="Group 2596" transform="translate(0)">
                <path id="Rectangle_635" data-name="Rectangle 635" d="M24.548,0h95.678A21.573,21.573,0,0,1,141.8,21.573V58.88a22.46,22.46,0,0,1-22.46,22.46H24.548A24.548,24.548,0,0,1,0,56.792V24.548A24.548,24.548,0,0,1,24.548,0Z" fill="#fff"/>
                <ellipse id="Ellipse_1123" data-name="Ellipse 1123" cx="2.454" cy="3.469" rx="2.454" ry="3.469" transform="translate(133.577 37.832)" fill="#8190c7"/>
            </g>
            <rect id="Rectangle_636" data-name="Rectangle 636" width="124.965" height="72.245" transform="translate(6.161 4.583)" fill="#6492c7"/>
            <path id="Path_6036" data-name="Path 6036" d="M0,0H122.356V69.636H0Z" transform="translate(7.466 5.887)" fill="#64a5c7"/>
        </g>
        <g id="Group_2653" data-name="Group 2653" transform="translate(531.642 256.565)">
            <g id="Group_2622" data-name="Group 2622" transform="translate(0.87 15.583)">
                <g id="Group_2603" data-name="Group 2603" transform="translate(5.865 11.699)">
                    <g id="Group_2602" data-name="Group 2602">
                        <g id="Group_2598" data-name="Group 2598" transform="translate(0 2.035)">
                            <ellipse id="Ellipse_1124" data-name="Ellipse 1124" cx="11.915" cy="2.035" rx="11.915" ry="2.035" transform="translate(0 1.538)" fill="#e09d27"/>
                            <rect id="Rectangle_638" data-name="Rectangle 638" width="23.831" height="3.573" fill="#e09d27"/>
                        </g>
                        <g id="Group_2601" data-name="Group 2601">
                            <ellipse id="Ellipse_1125" data-name="Ellipse 1125" cx="11.915" cy="2.035" rx="11.915" ry="2.035" fill="#fcb72b"/>
                            <path id="Path_5520" data-name="Path 5520" d="M868.03,1303.749c0,.854,4.053,1.546,9.052,1.546s9.052-.692,9.052-1.546a.239.239,0,0,0-.016-.089c-.271.813-4.212,1.457-9.036,1.457s-8.765-.644-9.036-1.457A.241.241,0,0,0,868.03,1303.749Z" transform="translate(-865.167 -1301.536)" fill="#ffc285"/>
                            <ellipse id="Ellipse_1126" data-name="Ellipse 1126" cx="9.036" cy="1.457" rx="9.036" ry="1.457" transform="translate(2.879 0.667)" fill="#dd9624"/>
                            <path id="Path_5521" data-name="Path 5521" d="M868.03,1293.925a.232.232,0,0,0,.027.111c.329-.8,4.243-1.436,9.025-1.436s8.7.633,9.025,1.436a.232.232,0,0,0,.027-.111c0-.854-4.053-1.546-9.052-1.546S868.03,1293.071,868.03,1293.925Z" transform="translate(-865.167 -1291.89)" fill="#a36f40"/>
                            <g id="Group_2600" data-name="Group 2600" transform="translate(9.876 1.27)">
                                <g id="Group_2599" data-name="Group 2599">
                                    <path id="Path_5522" data-name="Path 5522" d="M918.817,1299.3v-.188a16.112,16.112,0,0,0,1.669-.082l-.262-.125a14.622,14.622,0,0,1-1.571.08c-.775,0-1.3-.076-1.3-.183s.425-.166,1.233-.222c1.113-.075,1.8-.16,1.8-.322s-.644-.272-1.647-.3v-.188h-.676v.181c-.655,0-1.1.033-1.419.065l.273.123a13.383,13.383,0,0,1,1.374-.063c.84,0,1.157.086,1.157.16,0,.1-.4.145-1.353.212-1.124.078-1.691.175-1.691.341,0,.147.6.285,1.724.317v.194Z" transform="translate(-916.406 -1297.769)" fill="#fcd183"/>
                                </g>
                            </g>
                        </g>
                    </g>
                </g>
                <g id="Group_2609" data-name="Group 2609" transform="translate(0 7.789)">
                    <g id="Group_2608" data-name="Group 2608">
                        <g id="Group_2604" data-name="Group 2604" transform="translate(0 2.035)">
                            <ellipse id="Ellipse_1127" data-name="Ellipse 1127" cx="11.915" cy="2.035" rx="11.915" ry="2.035" transform="translate(0 1.538)" fill="#e09d27"/>
                            <rect id="Rectangle_639" data-name="Rectangle 639" width="23.831" height="3.573" fill="#e09d27"/>
                        </g>
                        <g id="Group_2607" data-name="Group 2607">
                            <ellipse id="Ellipse_1128" data-name="Ellipse 1128" cx="11.915" cy="2.035" rx="11.915" ry="2.035" fill="#fcb72b"/>
                            <path id="Path_5523" data-name="Path 5523" d="M827.567,1276.774c0,.854,4.053,1.546,9.052,1.546s9.052-.692,9.052-1.546a.244.244,0,0,0-.016-.089c-.271.813-4.212,1.457-9.036,1.457s-8.765-.644-9.036-1.457A.244.244,0,0,0,827.567,1276.774Z" transform="translate(-824.703 -1274.561)" fill="#ffc285"/>
                            <ellipse id="Ellipse_1129" data-name="Ellipse 1129" cx="9.036" cy="1.457" rx="9.036" ry="1.457" transform="translate(2.879 0.667)" fill="#dd9624"/>
                            <path id="Path_5524" data-name="Path 5524" d="M827.567,1266.95a.231.231,0,0,0,.027.111c.329-.8,4.243-1.435,9.025-1.435s8.7.633,9.025,1.435a.23.23,0,0,0,.027-.111c0-.854-4.053-1.546-9.052-1.546S827.567,1266.1,827.567,1266.95Z" transform="translate(-824.703 -1264.915)" fill="#a36f40"/>
                            <g id="Group_2606" data-name="Group 2606" transform="translate(9.875 1.27)">
                                <g id="Group_2605" data-name="Group 2605">
                                    <path id="Path_5525" data-name="Path 5525" d="M878.353,1272.324v-.188a16.117,16.117,0,0,0,1.669-.082l-.262-.125a14.658,14.658,0,0,1-1.571.08c-.775,0-1.3-.076-1.3-.182s.425-.166,1.233-.222c1.113-.075,1.8-.16,1.8-.322s-.644-.272-1.647-.3v-.188H877.6v.181c-.655,0-1.1.033-1.419.065l.273.123a13.45,13.45,0,0,1,1.374-.063c.84,0,1.157.086,1.157.16,0,.1-.4.145-1.353.212-1.124.078-1.691.175-1.691.341,0,.147.6.285,1.724.317v.194Z" transform="translate(-875.942 -1270.794)" fill="#fcd183"/>
                                </g>
                            </g>
                        </g>
                    </g>
                </g>
                <g id="Group_2615" data-name="Group 2615" transform="translate(6.568 3.91)">
                    <g id="Group_2614" data-name="Group 2614">
                        <g id="Group_2610" data-name="Group 2610" transform="translate(0 2.035)">
                            <ellipse id="Ellipse_1130" data-name="Ellipse 1130" cx="11.915" cy="2.035" rx="11.915" ry="2.035" transform="translate(0 1.538)" fill="#e09d27"/>
                            <rect id="Rectangle_640" data-name="Rectangle 640" width="23.831" height="3.573" fill="#e09d27"/>
                        </g>
                        <g id="Group_2613" data-name="Group 2613">
                            <ellipse id="Ellipse_1131" data-name="Ellipse 1131" cx="11.915" cy="2.035" rx="11.915" ry="2.035" fill="#fcb72b"/>
                            <path id="Path_5526" data-name="Path 5526" d="M872.883,1250.012c0,.854,4.053,1.546,9.052,1.546s9.052-.692,9.052-1.546a.241.241,0,0,0-.016-.089c-.271.813-4.212,1.457-9.036,1.457s-8.765-.644-9.036-1.457A.239.239,0,0,0,872.883,1250.012Z" transform="translate(-870.019 -1247.799)" fill="#ffc285"/>
                            <ellipse id="Ellipse_1132" data-name="Ellipse 1132" cx="9.036" cy="1.457" rx="9.036" ry="1.457" transform="translate(2.879 0.667)" fill="#c98a1b"/>
                            <path id="Path_5527" data-name="Path 5527" d="M872.883,1240.188a.234.234,0,0,0,.027.111c.33-.8,4.243-1.435,9.025-1.435s8.7.633,9.025,1.435a.233.233,0,0,0,.027-.111c0-.854-4.053-1.546-9.052-1.546S872.883,1239.334,872.883,1240.188Z" transform="translate(-870.019 -1238.153)" fill="#a36f40"/>
                            <g id="Group_2612" data-name="Group 2612" transform="translate(9.875 1.27)">
                                <g id="Group_2611" data-name="Group 2611">
                                    <path id="Path_5528" data-name="Path 5528" d="M923.67,1245.562v-.188a16.151,16.151,0,0,0,1.669-.082l-.261-.125a14.657,14.657,0,0,1-1.571.08c-.775,0-1.3-.076-1.3-.183s.426-.166,1.233-.222c1.112-.074,1.8-.16,1.8-.322s-.644-.272-1.647-.3v-.188h-.676v.181c-.655,0-1.1.034-1.419.065l.273.123a13.382,13.382,0,0,1,1.374-.063c.84,0,1.156.086,1.156.16,0,.1-.4.145-1.353.212-1.124.078-1.691.175-1.691.341,0,.147.6.285,1.724.317v.194Z" transform="translate(-921.259 -1244.032)" fill="#fcd183"/>
                                </g>
                            </g>
                        </g>
                    </g>
                </g>
                <g id="Group_2621" data-name="Group 2621" transform="translate(7.736)">
                    <g id="Group_2620" data-name="Group 2620">
                        <g id="Group_2616" data-name="Group 2616" transform="translate(0 2.035)">
                            <ellipse id="Ellipse_1133" data-name="Ellipse 1133" cx="11.915" cy="2.035" rx="11.915" ry="2.035" transform="translate(0 1.538)" fill="#e09d27"/>
                            <rect id="Rectangle_641" data-name="Rectangle 641" width="23.831" height="3.573" fill="#e09d27"/>
                        </g>
                        <g id="Group_2619" data-name="Group 2619">
                            <ellipse id="Ellipse_1134" data-name="Ellipse 1134" cx="11.915" cy="2.035" rx="11.915" ry="2.035" fill="#fcb72b"/>
                            <path id="Path_5529" data-name="Path 5529" d="M880.941,1223.037c0,.854,4.053,1.546,9.052,1.546s9.052-.692,9.052-1.546a.244.244,0,0,0-.016-.089c-.271.813-4.212,1.457-9.036,1.457s-8.765-.644-9.036-1.457A.242.242,0,0,0,880.941,1223.037Z" transform="translate(-878.077 -1220.824)" fill="#ffc285"/>
                            <ellipse id="Ellipse_1135" data-name="Ellipse 1135" cx="9.036" cy="1.457" rx="9.036" ry="1.457" transform="translate(2.879 0.667)" fill="#c98a1b"/>
                            <path id="Path_5530" data-name="Path 5530" d="M880.941,1213.213a.233.233,0,0,0,.027.111c.329-.8,4.243-1.435,9.025-1.435s8.7.634,9.025,1.435a.231.231,0,0,0,.027-.111c0-.854-4.053-1.546-9.052-1.546S880.941,1212.359,880.941,1213.213Z" transform="translate(-878.077 -1211.178)" fill="#a36f40"/>
                            <g id="Group_2618" data-name="Group 2618" transform="translate(9.876 1.27)">
                                <g id="Group_2617" data-name="Group 2617">
                                    <path id="Path_5531" data-name="Path 5531" d="M931.728,1218.588v-.188a16.185,16.185,0,0,0,1.669-.082l-.262-.125a14.652,14.652,0,0,1-1.571.08c-.775,0-1.3-.076-1.3-.183s.426-.166,1.233-.222c1.113-.075,1.8-.16,1.8-.322s-.644-.272-1.647-.3v-.188h-.676v.181c-.655,0-1.1.033-1.419.065l.273.123a13.482,13.482,0,0,1,1.374-.063c.84,0,1.156.086,1.156.16,0,.1-.4.145-1.353.212-1.124.078-1.691.175-1.691.341,0,.147.6.285,1.724.317v.194Z" transform="translate(-929.317 -1217.058)" fill="#fcd183"/>
                                </g>
                            </g>
                        </g>
                    </g>
                </g>
            </g>
            <path id="Path_5532" data-name="Path 5532" d="M921.259,1228.659l3.208,16.39s6.271-.309,7.884-.866a10.594,10.594,0,0,0,2.16-.926v-3.816s0-1.245-5.865-1.713a6.951,6.951,0,0,1,.026-.7l2.465-.173Z" transform="translate(-903.945 -1210.125)" fill="#d1d3d4" style="mix-blend-mode: multiply;isolation: isolate"/>
            <g id="Group_2624" data-name="Group 2624" transform="translate(16.614 16.512)">
                <path id="Path_5533" data-name="Path 5533" d="M927.358,1226.549l14.961-2.036-14.194-9.809-11.695,1.953Z" transform="translate(-916.43 -1214.703)" fill="#456e89"/>
                <path id="Path_5534" data-name="Path 5534" d="M930.48,1223.406l8.415,7.455a3.784,3.784,0,0,1,2.344.382l9.309-1.281c-.509-.325-.271-.68.523-.795l-10.474-7.4a2.679,2.679,0,0,1-1.9-.393l-7.508,1.236C931.512,1222.936,931.2,1223.294,930.48,1223.406Z" transform="translate(-928.443 -1220.404)" fill="#699bb7"/>
            </g>
            <g id="Group_2630" data-name="Group 2630" transform="translate(8.606 11.699)">
                <g id="Group_2629" data-name="Group 2629">
                    <g id="Group_2625" data-name="Group 2625" transform="translate(0 2.035)">
                        <ellipse id="Ellipse_1136" data-name="Ellipse 1136" cx="11.915" cy="2.035" rx="11.915" ry="2.035" transform="translate(0 1.538)" fill="#e09d27"/>
                        <rect id="Rectangle_642" data-name="Rectangle 642" width="23.831" height="3.573" fill="#e09d27"/>
                    </g>
                    <g id="Group_2628" data-name="Group 2628">
                        <ellipse id="Ellipse_1137" data-name="Ellipse 1137" cx="11.915" cy="2.035" rx="11.915" ry="2.035" fill="#fcb72b"/>
                        <path id="Path_5536" data-name="Path 5536" d="M880.941,1196.243c0,.854,4.053,1.546,9.052,1.546s9.052-.692,9.052-1.546a.245.245,0,0,0-.016-.089c-.271.813-4.212,1.457-9.036,1.457s-8.765-.644-9.036-1.457A.242.242,0,0,0,880.941,1196.243Z" transform="translate(-878.077 -1194.03)" fill="#ffc285"/>
                        <ellipse id="Ellipse_1138" data-name="Ellipse 1138" cx="9.036" cy="1.457" rx="9.036" ry="1.457" transform="translate(2.879 0.667)" fill="#c98a1b"/>
                        <path id="Path_5537" data-name="Path 5537" d="M880.941,1186.418a.233.233,0,0,0,.027.111c.329-.8,4.243-1.436,9.025-1.436s8.7.633,9.025,1.436a.232.232,0,0,0,.027-.111c0-.854-4.053-1.546-9.052-1.546S880.941,1185.564,880.941,1186.418Z" transform="translate(-878.077 -1184.383)" fill="#a36f40"/>
                        <g id="Group_2627" data-name="Group 2627" transform="translate(9.876 1.27)">
                            <g id="Group_2626" data-name="Group 2626">
                                <path id="Path_5538" data-name="Path 5538" d="M931.728,1191.793v-.188a16.111,16.111,0,0,0,1.669-.082l-.262-.125a14.693,14.693,0,0,1-1.571.08c-.775,0-1.3-.076-1.3-.182s.426-.166,1.233-.222c1.113-.074,1.8-.16,1.8-.322s-.644-.272-1.647-.3v-.188h-.676v.181c-.655,0-1.1.034-1.419.065l.273.123a13.345,13.345,0,0,1,1.374-.063c.84,0,1.156.086,1.156.16,0,.1-.4.145-1.353.212-1.124.078-1.691.175-1.691.341,0,.147.6.285,1.724.317v.194Z" transform="translate(-929.317 -1190.263)" fill="#fcd183"/>
                            </g>
                        </g>
                    </g>
                </g>
            </g>
            <g id="Group_2636" data-name="Group 2636" transform="translate(7.438 7.789)">
                <g id="Group_2635" data-name="Group 2635">
                    <g id="Group_2631" data-name="Group 2631" transform="translate(0 2.035)">
                        <ellipse id="Ellipse_1139" data-name="Ellipse 1139" cx="11.915" cy="2.035" rx="11.915" ry="2.035" transform="translate(0 1.538)" fill="#e09d27"/>
                        <rect id="Rectangle_643" data-name="Rectangle 643" width="23.831" height="3.573" fill="#e09d27"/>
                    </g>
                    <g id="Group_2634" data-name="Group 2634">
                        <ellipse id="Ellipse_1140" data-name="Ellipse 1140" cx="11.915" cy="2.035" rx="11.915" ry="2.035" fill="#fcb72b"/>
                        <path id="Path_5539" data-name="Path 5539" d="M872.883,1169.268c0,.854,4.053,1.546,9.052,1.546s9.052-.692,9.052-1.546a.241.241,0,0,0-.016-.089c-.271.813-4.212,1.457-9.036,1.457s-8.765-.644-9.036-1.457A.239.239,0,0,0,872.883,1169.268Z" transform="translate(-870.019 -1167.055)" fill="#ffc285"/>
                        <ellipse id="Ellipse_1141" data-name="Ellipse 1141" cx="9.036" cy="1.457" rx="9.036" ry="1.457" transform="translate(2.879 0.667)" fill="#c98a1b"/>
                        <path id="Path_5540" data-name="Path 5540" d="M872.883,1159.443a.233.233,0,0,0,.027.111c.33-.8,4.243-1.435,9.025-1.435s8.7.633,9.025,1.435a.232.232,0,0,0,.027-.111c0-.854-4.053-1.546-9.052-1.546S872.883,1158.589,872.883,1159.443Z" transform="translate(-870.019 -1157.408)" fill="#a36f40"/>
                        <g id="Group_2633" data-name="Group 2633" transform="translate(9.875 1.27)">
                            <g id="Group_2632" data-name="Group 2632">
                                <path id="Path_5541" data-name="Path 5541" d="M923.67,1164.818v-.188a16.116,16.116,0,0,0,1.669-.082l-.261-.125a14.657,14.657,0,0,1-1.571.08c-.775,0-1.3-.076-1.3-.182s.426-.166,1.233-.222c1.112-.075,1.8-.16,1.8-.322s-.644-.272-1.647-.3v-.188h-.676v.181c-.655,0-1.1.034-1.419.065l.273.123a13.407,13.407,0,0,1,1.374-.063c.84,0,1.156.086,1.156.16,0,.1-.4.145-1.353.212-1.124.078-1.691.175-1.691.341,0,.147.6.285,1.724.317v.194Z" transform="translate(-921.259 -1163.288)" fill="#fcd183"/>
                            </g>
                        </g>
                    </g>
                </g>
            </g>
            <path id="Path_5542" data-name="Path 5542" d="M866.636,1176.981l-5.65,11.916s-4.867,1.292-6.668.542-1.407-1.068-1.407-1.068v-.907s-.111-.324.871-.765c.233-.09.265-.154.265-.154l.032-3.756Z" transform="translate(-845.473 -1165.937)" fill="#d1d3d4" style="mix-blend-mode: multiply;isolation: isolate"/>
            <g id="Group_2638" data-name="Group 2638" transform="translate(0 8.014)">
                <path id="Path_5543" data-name="Path 5543" d="M815.085,1166.59l-13.274-1.807,12.594-8.7,10.376,1.733Z" transform="translate(-801.811 -1156.08)" fill="#456e89"/>
                <path id="Path_5544" data-name="Path 5544" d="M840.042,1163.8l-7.466,6.615a3.358,3.358,0,0,0-2.08.339l-8.26-1.137c.452-.288.241-.6-.464-.7l9.294-6.568a2.376,2.376,0,0,0,1.686-.349l6.662,1.1C839.126,1163.385,839.4,1163.7,840.042,1163.8Z" transform="translate(-818.879 -1161.138)" fill="#699bb7"/>
            </g>
            <g id="Group_2644" data-name="Group 2644" transform="translate(8.606 3.91)">
                <g id="Group_2643" data-name="Group 2643">
                    <g id="Group_2639" data-name="Group 2639" transform="translate(0 2.035)">
                        <ellipse id="Ellipse_1142" data-name="Ellipse 1142" cx="11.915" cy="2.035" rx="11.915" ry="2.035" transform="translate(0 1.538)" fill="#e09d27"/>
                        <rect id="Rectangle_644" data-name="Rectangle 644" width="23.831" height="3.573" fill="#e09d27"/>
                    </g>
                    <g id="Group_2642" data-name="Group 2642">
                        <ellipse id="Ellipse_1143" data-name="Ellipse 1143" cx="11.915" cy="2.035" rx="11.915" ry="2.035" fill="#fcb72b"/>
                        <path id="Path_5546" data-name="Path 5546" d="M880.941,1142.506c0,.854,4.053,1.546,9.052,1.546s9.052-.692,9.052-1.546a.245.245,0,0,0-.016-.089c-.271.813-4.212,1.457-9.036,1.457s-8.765-.644-9.036-1.457A.242.242,0,0,0,880.941,1142.506Z" transform="translate(-878.077 -1140.293)" fill="#ffc285"/>
                        <ellipse id="Ellipse_1144" data-name="Ellipse 1144" cx="9.036" cy="1.457" rx="9.036" ry="1.457" transform="translate(2.879 0.667)" fill="#c98a1b"/>
                        <path id="Path_5547" data-name="Path 5547" d="M880.941,1132.682a.233.233,0,0,0,.027.111c.329-.8,4.243-1.436,9.025-1.436s8.7.633,9.025,1.436a.231.231,0,0,0,.027-.111c0-.854-4.053-1.546-9.052-1.546S880.941,1131.828,880.941,1132.682Z" transform="translate(-878.077 -1130.647)" fill="#a36f40"/>
                        <g id="Group_2641" data-name="Group 2641" transform="translate(9.876 1.27)">
                            <g id="Group_2640" data-name="Group 2640">
                                <path id="Path_5548" data-name="Path 5548" d="M931.728,1138.056v-.188a16.082,16.082,0,0,0,1.669-.082l-.262-.125a14.588,14.588,0,0,1-1.571.08c-.775,0-1.3-.076-1.3-.183s.426-.166,1.233-.222c1.113-.074,1.8-.16,1.8-.322s-.644-.272-1.647-.3v-.188h-.676v.181c-.655,0-1.1.034-1.419.065l.273.123a13.432,13.432,0,0,1,1.374-.063c.84,0,1.156.086,1.156.16,0,.1-.4.145-1.353.213-1.124.078-1.691.175-1.691.341,0,.147.6.285,1.724.317v.194Z" transform="translate(-929.317 -1136.526)" fill="#fcd183"/>
                            </g>
                        </g>
                    </g>
                </g>
            </g>
            <path id="Path_5549" data-name="Path 5549" d="M961.019,1154.128l3.579,11.2,9.952,3.314-.7-9.23Z" transform="translate(-937.943 -1146.397)" fill="#d1d3d4" style="mix-blend-mode: multiply;isolation: isolate"/>
            <g id="Group_2646" data-name="Group 2646" transform="translate(19.493 2.534)">
                <path id="Path_5550" data-name="Path 5550" d="M947.221,1130.115l14.961-2.036-14.194-9.809-11.695,1.954Z" transform="translate(-936.293 -1118.269)" fill="#456e89"/>
                <path id="Path_5551" data-name="Path 5551" d="M950.343,1126.972l8.414,7.455a3.785,3.785,0,0,1,2.344.382l9.309-1.281c-.509-.325-.271-.681.523-.795l-10.474-7.4a2.679,2.679,0,0,1-1.9-.393l-7.508,1.236C951.375,1126.5,951.062,1126.86,950.343,1126.972Z" transform="translate(-948.307 -1123.97)" fill="#699bb7"/>
            </g>
            <g id="Group_2652" data-name="Group 2652" transform="translate(12.075 0)">
                <g id="Group_2651" data-name="Group 2651">
                    <g id="Group_2647" data-name="Group 2647" transform="translate(0 2.035)">
                        <ellipse id="Ellipse_1145" data-name="Ellipse 1145" cx="11.915" cy="2.035" rx="11.915" ry="2.035" transform="translate(0 1.538)" fill="#e09d27"/>
                        <rect id="Rectangle_645" data-name="Rectangle 645" width="23.831" height="3.573" fill="#e09d27"/>
                    </g>
                    <g id="Group_2650" data-name="Group 2650">
                        <ellipse id="Ellipse_1146" data-name="Ellipse 1146" cx="11.915" cy="2.035" rx="11.915" ry="2.035" fill="#fcb72b"/>
                        <path id="Path_5553" data-name="Path 5553" d="M904.873,1115.531c0,.854,4.053,1.546,9.052,1.546s9.052-.692,9.052-1.546a.239.239,0,0,0-.016-.089c-.271.813-4.212,1.457-9.036,1.457s-8.765-.644-9.036-1.457A.244.244,0,0,0,904.873,1115.531Z" transform="translate(-902.009 -1113.318)" fill="#ffc285"/>
                        <ellipse id="Ellipse_1147" data-name="Ellipse 1147" cx="9.036" cy="1.457" rx="9.036" ry="1.457" transform="translate(2.879 0.667)" fill="#dd9624"/>
                        <path id="Path_5554" data-name="Path 5554" d="M904.873,1105.706a.23.23,0,0,0,.027.111c.329-.8,4.243-1.436,9.025-1.436s8.7.633,9.025,1.436a.232.232,0,0,0,.027-.111c0-.854-4.053-1.546-9.052-1.546S904.873,1104.852,904.873,1105.706Z" transform="translate(-902.009 -1103.671)" fill="#a36f40"/>
                    </g>
                </g>
            </g>
        </g>
        <g id="Group_2654" data-name="Group 2654" transform="translate(711.399 168.545)">
            <path id="Path_5556" data-name="Path 5556" d="M2041.97,583.264l4.687,10.4,4.666-2.1-4.687-10.4Zm3.478,1.488a.783.783,0,1,1,.392-1.036A.78.78,0,0,1,2045.448,584.751Z" transform="translate(-2041.97 -568.458)" fill="#ffb517"/>
            <path id="Path_5557" data-name="Path 5557" d="M2068.04,625.651l-4.667,2.1-1.854-4.111c1.658-.474,4.161,1.007,4.438-2.609Z" transform="translate(-2058.686 -602.554)" fill="#ffb517" style="mix-blend-mode: multiply;isolation: isolate"/>
            <path id="Path_5558" data-name="Path 5558" d="M2088.838,516.077l7.162-3.229a5.077,5.077,0,0,0,2.542-6.716l-1.8-3.989h0a2.532,2.532,0,0,0,1.268-3.349h0a2.532,2.532,0,0,0-3.349-1.268l-5.918,2.745.43-4.154a2.287,2.287,0,0,0-3.073-2.415l-.037.016-1.649,12.548Z" transform="translate(-2078.263 -493.53)" fill="#ffb517"/>
            <path id="Path_5559" data-name="Path 5559" d="M2104.01,563.659l-7.162,3.228-3.064-6.8a5.364,5.364,0,0,0,5.415,2.1,8.7,8.7,0,0,0,4.273-2.175c1.7-1.573,2.34-5.034.5-6.444a6.35,6.35,0,0,1,.779-.614l.669,1.485.765,1.7v0l.364.806A5.077,5.077,0,0,1,2104.01,563.659Z" transform="translate(-2086.273 -544.341)" fill="#ffb517" style="mix-blend-mode: multiply;isolation: isolate"/>
        </g>
        <g id="Group_2656" data-name="Group 2656" transform="translate(519.941 169.229)">
            <g id="Group_2655" data-name="Group 2655" transform="translate(0)">
                <circle id="Ellipse_1148" data-name="Ellipse 1148" cx="7.85" cy="7.85" r="7.85" transform="translate(3.683 5.479)" fill="#eee"/>
                <circle id="Ellipse_1149" data-name="Ellipse 1149" cx="4.494" cy="4.494" r="4.494" fill="#eee"/>
            </g>
        </g>
        <g id="Group_2658" data-name="Group 2658" transform="translate(659.824 186.566)">
            <path id="Path_5560" data-name="Path 5560" d="M1706.181,726.6l.027,11.349a2.442,2.442,0,0,0,2.448,2.436l18.65-.044a2.442,2.442,0,0,0,2.436-2.448l-.027-11.162a3.12,3.12,0,0,0-.9-.132Z" transform="translate(-1703.278 -710.84)" fill="#d1d3d4" style="mix-blend-mode: multiply;isolation: isolate"/>
            <g id="Group_2657" data-name="Group 2657" transform="translate(0 0)">
                <path id="Path_5561" data-name="Path 5561" d="M1709.683,628.729l-10.858,10.558a1.267,1.267,0,0,1-1.768,0l-10.907-10.507,10.858-10.568a1.267,1.267,0,0,1,1.768,0Z" transform="translate(-1686.15 -617.855)" fill="url(#linear-gradient-2)"/>
                <path id="Path_5562" data-name="Path 5562" d="M1720.129,664.616l-18.016.042a.51.51,0,0,1-.511-.509l-.048-20.4a.51.51,0,0,1,.509-.511l18.016-.043a.51.51,0,0,1,.511.509l.048,20.4A.51.51,0,0,1,1720.129,664.616Z" transform="translate(-1699.321 -639.521)" fill="#fff"/>
                <path id="Path_5563" data-name="Path 5563" d="M1709.683,692.872l.031,13.284a2.442,2.442,0,0,1-2.436,2.448l-18.65.044a2.442,2.442,0,0,1-2.448-2.436l-.031-13.284,10.907,10.507a1.267,1.267,0,0,0,1.768,0Z" transform="translate(-1686.15 -681.999)" fill="#f7b97b"/>
                <rect id="Rectangle_646" data-name="Rectangle 646" width="4.122" height="1.443" rx="0.721" transform="translate(4.951 7.261) rotate(-0.135)" fill="url(#linear-gradient-3)"/>
                <rect id="Rectangle_647" data-name="Rectangle 647" width="12.06" height="1.443" rx="0.721" transform="translate(4.957 9.962) rotate(-0.135)" fill="url(#linear-gradient-4)"/>
                <rect id="Rectangle_648" data-name="Rectangle 648" width="12.06" height="1.443" rx="0.721" transform="translate(4.964 12.662) rotate(-0.135)" fill="url(#linear-gradient-5)"/>
            </g>
        </g>
        <g id="Group_2712" data-name="Group 2712" transform="translate(661.812 260.995)">
            <g id="Group_2661" data-name="Group 2661" transform="translate(22.947 10.047)">
                <circle id="Ellipse_1150" data-name="Ellipse 1150" cx="10.682" cy="10.682" r="10.682" fill="#fcb72b"/>
                <path id="Path_5564" data-name="Path 5564" d="M1875.885,1278.056a8.115,8.115,0,1,0,16.229,0c0-.156,0-.312-.014-.469a8.114,8.114,0,0,1-16.2,0C1875.889,1277.743,1875.885,1277.9,1875.885,1278.056Z" transform="translate(-1873.318 -1266.438)" fill="#fcd183"/>
                <ellipse id="Ellipse_1151" data-name="Ellipse 1151" cx="8.101" cy="7.646" rx="8.101" ry="7.646" transform="translate(2.581 3.504)" fill="#dd9624"/>
                <path id="Path_5565" data-name="Path 5565" d="M1875.885,1226.483c0,.2.007.392.024.583a8.111,8.111,0,0,1,16.181,0c.017-.191.024-.386.024-.583a8.115,8.115,0,1,0-16.229,0Z" transform="translate(-1873.318 -1215.802)" fill="#a36f40"/>
            </g>
            <path id="Path_5567" data-name="Path 5567" d="M1712.174,1131.352c-6.8,0-12.312.941-12.312,2.1v3.692a.356.356,0,0,1,0,.348v3.692a.345.345,0,0,1,0,.316v11.109a.345.345,0,0,1,0,.316v1.168h20.154a3.607,3.607,0,0,0,3.607-3.607v-17.807C1721.82,1131.9,1717.375,1131.352,1712.174,1131.352Z" transform="translate(-1699.862 -1131.352)" fill="#d1d3d4" style="mix-blend-mode: multiply;isolation: isolate"/>
            <g id="Group_2686" data-name="Group 2686" transform="translate(3.212 0)">
                <g id="Group_2667" data-name="Group 2667" transform="translate(0 12.088)">
                    <g id="Group_2666" data-name="Group 2666">
                        <g id="Group_2662" data-name="Group 2662" transform="translate(0 2.103)">
                            <ellipse id="Ellipse_1152" data-name="Ellipse 1152" cx="12.312" cy="2.103" rx="12.312" ry="2.103" transform="translate(0 1.589)" fill="#e09d27"/>
                            <rect id="Rectangle_649" data-name="Rectangle 649" width="24.623" height="3.692" fill="#e09d27"/>
                        </g>
                        <g id="Group_2665" data-name="Group 2665">
                            <ellipse id="Ellipse_1153" data-name="Ellipse 1153" cx="12.312" cy="2.103" rx="12.312" ry="2.103" fill="#fcb72b"/>
                            <path id="Path_5568" data-name="Path 5568" d="M1761.141,1229.98c0,.882-4.188,1.6-9.353,1.6s-9.353-.715-9.353-1.6a.251.251,0,0,1,.016-.092c.281.84,4.352,1.505,9.337,1.505s9.057-.665,9.337-1.505A.251.251,0,0,1,1761.141,1229.98Z" transform="translate(-1739.476 -1227.693)" fill="#ffc285"/>
                            <ellipse id="Ellipse_1154" data-name="Ellipse 1154" cx="9.337" cy="1.505" rx="9.337" ry="1.505" transform="translate(2.975 0.69)" fill="#c98a1b"/>
                            <path id="Path_5569" data-name="Path 5569" d="M1761.141,1219.828a.24.24,0,0,1-.028.115c-.34-.829-4.384-1.483-9.325-1.483s-8.984.654-9.325,1.483a.24.24,0,0,1-.028-.115c0-.882,4.188-1.6,9.353-1.6S1761.141,1218.946,1761.141,1219.828Z" transform="translate(-1739.476 -1217.726)" fill="#a36f40"/>
                            <g id="Group_2664" data-name="Group 2664" transform="translate(10.204 1.312)">
                                <g id="Group_2663" data-name="Group 2663">
                                    <path id="Path_5570" data-name="Path 5570" d="M1794.144,1225.381v-.194a16.625,16.625,0,0,1-1.725-.085l.27-.129a15.116,15.116,0,0,0,1.623.083c.8,0,1.342-.079,1.342-.189s-.44-.171-1.274-.229c-1.15-.077-1.86-.166-1.86-.333s.665-.281,1.7-.31v-.194h.7v.187c.676,0,1.139.035,1.466.067l-.282.127a13.787,13.787,0,0,0-1.42-.066c-.868,0-1.2.089-1.2.166,0,.1.417.15,1.4.219,1.161.081,1.747.181,1.747.352,0,.152-.62.295-1.781.327v.2Z" transform="translate(-1792.419 -1223.801)" fill="#fcd183"/>
                                </g>
                            </g>
                        </g>
                    </g>
                </g>
                <g id="Group_2673" data-name="Group 2673" transform="translate(0 8.048)">
                    <g id="Group_2672" data-name="Group 2672">
                        <g id="Group_2668" data-name="Group 2668" transform="translate(0 2.103)">
                            <ellipse id="Ellipse_1155" data-name="Ellipse 1155" cx="12.312" cy="2.103" rx="12.312" ry="2.103" transform="translate(0 1.589)" fill="#e09d27"/>
                            <rect id="Rectangle_650" data-name="Rectangle 650" width="24.623" height="3.692" fill="#e09d27"/>
                        </g>
                        <g id="Group_2671" data-name="Group 2671">
                            <ellipse id="Ellipse_1156" data-name="Ellipse 1156" cx="12.312" cy="2.103" rx="12.312" ry="2.103" fill="#fcb72b"/>
                            <path id="Path_5571" data-name="Path 5571" d="M1761.141,1202.108c0,.882-4.188,1.6-9.353,1.6s-9.353-.715-9.353-1.6a.25.25,0,0,1,.016-.092c.281.84,4.352,1.5,9.337,1.5s9.057-.665,9.337-1.5A.25.25,0,0,1,1761.141,1202.108Z" transform="translate(-1739.476 -1199.822)" fill="#ffc285"/>
                            <ellipse id="Ellipse_1157" data-name="Ellipse 1157" cx="9.337" cy="1.505" rx="9.337" ry="1.505" transform="translate(2.975 0.69)" fill="#c98a1b"/>
                            <path id="Path_5572" data-name="Path 5572" d="M1761.141,1191.957a.24.24,0,0,1-.028.115c-.34-.829-4.384-1.483-9.325-1.483s-8.984.654-9.325,1.483a.24.24,0,0,1-.028-.115c0-.882,4.188-1.6,9.353-1.6S1761.141,1191.075,1761.141,1191.957Z" transform="translate(-1739.476 -1189.855)" fill="#a36f40"/>
                            <g id="Group_2670" data-name="Group 2670" transform="translate(10.204 1.312)">
                                <g id="Group_2669" data-name="Group 2669">
                                    <path id="Path_5573" data-name="Path 5573" d="M1794.144,1197.509v-.194a16.645,16.645,0,0,1-1.725-.085l.27-.129a15.121,15.121,0,0,0,1.623.083c.8,0,1.342-.079,1.342-.188s-.44-.171-1.274-.229c-1.15-.077-1.86-.166-1.86-.333s.665-.281,1.7-.31v-.194h.7v.187c.676,0,1.139.035,1.466.067l-.282.127a13.836,13.836,0,0,0-1.42-.066c-.868,0-1.2.089-1.2.166,0,.1.417.15,1.4.22,1.161.081,1.747.181,1.747.352,0,.152-.62.294-1.781.327v.2Z" transform="translate(-1792.419 -1195.929)" fill="#fcd183"/>
                                </g>
                            </g>
                        </g>
                    </g>
                </g>
                <g id="Group_2679" data-name="Group 2679" transform="translate(0 4.04)">
                    <g id="Group_2678" data-name="Group 2678">
                        <g id="Group_2674" data-name="Group 2674" transform="translate(0 2.103)">
                            <ellipse id="Ellipse_1158" data-name="Ellipse 1158" cx="12.312" cy="2.103" rx="12.312" ry="2.103" transform="translate(0 1.589)" fill="#e09d27"/>
                            <rect id="Rectangle_651" data-name="Rectangle 651" width="24.623" height="3.692" fill="#e09d27"/>
                        </g>
                        <g id="Group_2677" data-name="Group 2677">
                            <ellipse id="Ellipse_1159" data-name="Ellipse 1159" cx="12.312" cy="2.103" rx="12.312" ry="2.103" fill="#fcb72b"/>
                            <path id="Path_5574" data-name="Path 5574" d="M1761.141,1174.457c0,.882-4.188,1.6-9.353,1.6s-9.353-.715-9.353-1.6a.25.25,0,0,1,.016-.092c.281.84,4.352,1.505,9.337,1.505s9.057-.665,9.337-1.505A.25.25,0,0,1,1761.141,1174.457Z" transform="translate(-1739.476 -1172.17)" fill="#ffc285"/>
                            <ellipse id="Ellipse_1160" data-name="Ellipse 1160" cx="9.337" cy="1.505" rx="9.337" ry="1.505" transform="translate(2.975 0.69)" fill="#c98a1b"/>
                            <path id="Path_5575" data-name="Path 5575" d="M1761.141,1164.305a.239.239,0,0,1-.028.115c-.34-.829-4.384-1.483-9.325-1.483s-8.984.654-9.325,1.483a.239.239,0,0,1-.028-.115c0-.882,4.188-1.6,9.353-1.6S1761.141,1163.423,1761.141,1164.305Z" transform="translate(-1739.476 -1162.203)" fill="#a36f40"/>
                            <g id="Group_2676" data-name="Group 2676" transform="translate(10.204 1.312)">
                                <g id="Group_2675" data-name="Group 2675">
                                    <path id="Path_5576" data-name="Path 5576" d="M1794.144,1169.858v-.194a16.689,16.689,0,0,1-1.725-.085l.27-.129a15.085,15.085,0,0,0,1.623.083c.8,0,1.342-.079,1.342-.188s-.44-.171-1.274-.229c-1.15-.077-1.86-.166-1.86-.333s.665-.281,1.7-.31v-.194h.7v.187c.676,0,1.139.035,1.466.068l-.282.127a13.948,13.948,0,0,0-1.42-.065c-.868,0-1.2.089-1.2.166,0,.1.417.15,1.4.219,1.161.081,1.747.181,1.747.352,0,.152-.62.295-1.781.327v.2Z" transform="translate(-1792.419 -1168.278)" fill="#fcd183"/>
                                </g>
                            </g>
                        </g>
                    </g>
                </g>
                <g id="Group_2685" data-name="Group 2685">
                    <g id="Group_2684" data-name="Group 2684">
                        <g id="Group_2680" data-name="Group 2680" transform="translate(0 2.103)">
                            <ellipse id="Ellipse_1161" data-name="Ellipse 1161" cx="12.312" cy="2.103" rx="12.312" ry="2.103" transform="translate(0 1.589)" fill="#e09d27"/>
                            <rect id="Rectangle_652" data-name="Rectangle 652" width="24.623" height="3.692" fill="#e09d27"/>
                        </g>
                        <g id="Group_2683" data-name="Group 2683">
                            <ellipse id="Ellipse_1162" data-name="Ellipse 1162" cx="12.312" cy="2.103" rx="12.312" ry="2.103" fill="#fcb72b"/>
                            <path id="Path_5577" data-name="Path 5577" d="M1761.141,1146.585c0,.882-4.188,1.6-9.353,1.6s-9.353-.715-9.353-1.6a.249.249,0,0,1,.016-.092c.281.84,4.352,1.505,9.337,1.505s9.057-.665,9.337-1.505A.25.25,0,0,1,1761.141,1146.585Z" transform="translate(-1739.476 -1144.298)" fill="#ffc285"/>
                            <ellipse id="Ellipse_1163" data-name="Ellipse 1163" cx="9.337" cy="1.505" rx="9.337" ry="1.505" transform="translate(2.975 0.69)" fill="#dd9624"/>
                            <path id="Path_5578" data-name="Path 5578" d="M1761.141,1136.433a.24.24,0,0,1-.028.115c-.34-.829-4.384-1.483-9.325-1.483s-8.984.655-9.325,1.483a.24.24,0,0,1-.028-.115c0-.882,4.188-1.6,9.353-1.6S1761.141,1135.551,1761.141,1136.433Z" transform="translate(-1739.476 -1134.331)" fill="#a36f40"/>
                        </g>
                    </g>
                </g>
            </g>
            <g id="Group_2711" data-name="Group 2711" transform="translate(3.212 11.425)">
                <g id="Group_2692" data-name="Group 2692" transform="translate(0 12.088)">
                    <g id="Group_2691" data-name="Group 2691">
                        <g id="Group_2687" data-name="Group 2687" transform="translate(0 2.103)">
                            <ellipse id="Ellipse_1164" data-name="Ellipse 1164" cx="12.312" cy="2.103" rx="12.312" ry="2.103" transform="translate(0 1.589)" fill="#e09d27"/>
                            <rect id="Rectangle_653" data-name="Rectangle 653" width="24.623" height="3.692" fill="#e09d27"/>
                        </g>
                        <g id="Group_2690" data-name="Group 2690">
                            <ellipse id="Ellipse_1165" data-name="Ellipse 1165" cx="12.312" cy="2.103" rx="12.312" ry="2.103" fill="#fcb72b"/>
                            <path id="Path_5580" data-name="Path 5580" d="M1761.141,1308.805c0,.882-4.188,1.6-9.353,1.6s-9.353-.715-9.353-1.6a.25.25,0,0,1,.016-.092c.281.84,4.352,1.505,9.337,1.505s9.057-.665,9.337-1.505A.251.251,0,0,1,1761.141,1308.805Z" transform="translate(-1739.476 -1306.518)" fill="#ffc285"/>
                            <ellipse id="Ellipse_1166" data-name="Ellipse 1166" cx="9.337" cy="1.505" rx="9.337" ry="1.505" transform="translate(2.975 0.69)" fill="#c98a1b"/>
                            <path id="Path_5581" data-name="Path 5581" d="M1761.141,1298.653a.239.239,0,0,1-.028.115c-.34-.829-4.384-1.483-9.325-1.483s-8.984.654-9.325,1.483a.239.239,0,0,1-.028-.115c0-.882,4.188-1.6,9.353-1.6S1761.141,1297.771,1761.141,1298.653Z" transform="translate(-1739.476 -1296.551)" fill="#a36f40"/>
                            <g id="Group_2689" data-name="Group 2689" transform="translate(10.204 1.312)">
                                <g id="Group_2688" data-name="Group 2688">
                                    <path id="Path_5582" data-name="Path 5582" d="M1794.144,1304.207v-.195a16.62,16.62,0,0,1-1.725-.085l.27-.129a15.148,15.148,0,0,0,1.623.083c.8,0,1.342-.079,1.342-.189s-.44-.171-1.274-.229c-1.15-.077-1.86-.166-1.86-.333s.665-.281,1.7-.31v-.194h.7v.187c.676,0,1.139.035,1.466.067l-.282.127a13.849,13.849,0,0,0-1.42-.065c-.868,0-1.2.089-1.2.166,0,.1.417.15,1.4.219,1.161.081,1.747.181,1.747.352,0,.152-.62.295-1.781.327v.2Z" transform="translate(-1792.419 -1302.626)" fill="#fcd183"/>
                                </g>
                            </g>
                        </g>
                    </g>
                </g>
                <g id="Group_2698" data-name="Group 2698" transform="translate(0 8.048)">
                    <g id="Group_2697" data-name="Group 2697">
                        <g id="Group_2693" data-name="Group 2693" transform="translate(0 2.103)">
                            <ellipse id="Ellipse_1167" data-name="Ellipse 1167" cx="12.312" cy="2.103" rx="12.312" ry="2.103" transform="translate(0 1.589)" fill="#e09d27"/>
                            <rect id="Rectangle_654" data-name="Rectangle 654" width="24.623" height="3.692" fill="#e09d27"/>
                        </g>
                        <g id="Group_2696" data-name="Group 2696">
                            <ellipse id="Ellipse_1168" data-name="Ellipse 1168" cx="12.312" cy="2.103" rx="12.312" ry="2.103" fill="#fcb72b"/>
                            <path id="Path_5583" data-name="Path 5583" d="M1761.141,1280.933c0,.882-4.188,1.6-9.353,1.6s-9.353-.715-9.353-1.6a.249.249,0,0,1,.016-.092c.281.84,4.352,1.505,9.337,1.505s9.057-.665,9.337-1.505A.25.25,0,0,1,1761.141,1280.933Z" transform="translate(-1739.476 -1278.646)" fill="#ffc285"/>
                            <ellipse id="Ellipse_1169" data-name="Ellipse 1169" cx="9.337" cy="1.505" rx="9.337" ry="1.505" transform="translate(2.975 0.69)" fill="#c98a1b"/>
                            <path id="Path_5584" data-name="Path 5584" d="M1761.141,1270.781a.238.238,0,0,1-.028.115c-.34-.828-4.384-1.483-9.325-1.483s-8.984.655-9.325,1.483a.238.238,0,0,1-.028-.115c0-.882,4.188-1.6,9.353-1.6S1761.141,1269.9,1761.141,1270.781Z" transform="translate(-1739.476 -1268.679)" fill="#a36f40"/>
                            <g id="Group_2695" data-name="Group 2695" transform="translate(10.204 1.312)">
                                <g id="Group_2694" data-name="Group 2694">
                                    <path id="Path_5585" data-name="Path 5585" d="M1794.144,1276.335v-.194a16.724,16.724,0,0,1-1.725-.085l.27-.129a15.116,15.116,0,0,0,1.623.083c.8,0,1.342-.079,1.342-.189s-.44-.171-1.274-.229c-1.15-.077-1.86-.166-1.86-.333s.665-.281,1.7-.31v-.194h.7v.187c.676,0,1.139.035,1.466.067l-.282.127a13.787,13.787,0,0,0-1.42-.066c-.868,0-1.2.089-1.2.166,0,.1.417.15,1.4.22,1.161.081,1.747.181,1.747.352,0,.152-.62.294-1.781.327v.2Z" transform="translate(-1792.419 -1274.754)" fill="#fcd183"/>
                                </g>
                            </g>
                        </g>
                    </g>
                </g>
                <g id="Group_2704" data-name="Group 2704" transform="translate(0 4.04)">
                    <g id="Group_2703" data-name="Group 2703">
                        <g id="Group_2699" data-name="Group 2699" transform="translate(0 2.103)">
                            <ellipse id="Ellipse_1170" data-name="Ellipse 1170" cx="12.312" cy="2.103" rx="12.312" ry="2.103" transform="translate(0 1.589)" fill="#e09d27"/>
                            <rect id="Rectangle_655" data-name="Rectangle 655" width="24.623" height="3.692" fill="#e09d27"/>
                        </g>
                        <g id="Group_2702" data-name="Group 2702">
                            <ellipse id="Ellipse_1171" data-name="Ellipse 1171" cx="12.312" cy="2.103" rx="12.312" ry="2.103" fill="#fcb72b"/>
                            <path id="Path_5586" data-name="Path 5586" d="M1761.141,1253.281c0,.882-4.188,1.6-9.353,1.6s-9.353-.715-9.353-1.6a.252.252,0,0,1,.016-.093c.281.84,4.352,1.505,9.337,1.505s9.057-.665,9.337-1.505A.252.252,0,0,1,1761.141,1253.281Z" transform="translate(-1739.476 -1250.994)" fill="#ffc285"/>
                            <ellipse id="Ellipse_1172" data-name="Ellipse 1172" cx="9.337" cy="1.505" rx="9.337" ry="1.505" transform="translate(2.975 0.69)" fill="#c98a1b"/>
                            <path id="Path_5587" data-name="Path 5587" d="M1761.141,1243.129a.24.24,0,0,1-.028.115c-.34-.829-4.384-1.483-9.325-1.483s-8.984.654-9.325,1.483a.24.24,0,0,1-.028-.115c0-.882,4.188-1.6,9.353-1.6S1761.141,1242.247,1761.141,1243.129Z" transform="translate(-1739.476 -1241.027)" fill="#a36f40"/>
                            <g id="Group_2701" data-name="Group 2701" transform="translate(10.204 1.312)">
                                <g id="Group_2700" data-name="Group 2700">
                                    <path id="Path_5588" data-name="Path 5588" d="M1794.144,1248.683v-.194a16.655,16.655,0,0,1-1.725-.085l.27-.129a15.148,15.148,0,0,0,1.623.083c.8,0,1.342-.079,1.342-.189s-.44-.171-1.274-.229c-1.15-.077-1.86-.166-1.86-.333s.665-.281,1.7-.31v-.194h.7v.187c.676,0,1.139.035,1.466.068l-.282.127a13.936,13.936,0,0,0-1.42-.065c-.868,0-1.2.089-1.2.166,0,.1.417.15,1.4.219,1.161.081,1.747.181,1.747.352,0,.152-.62.295-1.781.327v.2Z" transform="translate(-1792.419 -1247.103)" fill="#fcd183"/>
                                </g>
                            </g>
                        </g>
                    </g>
                </g>
                <g id="Group_2710" data-name="Group 2710">
                    <g id="Group_2709" data-name="Group 2709">
                        <g id="Group_2705" data-name="Group 2705" transform="translate(0 2.103)">
                            <ellipse id="Ellipse_1173" data-name="Ellipse 1173" cx="12.312" cy="2.103" rx="12.312" ry="2.103" transform="translate(0 1.589)" fill="#e09d27"/>
                            <rect id="Rectangle_656" data-name="Rectangle 656" width="24.623" height="3.692" fill="#e09d27"/>
                        </g>
                        <g id="Group_2708" data-name="Group 2708">
                            <ellipse id="Ellipse_1174" data-name="Ellipse 1174" cx="12.312" cy="2.103" rx="12.312" ry="2.103" fill="#fcb72b"/>
                            <path id="Path_5589" data-name="Path 5589" d="M1761.141,1225.409c0,.882-4.188,1.6-9.353,1.6s-9.353-.715-9.353-1.6a.25.25,0,0,1,.016-.092c.281.84,4.352,1.5,9.337,1.5s9.057-.665,9.337-1.5A.25.25,0,0,1,1761.141,1225.409Z" transform="translate(-1739.476 -1223.123)" fill="#ffc285"/>
                            <ellipse id="Ellipse_1175" data-name="Ellipse 1175" cx="9.337" cy="1.505" rx="9.337" ry="1.505" transform="translate(2.975 0.69)" fill="#dd9624"/>
                            <path id="Path_5590" data-name="Path 5590" d="M1761.141,1215.258a.241.241,0,0,1-.028.115c-.34-.829-4.384-1.483-9.325-1.483s-8.984.654-9.325,1.483a.241.241,0,0,1-.028-.115c0-.882,4.188-1.6,9.353-1.6S1761.141,1214.376,1761.141,1215.258Z" transform="translate(-1739.476 -1213.156)" fill="#a36f40"/>
                        </g>
                    </g>
                </g>
            </g>
        </g>
        <path id="Path_5592" data-name="Path 5592" d="M1148.738,709.782s-1.808,2.63-.914,3.108,14.357,3.136,28.55,2.329a159.114,159.114,0,0,0,23.937-3.035l-26.817-2.238Z" transform="translate(-565.815 -509.892)" fill="#d1d3d4" style="mix-blend-mode: multiply;isolation: isolate"/>
        <g id="Group_2713" data-name="Group 2713" transform="translate(581.239 191.335)">
            <path id="Path_5593" data-name="Path 5593" d="M1159.219,653.006l24.415,3.111-.052,6.307-38.666-.571a5.254,5.254,0,0,1-.519-5.031l2.9-6.063Z" transform="translate(-1143.983 -650.759)" fill="#4e3654"/>
            <path id="Path_5594" data-name="Path 5594" d="M1412.115,694.429h0a2.129,2.129,0,0,0,.745.118l5.87-.123c.337-.007,6.559-.585,6.559-.585.194.189,1.995-.779,1.4-1.394l-5.81-2.849c-.907-.942-3.1-1.356-4.4-1.254l-5.367.423-.408,3.4A2.125,2.125,0,0,0,1412.115,694.429Z" transform="translate(-1372.032 -682.883)" fill="#feac84"/>
            <path id="Path_5595" data-name="Path 5595" d="M1416.552,696.437s6.116-.395,6.045-.411c-.644-.17-8.77.142-10.494-2.16-.5-.724.269-3.149.361-3.269h0l-1.346.107-.409,3.4a2.126,2.126,0,0,0,1.407,2.261,2.04,2.04,0,0,0,.7.118c.567-.025,1.324-.034,2.009-.04.1,0,.194,0,.288,0,.05,0,.1,0,.147,0C1415.992,696.435,1416.552,696.437,1416.552,696.437Z" transform="translate(-1372.036 -684.821)" fill="#e87979"/>
        </g>
        <g id="Group_2717" data-name="Group 2717" transform="translate(573.709 223.015)">
            <g id="Group_2714" data-name="Group 2714" transform="translate(1.305 0.87)">
                <path id="Path_5596" data-name="Path 5596" d="M1118.409,892.986c-.431-.758-.888-1.511-1.361-2.239s-.939-1.408-1.388-2.025q-.326-.448-.625-.838a5.814,5.814,0,0,0,3.44-5.622,6.015,6.015,0,0,0-2.529-5.28,11.936,11.936,0,0,0-6.81-1.662c-.774,0-1.663.033-2.641.1a19.721,19.721,0,0,0-2.837.391l-.571.124v20.35h4.962v-7.3h1.506c.1,0,.212,0,.332-.007.279.361.578.762.892,1.2.405.563.816,1.163,1.222,1.785s.821,1.284,1.227,1.957.78,1.336,1.123,1.985l.2.386h5.5l-.474-1.028C1119.24,894.52,1118.846,893.756,1118.409,892.986Zm-5.309-9.537a1.712,1.712,0,0,1-.7.688,4.055,4.055,0,0,1-1.383.419,15.469,15.469,0,0,1-2.156.132h-.809v-4.845c.424-.023.871-.034,1.339-.034a10.232,10.232,0,0,1,1.769.142,3.868,3.868,0,0,1,1.255.429,1.764,1.764,0,0,1,.688.7,2.416,2.416,0,0,1,.246,1.158A2.551,2.551,0,0,1,1113.1,883.448Z" transform="translate(-1102.79 -875.32)" fill="#6492c7"/>
                <path id="Path_5597" data-name="Path 5597" d="M1240.707,893h-9.562v-4.21h7.918v-4.377h-7.918V881.1h8.894v-4.432h-13.856v20.769h14.525Z" transform="translate(-1208.043 -876.472)" fill="#6492c7"/>
                <path id="Path_5598" data-name="Path 5598" d="M1343.854,889.017h7.723v-4.432h-7.723V881.1h8.7v-4.432h-13.66v20.769h4.962Z" transform="translate(-1304.416 -876.472)" fill="#6492c7"/>
                <path id="Path_5599" data-name="Path 5599" d="M1459.395,893h-9.562v-4.21h7.918v-4.377h-7.918V881.1h8.894v-4.432H1444.87v20.769h14.525Z" transform="translate(-1395.032 -876.472)" fill="#6492c7"/>
                <path id="Path_5600" data-name="Path 5600" d="M1562.349,889.653h1.506c.1,0,.212,0,.332-.007.28.362.579.764.892,1.2.406.564.818,1.165,1.222,1.785s.821,1.285,1.227,1.957.78,1.335,1.123,1.986l.2.386h5.5l-.474-1.028c-.34-.737-.734-1.5-1.171-2.271s-.889-1.512-1.36-2.239-.94-1.41-1.388-2.025q-.326-.448-.625-.838a5.814,5.814,0,0,0,3.44-5.622,6.015,6.015,0,0,0-2.529-5.28,11.935,11.935,0,0,0-6.81-1.662c-.774,0-1.663.033-2.642.1a19.681,19.681,0,0,0-2.837.391l-.571.124v20.35h4.962Zm4.363-8.6a1.765,1.765,0,0,1,.688.7,2.417,2.417,0,0,1,.246,1.158,2.553,2.553,0,0,1-.246,1.214,1.714,1.714,0,0,1-.7.688,4.051,4.051,0,0,1-1.382.419,15.482,15.482,0,0,1-2.156.132h-.809v-4.845c.424-.023.871-.034,1.338-.034a10.235,10.235,0,0,1,1.769.142A3.873,3.873,0,0,1,1566.712,881.053Z" transform="translate(-1491.24 -875.895)" fill="#6492c7"/>
                <path id="Path_5601" data-name="Path 5601" d="M1113.8,1058.085c-.44-1.164-.87-2.272-1.277-3.294-.415-1.04-.83-2.039-1.234-2.969s-.829-1.868-1.263-2.786l-.2-.415H1106.7l-.2.415c-.432.914-.857,1.851-1.262,2.786s-.818,1.928-1.233,2.969-.837,2.141-1.267,3.3-.893,2.441-1.368,3.792l-.338.965h3.951l.17-.485q.257-.734.525-1.479c.123-.343.245-.691.365-1.041h4.357c.123.355.249.7.376,1.042.18.479.358.974.528,1.473l.168.49h4.048l-.339-.965C1114.709,1060.528,1114.245,1059.251,1113.8,1058.085Zm-5.583-4.37q.138.346.285.723c.252.648.515,1.342.783,2.072h-2.134c.265-.722.525-1.41.775-2.055Q1108.08,1054.07,1108.221,1053.715Z" transform="translate(-1101.034 -1023.502)" fill="#6492c7"/>
                <path id="Path_5602" data-name="Path 5602" d="M1229.626,1062.845h3.772v-5.567h5.106v-3.422H1233.4v-1.813h5.751v-3.422h-9.523Z" transform="translate(-1210.987 -1023.502)" fill="#6492c7"/>
                <path id="Path_5603" data-name="Path 5603" d="M1311.5,1061.974l-.424-.919c-.228-.493-.491-1-.784-1.52s-.593-1.008-.907-1.493-.626-.939-.925-1.349q-.124-.17-.242-.328a4.1,4.1,0,0,0,2.15-3.8,4.209,4.209,0,0,0-1.778-3.693,8.124,8.124,0,0,0-4.643-1.142c-.519,0-1.112.022-1.763.066a13.251,13.251,0,0,0-1.911.264l-.571.124v13.9h3.772v-4.83h.851c.161.212.332.441.509.686.266.369.536.763.8,1.171s.539.844.806,1.286.512.878.736,1.3l.2.386h7.89V1047.86H1311.5Zm-5.509-10.439a.929.929,0,0,1,.363.365,1.364,1.364,0,0,1,.133.649,1.455,1.455,0,0,1-.133.685.9.9,0,0,1-.369.358,2.449,2.449,0,0,1-.83.249,10,10,0,0,1-1.39.085h-.289V1051.2c.205-.008.419-.012.639-.012a6.523,6.523,0,0,1,1.127.09A2.312,2.312,0,0,1,1305.986,1051.535Z" transform="translate(-1270.902 -1022.741)" fill="#6492c7"/>
                <path id="Path_5604" data-name="Path 5604" d="M1422,1057.13h5.235v-3.385H1422v-1.7h5.88v-3.422h-9.652v14.224h10.095v-3.422H1422Z" transform="translate(-1372.248 -1023.502)" fill="#6492c7"/>
                <path id="Path_5605" data-name="Path 5605" d="M1501.025,1055.421l-.109-.157c-.54-.775-1.1-1.554-1.674-2.316s-1.145-1.5-1.719-2.221-1.123-1.352-1.626-1.881l-.214-.225h-2.934v14.224h3.735v-7.794q.161.213.325.433c.562.755,1.123,1.547,1.668,2.351s1.085,1.625,1.594,2.418.977,1.549,1.389,2.238l.211.354h3.109v-14.224h-3.754Z" transform="translate(-1435.97 -1023.502)" fill="#6492c7"/>
                <path id="Path_5606" data-name="Path 5606" d="M1596.9,1049.459a6.791,6.791,0,0,0-2.546-1.323,11.473,11.473,0,0,0-3.129-.405c-.53,0-1.138.019-1.81.056a11.988,11.988,0,0,0-2,.275l-.563.129v13.56l.563.129a12.582,12.582,0,0,0,1.976.284c.666.044,1.271.066,1.8.066a11.161,11.161,0,0,0,3.165-.426,6.842,6.842,0,0,0,2.553-1.363,6.2,6.2,0,0,0,1.66-2.313,8.15,8.15,0,0,0,.573-3.166,8.259,8.259,0,0,0-.573-3.2A6.036,6.036,0,0,0,1596.9,1049.459Zm-1.644,5.5a3.862,3.862,0,0,1-.948,2.823,4,4,0,0,1-2.973.969c-.29,0-.525,0-.713-.005v-7.55c.2-.006.443-.01.75-.01a4,4,0,0,1,2.963.941A3.94,3.94,0,0,1,1595.261,1054.963Z" transform="translate(-1516.437 -1022.741)" fill="#6492c7"/>
            </g>
            <g id="Group_2716" data-name="Group 2716" transform="translate(0)">
                <g id="Group_2715" data-name="Group 2715">
                    <path id="Path_5607" data-name="Path 5607" d="M1109.409,886.985c-.431-.758-.888-1.511-1.361-2.239s-.939-1.408-1.388-2.025q-.326-.448-.625-.838a5.814,5.814,0,0,0,3.44-5.622,6.015,6.015,0,0,0-2.529-5.279,11.936,11.936,0,0,0-6.811-1.662c-.774,0-1.663.033-2.641.1a19.717,19.717,0,0,0-2.837.391l-.571.124v20.35h4.962v-7.3h1.506c.1,0,.212,0,.332-.007.279.361.578.762.892,1.2.405.563.816,1.163,1.222,1.785s.821,1.284,1.227,1.957.78,1.336,1.123,1.986l.2.386h5.5l-.474-1.028C1110.24,888.52,1109.846,887.756,1109.409,886.985Zm-5.309-9.537a1.712,1.712,0,0,1-.7.688,4.052,4.052,0,0,1-1.383.419,15.489,15.489,0,0,1-2.156.132h-.809v-4.845c.424-.023.871-.034,1.338-.034a10.231,10.231,0,0,1,1.769.142,3.866,3.866,0,0,1,1.255.429,1.764,1.764,0,0,1,.688.7,2.415,2.415,0,0,1,.246,1.158A2.551,2.551,0,0,1,1104.1,877.448Z" transform="translate(-1093.79 -869.32)" fill="#4e3654"/>
                    <path id="Path_5608" data-name="Path 5608" d="M1231.707,887h-9.562v-4.21h7.918v-4.377h-7.918V875.1h8.894v-4.432h-13.856v20.769h14.525Z" transform="translate(-1199.043 -870.472)" fill="#4e3654"/>
                    <path id="Path_5609" data-name="Path 5609" d="M1334.855,883.017h7.723v-4.432h-7.723V875.1h8.7v-4.432h-13.66v20.769h4.962Z" transform="translate(-1295.416 -870.472)" fill="#4e3654"/>
                    <path id="Path_5610" data-name="Path 5610" d="M1450.395,887h-9.562v-4.21h7.918v-4.377h-7.918V875.1h8.894v-4.432H1435.87v20.769h14.525Z" transform="translate(-1386.032 -870.472)" fill="#4e3654"/>
                    <path id="Path_5611" data-name="Path 5611" d="M1553.349,883.653h1.506c.1,0,.212,0,.332-.007.28.362.579.764.892,1.2.406.564.817,1.165,1.222,1.785s.821,1.285,1.227,1.957.78,1.336,1.123,1.986l.2.386h5.5l-.474-1.028c-.34-.737-.734-1.5-1.171-2.271s-.889-1.512-1.361-2.239-.94-1.41-1.388-2.025q-.326-.448-.625-.838a5.814,5.814,0,0,0,3.44-5.622,6.014,6.014,0,0,0-2.529-5.279,11.934,11.934,0,0,0-6.81-1.662c-.774,0-1.663.033-2.642.1a19.681,19.681,0,0,0-2.837.391l-.571.124v20.35h4.962Zm4.363-8.6a1.766,1.766,0,0,1,.688.7,2.415,2.415,0,0,1,.246,1.158,2.551,2.551,0,0,1-.246,1.214,1.714,1.714,0,0,1-.7.689,4.054,4.054,0,0,1-1.382.419,15.5,15.5,0,0,1-2.156.132h-.808v-4.845c.424-.023.871-.034,1.338-.034a10.245,10.245,0,0,1,1.769.142A3.874,3.874,0,0,1,1557.712,875.053Z" transform="translate(-1482.24 -869.896)" fill="#4e3654"/>
                    <path id="Path_5612" data-name="Path 5612" d="M1104.8,1052.085c-.44-1.164-.869-2.272-1.277-3.294-.415-1.04-.83-2.039-1.234-2.969s-.829-1.868-1.263-2.786l-.2-.415H1097.7l-.2.415c-.432.914-.857,1.852-1.262,2.786s-.818,1.928-1.233,2.969-.837,2.141-1.267,3.3-.894,2.441-1.367,3.792l-.338.965h3.951l.17-.485q.257-.734.525-1.479c.123-.343.245-.691.365-1.041h4.357c.123.355.249.7.376,1.042.18.479.358.974.528,1.473l.168.49h4.049l-.339-.965C1105.709,1054.528,1105.245,1053.251,1104.8,1052.085Zm-5.583-4.37q.137.345.285.723c.252.647.515,1.342.783,2.072h-2.134c.265-.722.525-1.41.775-2.055Q1099.08,1048.07,1099.221,1047.715Z" transform="translate(-1092.034 -1017.502)" fill="#4e3654"/>
                    <path id="Path_5613" data-name="Path 5613" d="M1220.626,1056.845h3.772v-5.567h5.106v-3.422H1224.4v-1.813h5.751v-3.422h-9.523Z" transform="translate(-1201.987 -1017.502)" fill="#4e3654"/>
                    <path id="Path_5614" data-name="Path 5614" d="M1302.5,1055.974l-.424-.919c-.228-.494-.491-1.005-.784-1.52s-.592-1.008-.907-1.493-.626-.939-.925-1.349q-.124-.17-.242-.328a4.1,4.1,0,0,0,2.15-3.8,4.209,4.209,0,0,0-1.778-3.693,8.125,8.125,0,0,0-4.643-1.142c-.519,0-1.113.022-1.763.066a13.249,13.249,0,0,0-1.911.264l-.571.124v13.9h3.772v-4.83h.852c.161.212.332.441.508.686.266.369.536.763.8,1.171s.539.844.806,1.286.512.878.736,1.3l.2.386h7.89V1041.86H1302.5Zm-5.509-10.44a.93.93,0,0,1,.363.365,1.363,1.363,0,0,1,.133.649,1.456,1.456,0,0,1-.133.685.9.9,0,0,1-.369.358,2.442,2.442,0,0,1-.83.249,10.018,10.018,0,0,1-1.39.085h-.289V1045.2q.308-.012.639-.012a6.523,6.523,0,0,1,1.127.09A2.32,2.32,0,0,1,1296.986,1045.535Z" transform="translate(-1261.902 -1016.741)" fill="#4e3654"/>
                    <path id="Path_5615" data-name="Path 5615" d="M1413,1051.13h5.235v-3.385H1413v-1.7h5.88v-3.422h-9.652v14.224h10.095v-3.422H1413Z" transform="translate(-1363.248 -1017.502)" fill="#4e3654"/>
                    <path id="Path_5616" data-name="Path 5616" d="M1492.025,1049.421l-.109-.157c-.54-.775-1.1-1.554-1.674-2.316s-1.145-1.5-1.719-2.221-1.123-1.352-1.626-1.881l-.214-.225h-2.934v14.224h3.735v-7.794q.161.213.325.433c.562.755,1.123,1.547,1.668,2.351s1.085,1.625,1.594,2.418.978,1.549,1.389,2.238l.211.354h3.109v-14.224h-3.754Z" transform="translate(-1426.97 -1017.502)" fill="#4e3654"/>
                    <path id="Path_5617" data-name="Path 5617" d="M1587.9,1043.46a6.79,6.79,0,0,0-2.546-1.323,11.473,11.473,0,0,0-3.129-.405c-.53,0-1.139.019-1.81.056a12,12,0,0,0-2,.275l-.563.129v13.56l.563.129a12.561,12.561,0,0,0,1.977.284c.666.044,1.271.066,1.8.066a11.163,11.163,0,0,0,3.165-.426,6.844,6.844,0,0,0,2.553-1.363,6.2,6.2,0,0,0,1.66-2.313,8.146,8.146,0,0,0,.573-3.166,8.254,8.254,0,0,0-.573-3.2A6.035,6.035,0,0,0,1587.9,1043.46Zm-1.644,5.5a3.862,3.862,0,0,1-.948,2.823,4,4,0,0,1-2.973.968c-.29,0-.525,0-.713-.005v-7.55c.2-.006.443-.01.75-.01a4.005,4.005,0,0,1,2.963.941A3.94,3.94,0,0,1,1586.261,1048.963Z" transform="translate(-1507.437 -1016.741)" fill="#4e3654"/>
                </g>
            </g>
        </g>
    </g>
</svg>
