<svg xmlns="http://www.w3.org/2000/svg" width="314.7" height="174.513" viewBox="0 0 314.7 174.513">
  <g id="Group_3329" data-name="Group 3329" transform="translate(-951.367 -673.105)">
    <path id="Path_7229" data-name="Path 7229" d="M970.665,847.345S932,805.832,964.127,760.888c28.5-39.878,58.36-23.647,86.2-14.62,20.188,6.547,40.248-5.5,65.731-46.077,34.752-55.336,155.216-21.774,133.251,63.361-10.629,41.2,32.349,42.7,10.45,83.88Z" fill="#f5f5f5"/>
    <g id="Group_3322" data-name="Group 3322" transform="translate(1108.717 685.807)">
      <path id="Path_7230" data-name="Path 7230" d="M2350.235,856.484a10.313,10.313,0,0,1,.206-4.069c.572-1.849,2.964-6.725,2.207-8.419s-3.5-6.253-5.187-6.239,1.777,4.878,1.3,6.4-.634,1.643-1.221,1.509-1.481-3.044-1.778-2.364a16.282,16.282,0,0,0,.434,6.306c.559,1.124-.587,7.463-.587,7.463Z" transform="translate(-2269.924 -822.939)" fill="#ea8888"/>
      <path id="Path_7231" data-name="Path 7231" d="M2203.721,931.7s-3.74-2.125-6.633-1.229c0,0-5.741,16.535-8.9,28.694a255.454,255.454,0,0,1-9.8-29.911s-7.359,10.162-10.015,16.919,13.219,30.463,19.378,32.324c6.429,1.942,5.259,0,8.886-2.079C2197.8,974.9,2201.531,967.369,2203.721,931.7Z" transform="translate(-2122.059 -899.144)" fill="#e75755"/>
      <path id="Path_7232" data-name="Path 7232" d="M2477.617,1660.181a1.065,1.065,0,0,0,.108.045h21.48c-.2-.765-.9-2.157-3.361-2.557-3.333-.542-9.11-2.478-10.4-6.742-.04-.136-.077-.277-.11-.419-1.023-4.556-8.464,1.4-8.464,1.4s-.023.181-.054.491C2476.645,1654.066,2476.2,1659.474,2477.617,1660.181Z" transform="translate(-2379.032 -1498.415)" fill="#060632"/>
      <path id="Path_7233" data-name="Path 7233" d="M1986.518,1223.336a27.939,27.939,0,0,0-4.675,2.835,13.08,13.08,0,0,0-.717-2.468c-18.434-4.8-67.778-4.41-67.778-4.41s-10.609,2.657-7.493,18.1c2.867,14.211,50.244,7.631,65.547,3.367q.537-.15,1.04-.313c-1.217,9.054,7.309,21.971,14.774,33.859,6.153,9.8,11.39,19.718,11.39,19.718,3.09,1.917,13.465.808,13.465.808C2005.513,1276.313,1986.518,1223.336,1986.518,1223.336Z" transform="translate(-1903.192 -1140.699)" fill="#0b0754"/>
      <g id="Group_3321" data-name="Group 3321" transform="translate(42.643 0)">
        <path id="Path_7234" data-name="Path 7234" d="M2147.918,858.955s5.292,16.942,13.241,20.731c0,0,.752-5.14-.534-9.049,1.05-.8,1.98-1.549,2.791-2.221a51.756,51.756,0,0,0,4.058-3.68l-1.182-8.261-.8-5.605a25.537,25.537,0,0,1-3.958,3.688A20.984,20.984,0,0,1,2147.918,858.955Z" transform="translate(-2147.918 -833.86)" fill="#fc9290"/>
        <path id="Path_7235" data-name="Path 7235" d="M2225.5,872.936s-2.665,7.334,1.884,13.858a51.716,51.716,0,0,0,4.058-3.68l-1.182-8.261A16.625,16.625,0,0,0,2225.5,872.936Z" transform="translate(-2211.89 -852.238)" fill="#ea8888"/>
        <path id="Path_7236" data-name="Path 7236" d="M2237.185,818.379s-11.72-7.776-6.765-15,6.779-13.093,14.471-8.433,7.24,8.4,6.173,11.216S2240.361,820.215,2237.185,818.379Z" transform="translate(-2215.613 -785.898)" fill="#fc9290"/>
        <path id="Path_7237" data-name="Path 7237" d="M2222.9,751.46c-.051-.2-.271-.443-.864-.775a2.728,2.728,0,0,1,1.3.232c.55-.8,1.748-2.1,3.39-1.758a2.066,2.066,0,0,0-1.544.906c2.555-.935,6.809-.444,16.449,5.278,12.706,7.54,4.134,14,1.919,14.19s-5.147-4.736-8.463-6.042-6.217,3.078-7.613,3.19-.415-.815-1.55-2.2-2.481,1.006-2.844,2.816-3.409,2.937-3.409,2.937l-.943-3.22c-.943-3.22,1.755-13.577,3.663-15.132C2222.561,751.74,2222.729,751.6,2222.9,751.46Z" transform="translate(-2206.732 -749.102)" fill="#0b0754"/>
      </g>
      <path id="Path_7238" data-name="Path 7238" d="M1949.688,921.248a114.864,114.864,0,0,1-7.159,14.357c-1.517,2.507-3.145,4.809-4.635,6.818l-.141.191c-2.933,3.946-7.419,5.032-7.279,6.022.28,1.985-4.734,6.748-13,8.86-9.593,2.451-20.711,3.631-23.52.388-.94-1.089-1.253-3.092-1.148-5.581.205-5.244,6.806-26.362,6.806-26.362,11.291-34.171,43.627-34.171,43.627-34.171s-.634,8.186,7.3,11.027C1950.55,902.815,1952.4,914.814,1949.688,921.248Z" transform="translate(-1892.784 -867.925)" fill="#fa7269"/>
      <path id="Path_7239" data-name="Path 7239" d="M2346.855,1213.6a55.075,55.075,0,0,1,6.188,2.55c1.332.834,4.4,5.03,4.742,6.5s.75,5.794.5,6.517-3.968-2.05-4.794-4.66-2.949-3.312-2.867-3.172,1.168,3.482.938,3.626-1.219.394-2.115-1.471-2.672-3.229-2.337-5.156A15.647,15.647,0,0,0,2346.855,1213.6Z" transform="translate(-2270.961 -1135.963)" fill="#fc9290"/>
      <path id="Path_7240" data-name="Path 7240" d="M2043.665,1051.547c.28,1.985-4.895,6.472-13.162,8.584-6.9-13.72,6.216-45.129,6.216-45.129l14.206,30.055C2047.927,1049.1,2043.524,1050.541,2043.665,1051.547Z" transform="translate(-2005.815 -970.559)" fill="#e75755"/>
      <path id="Path_7241" data-name="Path 7241" d="M2130.333,1060.494c-1.517,2.507-3.146,4.809-4.635,6.818l-.141.191a11.471,11.471,0,0,1-4.857-3.627c-2.238-3.16-2.422-22.153-2.422-22.153S2127.438,1053.039,2130.333,1060.494Z" transform="translate(-2080.589 -992.814)" fill="#e75755"/>
      <path id="Path_7242" data-name="Path 7242" d="M2108.9,964.827s-22.156-6.2-33.528-8.916c1-13.417,4.287-53.983-16.376-37.745,0,0-1.561,43.474,8.45,52.279,0,0,32.139.681,38.26.306a9.353,9.353,0,0,0,2.245-1.552A6.117,6.117,0,0,0,2108.9,964.827Z" transform="translate(-2031.139 -886.764)" fill="#fa7269"/>
    </g>
    <g id="Group_3325" data-name="Group 3325" transform="translate(1014.195 770.503)">
      <path id="Path_7243" data-name="Path 7243" d="M1402.942,1465.6l.817-.073a13.175,13.175,0,0,0-4.816-9.281,15.173,15.173,0,0,1-4.178-5.863s5.321-6.208.328-10.151c0,0-3.647-2.208-6.621-2.029,0,0,4.214,7.066,2.851,7.769s-4.128-8.212-4.128-8.212-8.3-.8-10.97.479c0,0,7.1,5.806,5.6,6.152s-9.158-5.353-9.158-5.353-7.724,1.315-7.313,6.027,3.073,6.167,4.243,6.042,8.013-2.737,8.162-1.779-3.97,4.091-6.854,4.238c0,0,5.446,6.006,9.065,4.272s3.928-4.481,6.185-5.512,4.182-1.028,3.251.023-5.015,2.073-6.305,4.355-2.448,3.822,1.3,3.258,9.832-3.3,10.1-6.441c.012-.138.023-.267.033-.392a1.51,1.51,0,0,1-.033.392c.781.139,2.4,1.577,3.576,2.7.181.2.447.462.829.816.143.144.262.266.352.358C1401.632,1460.006,1402.942,1465.6,1402.942,1465.6Z" transform="translate(-1358.976 -1407.148)" fill="#3a49cd"/>
      <g id="Group_3323" data-name="Group 3323" transform="translate(48.829 13.512)">
        <path id="Path_7244" data-name="Path 7244" d="M1624.973,1358.592s-8.465-4.74-4.515-11.173c0,0,3.16-3.95,6.546-4.966,0,0-1.806,9.593,0,9.819s1.242-10.835,1.242-10.835,8.916-4.289,12.415-3.95c0,0-5.53,9.368-3.724,9.142s8.013-9.706,8.013-9.706,9.142-1.693,10.609,3.725-.9,8.126-2.257,8.464-10.045.226-9.819,1.354,6.095,2.935,9.368,1.919c0,0-3.612,8.916-8.352,8.464s-6.208-3.386-9.142-3.612-5.079.564-3.611,1.354,6.433.259,8.8,2.274,4.289,3.256-.113,4.159-12.3.339-13.882-3.047Z" transform="translate(-1619.408 -1336.672)" fill="#93b3f4"/>
        <path id="Path_7245" data-name="Path 7245" d="M1656.835,1370.583s-23.7,7.675-26.41,16.252a18.006,18.006,0,0,1-2.257,8.239,15.631,15.631,0,0,0-1.571,12.307l.94-.252s-.822-6.7.729-10.585c.064-.143.156-.349.271-.6.281-.55.469-.954.589-1.248.845-1.734,2.065-4,2.878-4.473C1632,1390.221,1626.7,1382.772,1656.835,1370.583Z" transform="translate(-1624.86 -1364.915)" fill="#3a49cd"/>
      </g>
      <g id="Group_3324" data-name="Group 3324" transform="translate(0 0)">
        <path id="Path_7246" data-name="Path 7246" d="M1368.192,1284.726s11.158-6.248,5.951-14.729c0,0-4.166-5.207-8.629-6.546,0,0,2.38,12.646,0,12.943s-1.636-14.282-1.636-14.282-11.753-5.653-16.365-5.207c0,0,7.29,12.348,4.91,12.051s-10.563-12.794-10.563-12.794-12.051-2.232-13.985,4.909,1.19,10.712,2.975,11.158,13.241.3,12.943,1.785-8.034,3.868-12.348,2.529c0,0,4.761,11.753,11.009,11.158s8.182-4.463,12.05-4.761,6.695.744,4.761,1.785-8.48.341-11.6,3-5.653,4.292.149,5.483,16.216.446,18.3-4.017Z" transform="translate(-1327.264 -1255.832)" fill="#93b3f4"/>
        <path id="Path_7247" data-name="Path 7247" d="M1401.637,1332.814a23.735,23.735,0,0,1-2.975-10.861c-3.57-11.307-34.813-21.423-34.813-21.423,39.722,16.068,32.73,25.887,32.73,25.887,1.071.625,2.676,3.6,3.79,5.887.159.389.41.927.783,1.657.151.33.272.6.356.789,2.045,5.117.962,13.954.962,13.954l1.24.333A20.605,20.605,0,0,0,1401.637,1332.814Z" transform="translate(-1357.734 -1293.059)" fill="#3a49cd"/>
      </g>
      <path id="Path_7248" data-name="Path 7248" d="M1443.616,1575.527a21.856,21.856,0,1,0,43.713,0Z" transform="translate(-1424.169 -1522.093)" fill="#0b0754"/>
      <path id="Path_7249" data-name="Path 7249" d="M1529.691,1575.527c0,8.189,1.962,16.529,8.627,20.272,1.108.622,4.819-.052,6.035.372a21.865,21.865,0,0,0,14.664-20.645Z" transform="translate(-1495.857 -1522.093)" fill="#6d89cf"/>
      <path id="Path_7250" data-name="Path 7250" d="M1560.488,1597.383a21.3,21.3,0,0,1-2.663,0,21.856,21.856,0,0,0,21.856-21.857h-5.43C1574.25,1586.678,1571.278,1596.045,1560.488,1597.383Z" transform="translate(-1519.184 -1522.092)" fill="#bed2fa"/>
      <path id="Path_7251" data-name="Path 7251" d="M1441.808,1699.512h44.317a2.7,2.7,0,0,0-2.7-2.7H1444.5A2.7,2.7,0,0,0,1441.808,1699.512Z" transform="translate(-1422.663 -1623.108)" fill="#0b0754"/>
      <path id="Path_7252" data-name="Path 7252" d="M1566.041,1699.512h23.552a2.7,2.7,0,0,0-2.7-2.7h-18.159A2.7,2.7,0,0,0,1566.041,1699.512Z" transform="translate(-1526.131 -1623.108)" fill="#6d89cf"/>
      <rect id="Rectangle_808" data-name="Rectangle 808" width="44.929" height="0.67" transform="translate(63.879 54.105) rotate(180)" fill="#010117"/>
    </g>
    <g id="Group_3328" data-name="Group 3328" transform="translate(1110.015 787.352)">
      <path id="Rectangle_809" data-name="Rectangle 809" d="M7.481,0H49.459A7.481,7.481,0,0,1,56.94,7.481v0a7.481,7.481,0,0,1-7.481,7.481H7.481A7.481,7.481,0,0,1,0,7.481v0A7.481,7.481,0,0,1,7.481,0Z" transform="translate(0.596 0)" fill="#6d89cf"/>
      <path id="Path_7253" data-name="Path 7253" d="M1961.058,1417.019v1.556a3.217,3.217,0,0,1-3.208,3.208h-50.524a3.217,3.217,0,0,1-3.208-3.208v-1.684h56.02A3.366,3.366,0,0,1,1961.058,1417.019Z" transform="translate(-1903.522 -1406.821)" fill="#0b0754"/>
      <g id="Group_3326" data-name="Group 3326" transform="translate(0 14.884)">
        <path id="Path_7254" data-name="Path 7254" d="M1913.311,1445.772l-2.277,8.626,0,0-9.482,35.9h-1l5.48-29.788c.005-.029.013-.059.019-.091l2.711-14.732Z" transform="translate(-1900.552 -1445.695)" fill="#93b3f4"/>
      </g>
      <path id="Path_7255" data-name="Path 7255" d="M1940.711,1445.772l-2.277,8.626,0,0c-.131.064-4.277,2.208-4.98,6.026l2.711-14.732Z" transform="translate(-1927.952 -1430.811)" fill="#3662c1"/>
      <g id="Group_3327" data-name="Group 3327" transform="translate(44.776 14.884)">
        <path id="Path_7256" data-name="Path 7256" d="M2181.205,1490.306h-1l-7.726-29.248v-.005l-1.756-6.651,0,0-2.278-8.626,4.55-.078,1.551,8.423,1.16,6.309c.005.032.013.061.019.091Z" transform="translate(-2168.446 -1445.695)" fill="#93b3f4"/>
      </g>
      <path id="Path_7257" data-name="Path 7257" d="M2152.5,1513.575c-.005,0-.011,0-.016-.011C2152.464,1513.527,2152.469,1513.535,2152.5,1513.575Z" transform="translate(-2110.366 -1487.316)" fill="#3662c1"/>
      <path id="Path_7258" data-name="Path 7258" d="M2174.546,1454.118a12.557,12.557,0,0,0-2.064,6.934l-1.756-6.651,0,0-2.278-8.626,4.55-.078Z" transform="translate(-2123.67 -1430.811)" fill="#3662c1"/>
    </g>
  </g>
</svg>
