<svg xmlns="http://www.w3.org/2000/svg" xmlns:xlink="http://www.w3.org/1999/xlink" width="182.937" height="223.072" viewBox="0 0 182.937 223.072">
    <defs>
        <linearGradient id="linear-gradient" x1="-5.396" y1="2.28" x2="-4.523" y2="2.28" gradientUnits="objectBoundingBox">
            <stop offset="0" stop-color="#ce0661"/>
            <stop offset="0.18" stop-color="#d8176c"/>
            <stop offset="0.472" stop-color="#e62d7b"/>
            <stop offset="0.751" stop-color="#ee3b83"/>
            <stop offset="1" stop-color="#f14087"/>
        </linearGradient>
        <linearGradient id="linear-gradient-2" x1="-6.388" y1="8.751" x2="-5.359" y2="8.751" gradientUnits="objectBoundingBox">
            <stop offset="0" stop-color="#950029"/>
            <stop offset="1" stop-color="#c40b57"/>
        </linearGradient>
        <linearGradient id="linear-gradient-3" x1="-14.221" y1="7.436" x2="-13.074" y2="7.436" gradientUnits="objectBoundingBox">
            <stop offset="0" stop-color="#3dc540"/>
            <stop offset="0.557" stop-color="#43b139"/>
            <stop offset="1" stop-color="#47a736"/>
        </linearGradient>
        <linearGradient id="linear-gradient-4" x1="-20.678" y1="9.05" x2="-19.516" y2="9.05" xlink:href="#linear-gradient-3"/>
        <linearGradient id="linear-gradient-5" x1="-17.495" y1="5.979" x2="-16.274" y2="5.979" xlink:href="#linear-gradient-3"/>
        <linearGradient id="linear-gradient-6" x1="-41.473" y1="8.004" x2="-40.2" y2="8.004" xlink:href="#linear-gradient-3"/>
        <linearGradient id="linear-gradient-7" x1="-18.025" y1="18.423" x2="-16.944" y2="18.423" xlink:href="#linear-gradient-3"/>
        <linearGradient id="linear-gradient-8" x1="-16.365" y1="13.082" x2="-15.282" y2="13.082" xlink:href="#linear-gradient-3"/>
        <linearGradient id="linear-gradient-9" x1="-2.996" y1="2.773" x2="-2.147" y2="2.773" gradientUnits="objectBoundingBox">
            <stop offset="0" stop-color="#00c4b8"/>
            <stop offset="0.354" stop-color="#00fdd4"/>
            <stop offset="0.525" stop-color="#00eaca"/>
            <stop offset="0.826" stop-color="#00cebd"/>
            <stop offset="1" stop-color="#00c4b8"/>
        </linearGradient>
        <linearGradient id="linear-gradient-10" x1="-8.564" y1="4.841" x2="-7.765" y2="4.841" gradientUnits="objectBoundingBox">
            <stop offset="0" stop-color="#ffb226"/>
            <stop offset="0.253" stop-color="#ff8b26"/>
            <stop offset="0.492" stop-color="#ff6c26"/>
            <stop offset="0.626" stop-color="#ff6126"/>
            <stop offset="1" stop-color="#ffb226"/>
        </linearGradient>
        <linearGradient id="linear-gradient-11" x1="-7.978" y1="3.288" x2="-7.28" y2="3.288" xlink:href="#linear-gradient-10"/>
        <linearGradient id="linear-gradient-12" x1="-7.064" y1="2.844" x2="-5.738" y2="2.844" xlink:href="#linear-gradient-10"/>
        <linearGradient id="linear-gradient-13" x1="-24.221" y1="5.377" x2="-22.59" y2="5.377" gradientUnits="objectBoundingBox">
            <stop offset="0.005" stop-color="#ff5690"/>
            <stop offset="0.23" stop-color="#fa4d7f"/>
            <stop offset="0.723" stop-color="#f23d61"/>
            <stop offset="1" stop-color="#f03856"/>
        </linearGradient>
        <linearGradient id="linear-gradient-14" x1="-16.806" y1="3.741" x2="-15.306" y2="3.741" xlink:href="#linear-gradient-13"/>
        <linearGradient id="linear-gradient-15" x1="-5.886" y1="2.883" x2="-4.624" y2="2.883" xlink:href="#linear-gradient-9"/>
        <linearGradient id="linear-gradient-16" x1="-17.058" y1="8.417" x2="-16.045" y2="8.417" xlink:href="#linear-gradient-3"/>
        <linearGradient id="linear-gradient-17" x1="-40.449" y1="10.683" x2="-39.35" y2="10.683" xlink:href="#linear-gradient-3"/>
        <linearGradient id="linear-gradient-18" x1="-72.981" y1="19.592" x2="-71.848" y2="19.592" xlink:href="#linear-gradient-3"/>
        <linearGradient id="linear-gradient-19" x1="-25.15" y1="26.836" x2="-24.212" y2="26.836" xlink:href="#linear-gradient-3"/>
        <linearGradient id="linear-gradient-20" x1="-44.324" y1="16.198" x2="-43.537" y2="16.198" xlink:href="#linear-gradient-3"/>
        <linearGradient id="linear-gradient-21" x1="-65.879" y1="22.647" x2="-64.964" y2="22.647" xlink:href="#linear-gradient-3"/>
        <linearGradient id="linear-gradient-22" x1="-41.581" y1="31.769" x2="-40.691" y2="31.769" xlink:href="#linear-gradient-3"/>
        <linearGradient id="linear-gradient-23" x1="-22.766" y1="20.078" x2="-21.654" y2="20.078" xlink:href="#linear-gradient-13"/>
        <linearGradient id="linear-gradient-24" x1="-23.289" y1="16.943" x2="-22.264" y2="16.943" gradientUnits="objectBoundingBox">
            <stop offset="0" stop-color="#ffdb00"/>
            <stop offset="0.06" stop-color="#ffe316"/>
            <stop offset="0.16" stop-color="#ffef35"/>
            <stop offset="0.257" stop-color="#fff84b"/>
            <stop offset="0.35" stop-color="#fffd59"/>
            <stop offset="0.432" stop-color="#ffff5e"/>
            <stop offset="0.511" stop-color="#fef247"/>
            <stop offset="0.642" stop-color="#fce028"/>
            <stop offset="0.77" stop-color="#fbd312"/>
            <stop offset="0.892" stop-color="#fbcb04"/>
            <stop offset="1" stop-color="#fbc900"/>
        </linearGradient>
        <linearGradient id="linear-gradient-25" x1="-29.165" y1="12.161" x2="-27.945" y2="12.161" xlink:href="#linear-gradient-13"/>
        <linearGradient id="linear-gradient-26" x1="-10.321" y1="16.085" x2="-9.3" y2="16.085" xlink:href="#linear-gradient-13"/>
        <linearGradient id="linear-gradient-27" x1="-28.272" y1="21.833" x2="-27.316" y2="21.833" xlink:href="#linear-gradient-13"/>
        <linearGradient id="linear-gradient-28" x1="-49.986" y1="19.074" x2="-48.855" y2="19.074" xlink:href="#linear-gradient-9"/>
        <linearGradient id="linear-gradient-29" x1="-30.043" y1="15.19" x2="-28.903" y2="15.19" xlink:href="#linear-gradient-24"/>
        <linearGradient id="linear-gradient-30" x1="-61.357" y1="20.956" x2="-60.197" y2="20.956" xlink:href="#linear-gradient-9"/>
        <linearGradient id="linear-gradient-31" x1="-38.916" y1="39.796" x2="-37.923" y2="39.796" xlink:href="#linear-gradient-9"/>
        <linearGradient id="linear-gradient-32" x1="-64.144" y1="37.534" x2="-63.149" y2="37.534" xlink:href="#linear-gradient-9"/>
        <linearGradient id="linear-gradient-33" x1="-34.12" y1="6.997" x2="-32.87" y2="6.997" xlink:href="#linear-gradient-3"/>
        <linearGradient id="linear-gradient-34" x1="-27.58" y1="9.104" x2="-26.342" y2="9.104" xlink:href="#linear-gradient-3"/>
        <linearGradient id="linear-gradient-35" x1="-41.011" y1="10.795" x2="-39.915" y2="10.795" xlink:href="#linear-gradient-3"/>
    </defs>
    <g id="Group_2016" data-name="Group 2016" transform="translate(-561.922 -194.045)">
        <path id="Path_3508" data-name="Path 3508" d="M630.212,337.269a3.78,3.78,0,0,0,1.581.195,2.955,2.955,0,0,0,2.3-1.264c2.011-2.853.082-9.888-.952-13.666l-.055-.195c-1.553-5.664-3.433-13.266-3.458-13.343L629,306.431l0,2.643c0,.079-.029,8.161-.709,14.858l-.135,1.292C627.623,330.052,626.972,336.068,630.212,337.269Zm-.6-25.69c.687,2.72,1.839,7.241,2.847,10.934l.058.191c.934,3.412,2.888,10.508,1.046,13.121a2.291,2.291,0,0,1-1.822.986,3.169,3.169,0,0,1-1.3-.15c-2.763-1.029-2.139-6.756-1.644-11.364q.075-.672.144-1.3C629.385,319.555,629.549,314.515,629.612,311.579Z" transform="translate(46.623 79.642)" fill="#900045"/>
        <path id="Path_3509" data-name="Path 3509" d="M608.437,281.079l22.72,56.98a24.057,24.057,0,0,0,22.382-5.625l-6.924-60.949Z" transform="translate(32.963 54.878)" fill="url(#linear-gradient)"/>
        <path id="Path_3510" data-name="Path 3510" d="M634.963,336.4c.4-.08.8-.162,1.208-.268.536-.138,1.051-.289,1.553-.449l-14.773-61.424-4.781,1.8Z" transform="translate(39.86 56.846)" fill="#fbc800"/>
        <path id="Path_3511" data-name="Path 3511" d="M635.536,335.305,614.582,276.48l-3.375.68,22.175,58.091A20.7,20.7,0,0,0,635.536,335.305Z" transform="translate(34.925 58.417)" fill="#00e1b8"/>
        <path id="Path_3512" data-name="Path 3512" d="M637.853,334.34l-8.013-62.272-3.166.795-.15.043L636,335.447C636.693,335.074,637.31,334.7,637.853,334.34Z" transform="translate(45.779 55.291)" fill="#00e1b8"/>
        <path id="Path_3513" data-name="Path 3513" d="M619.371,283.127a1.17,1.17,0,1,1-1.423-.858A1.183,1.183,0,0,1,619.371,283.127Z" transform="translate(39.075 62.495)" fill="#fff"/>
        <path id="Path_3514" data-name="Path 3514" d="M621.806,290.565a1.172,1.172,0,1,1-1.425-.849A1.174,1.174,0,0,1,621.806,290.565Z" transform="translate(40.801 67.773)" fill="#fff"/>
        <path id="Path_3515" data-name="Path 3515" d="M624.278,297.863a1.173,1.173,0,1,1-1.422-.848A1.171,1.171,0,0,1,624.278,297.863Z" transform="translate(42.552 72.944)" fill="#fff"/>
        <path id="Path_3516" data-name="Path 3516" d="M626.163,303.966a1.17,1.17,0,1,1-1.42-.851A1.175,1.175,0,0,1,626.163,303.966Z" transform="translate(43.891 77.268)" fill="#fff"/>
        <g id="Group_2013" data-name="Group 2013" transform="translate(645.543 346.079)">
            <path id="Path_3517" data-name="Path 3517" d="M610.867,283.082a22.373,22.373,0,0,0,.784,2.2,1.17,1.17,0,0,0-.784-2.2Z" transform="translate(-610.862 -283.024)" fill="#fff"/>
            <path id="Path_3518" data-name="Path 3518" d="M618.941,303.463l.866,2.163a1.172,1.172,0,0,0-.866-2.163Z" transform="translate(-605.138 -268.571)" fill="#fff"/>
            <path id="Path_3519" data-name="Path 3519" d="M616.728,297.5a1.377,1.377,0,0,0-.154.067l.868,2.168a1.173,1.173,0,0,0-.714-2.235Z" transform="translate(-606.815 -272.806)" fill="#fff"/>
            <path id="Path_3520" data-name="Path 3520" d="M613.755,290.365c-.055.026.81,2.189.81,2.189a1.168,1.168,0,0,0-.81-2.189Z" transform="translate(-608.814 -277.862)" fill="#fff"/>
        </g>
        <g id="Group_2014" data-name="Group 2014" transform="translate(678.919 338.253)">
            <path id="Path_3521" data-name="Path 3521" d="M632.57,295.084a1.171,1.171,0,0,0,1.247,1.087.977.977,0,0,0,.294-.06l-.256-2.267a.7.7,0,0,0-.19-.009A1.176,1.176,0,0,0,632.57,295.084Z" transform="translate(-628.856 -267.539)" fill="#fff"/>
            <path id="Path_3522" data-name="Path 3522" d="M631.452,287.461a1.168,1.168,0,0,0,1.245,1.087,1.091,1.091,0,0,0,.7-.294l-.215-1.9a1.156,1.156,0,0,0-.629-.147A1.19,1.19,0,0,0,631.452,287.461Z" transform="translate(-629.648 -272.944)" fill="#fff"/>
            <path id="Path_3523" data-name="Path 3523" d="M631.488,278.446a1.17,1.17,0,1,0,.155,2.334,1.157,1.157,0,0,0,.955-.62l-.15-1.3A1.159,1.159,0,0,0,631.488,278.446Z" transform="translate(-630.395 -278.444)" fill="#fff"/>
            <path id="Path_3524" data-name="Path 3524" d="M634.422,300.173a1.174,1.174,0,0,0,.149,2.344,1.461,1.461,0,0,0,.236-.043l-.263-2.295C634.5,300.18,634.463,300.175,634.422,300.173Z" transform="translate(-628.318 -263.045)" fill="#fff"/>
        </g>
        <path id="Path_3525" data-name="Path 3525" d="M627.159,281.232a1.172,1.172,0,1,1-1.312-1.008A1.172,1.172,0,0,1,627.159,281.232Z" transform="translate(44.575 61.063)" fill="#fff"/>
        <path id="Path_3526" data-name="Path 3526" d="M628.687,288.919a1.172,1.172,0,1,1-1.309-1.011A1.176,1.176,0,0,1,628.687,288.919Z" transform="translate(45.66 66.508)" fill="#fff"/>
        <path id="Path_3527" data-name="Path 3527" d="M630.268,296.466a1.171,1.171,0,1,1-1.312-1.017A1.17,1.17,0,0,1,630.268,296.466Z" transform="translate(46.779 71.853)" fill="#fff"/>
        <path id="Path_3528" data-name="Path 3528" d="M631.414,302.746a1.172,1.172,0,1,1-1.312-1.013A1.172,1.172,0,0,1,631.414,302.746Z" transform="translate(47.59 76.305)" fill="#fff"/>
        <path id="Path_3529" data-name="Path 3529" d="M620.414,309.367l2.255,5.651a24.057,24.057,0,0,0,22.382-5.625L644.439,304C637.914,309.6,628.638,311.993,620.414,309.367Z" transform="translate(41.45 77.919)" fill="#00e1b8"/>
        <path id="Path_3530" data-name="Path 3530" d="M647.348,277.942l-.733-6.457-38.178,9.594,2.286,5.741C623.178,289.891,637.5,286.33,647.348,277.942Z" transform="translate(32.963 54.878)" fill="#fbc800"/>
        <path id="Path_3531" data-name="Path 3531" d="M640.1,333.523a116.237,116.237,0,0,1-10.724-20.666,170.016,170.016,0,0,1-7.069-21.99q-1.473-5.764-2.617-11.6c-.241-1.227-.5-2.464-.745-3.708l-10.5,2.64,22.72,56.98a22.416,22.416,0,0,0,10.317.386C641.006,334.884,640.542,334.21,640.1,333.523Z" transform="translate(32.963 57.762)" fill="#838888" opacity="0.3" style="mix-blend-mode: multiply;isolation: isolate"/>
        <path id="Path_3532" data-name="Path 3532" d="M622.43,275.071c6,9.406,9.322,20.485,12.393,31.116,2.578,8.969,5.893,17.985,7.754,27.21a12.843,12.843,0,0,0,1.046-.964L636.7,271.485Z" transform="translate(42.879 54.878)" fill="#fff" opacity="0.3" style="mix-blend-mode: color-dodge;isolation: isolate"/>
        <path id="Path_3533" data-name="Path 3533" d="M646.531,272.6c.73,2.886-7.19,7.366-17.688,10.008s-19.589,2.435-20.317-.456,7.19-7.369,17.684-10.009S645.8,269.712,646.531,272.6Z" transform="translate(32.992 54.031)" fill="url(#linear-gradient-2)"/>
        <path id="Path_3534" data-name="Path 3534" d="M641.613,273.671a47.833,47.833,0,0,0-29.158,8.43,55.256,55.256,0,0,0,13.57-1.849C632.885,278.525,638.649,276.01,641.613,273.671Z" transform="translate(35.81 56.386)" fill="#800126"/>
        <g id="Group_2015" data-name="Group 2015" transform="translate(561.922 194.045)">
            <path id="Path_3535" data-name="Path 3535" d="M622.985,270.425c.217-.436.449-.873.7-1.293a9.741,9.741,0,0,0,1.162-.021,11.368,11.368,0,0,0,2.31-.436,14.324,14.324,0,0,0,4.612-2.4,16.367,16.367,0,0,0,3.346-3.455c-1.059-.8-2.056-1.686-3.139-2.462-1.054-.757-2.749-.588-3.967-.379a9.906,9.906,0,0,0-4.6,2.16,14.748,14.748,0,0,0-3.183,3.747c-.424.689-1.719.214-2.423.015-1.1-.308-1.422-1.059-1.823-2.093-1.271-3.286-.735-7.069.3-10.341.125-.388.258-.783.4-1.165.292-.793.267-.714,1.073-.622a11.712,11.712,0,0,0,2.841-.034,20.24,20.24,0,0,0,5.514-1.551,7.719,7.719,0,0,0,3.908-3.11,3.342,3.342,0,0,0,.436-2.093,3.021,3.021,0,0,0-.3-.911l-4.419-3.7a7.117,7.117,0,0,0-5.871.451,12.012,12.012,0,0,0-4.366,3.872,18,18,0,0,0-1.546,2.546c-.255.516-.5,1.032-.714,1.569-.591-.115-1.162-.115-1.44-.68-1.9-3.827.554-7.494,3.151-10.211a36.125,36.125,0,0,0,4.13-4.878,4.983,4.983,0,0,0,1-2.537,2.5,2.5,0,0,0-.3-1.237c-.111-.207-4.733-3.694-5-3.805a7.165,7.165,0,0,0-2.129-.463c-1.663-.106-3.313.26-4.976.231.591-3.113,4.137-5.056,5.828-7.539,1-1.464,1.521-3.123.123-4.47a31.73,31.73,0,0,0-4.711-3.2,9.456,9.456,0,0,0-1.784-.579,12.025,12.025,0,0,0-3.865-.116c-1.362.154-2.688.478-4.043.672a15.533,15.533,0,0,1-2.163.174c-.742,0-.395-.894-.248-1.459,1.357-5.381,6.7-9.025,11.074-11.836-.461.3-2.771-2.32-3.2-2.616-.779-.552-2.052.832-2.686,1.273a36.533,36.533,0,0,0-3.805,2.985c-2.188,1.977-4.435,4.473-5.027,7.453-.306,1.529-.169,2.78,1.1,3.776,1.063.829,2.194,1.569,3.275,2.375,2.226,1.956,7.492.156,10.279-.087a12.753,12.753,0,0,1,2.566.01c.629.075.494.584.357,1.116a6.209,6.209,0,0,1-1.343,2.341c-1.35,1.642-3.042,3-4.311,4.723a4.651,4.651,0,0,0-1.022,2.31,2.58,2.58,0,0,0,.164,1.046,3.02,3.02,0,0,0,.27.516c.114.162,4.487,3.306,4.755,3.405a7.1,7.1,0,0,0,2.146.41c1.705.085,3.4-.265,5.1-.181-.27,2.857-3.24,5.235-5.068,7.211-2.343,2.551-4.566,5.5-3.8,9.175.425,2.049,2.218,3.281,3.769,4.482.371.287.742.571,1.124.846.588.439.144.943-.051,1.6a23.353,23.353,0,0,0-.723,3.593,12.892,12.892,0,0,0,.419,5.963,9.133,9.133,0,0,0,1.257,2.32,12.14,12.14,0,0,0,.977,1.152,30.043,30.043,0,0,0,3.115,2.626c.393.26.767.547,1.152.815.642.449.487.436.181,1.165a23.493,23.493,0,0,0-1.7,6.3c-.511,4.082,3.17,10.556,5.355,12.155a8.058,8.058,0,0,0,3.973,1.509,8.576,8.576,0,0,0,4.446-.9c-.625,1.956-2.149,3.457-3.183,5.2a8.464,8.464,0,0,0-1.305,6.286,4.014,4.014,0,0,0,1.867,2.266c.9.641,1.7,1.422,2.653,1.991,2.368,1.423,4.195-.521,6.4-1.247-.051,1.932-1.384,3.457-2.144,5.146a9.16,9.16,0,0,0-.613,4.958c.157,1.244.21,3.25,1.363,4,.8.519,2.722.931,2.982,1.989a16.021,16.021,0,0,1-.656-5.871c.273-2.115,1.572-3.68,2.363-5.6a3.688,3.688,0,0,0-1.092-4.7c-1.3-1.167-2.867-2.859-4.743-2.946-1.837-.087-3.344,1.394-5.044,1.852-.3-2.7,1.876-5.247,3.235-7.366a11.027,11.027,0,0,0,1.69-3.431c.193-.892-.137-2.392-.612-2.672a37.225,37.225,0,0,1-3.668-2.766c-1.319-.83-2.734-.108-4.043.422-.981.4-4,1.384-4.659.178a10.433,10.433,0,0,1-1.147-5A22.768,22.768,0,0,1,622.985,270.425Zm.195-26.79a7.708,7.708,0,0,1,3.728-1c-.412,3.711-5.375,5.283-8.391,5.859A15.224,15.224,0,0,1,623.18,243.635Z" transform="translate(-539.884 -194.045)" fill="#7cde3e"/>
            <path id="Path_3536" data-name="Path 3536" d="M594.54,209.872a4.1,4.1,0,0,0,2.259.162c-.39-.2-.123-.928.005-1.41,1.357-5.381,6.7-9.025,11.074-11.836-.461.3-2.771-2.32-3.2-2.616-.779-.552-2.052.832-2.686,1.273a36.533,36.533,0,0,0-3.805,2.985c-2.188,1.977-4.435,4.473-5.027,7.453-.306,1.529-.169,2.78,1.1,3.776C594.35,209.729,594.448,209.8,594.54,209.872Z" transform="translate(-539.884 -194.045)" fill="url(#linear-gradient-3)"/>
            <path id="Path_3537" data-name="Path 3537" d="M599.709,216.191a4.86,4.86,0,0,0,.526.644c.2.149.465.352.784.581a2.935,2.935,0,0,0,1.423.349,6.791,6.791,0,0,0,.827-.063c-.058,0-.118,0-.181,0,.591-3.113,4.137-5.056,5.828-7.539.995-1.452,1.51-3.094.162-4.439a6.948,6.948,0,0,0-1.972-1,5.521,5.521,0,0,0-1.265-.193c.576.1.451.59.316,1.106a6.208,6.208,0,0,1-1.343,2.341c-1.35,1.642-3.042,3-4.311,4.723a4.653,4.653,0,0,0-1.022,2.31,2.578,2.578,0,0,0,.164,1.046C599.661,216.1,599.69,216.142,599.709,216.191Z" transform="translate(-535.307 -186.611)" fill="url(#linear-gradient-4)"/>
            <path id="Path_3538" data-name="Path 3538" d="M606.346,234.533a4.207,4.207,0,0,1-.907-1.348c-1.143-3.5,1.116-6.818,3.51-9.322a36.125,36.125,0,0,0,4.13-4.878,4.983,4.983,0,0,0,1-2.537,3.6,3.6,0,0,0-1.843-2.161,4.734,4.734,0,0,0-1.716-.531c-.343,2.821-3.271,5.175-5.085,7.134-2.343,2.551-4.566,5.5-3.8,9.175a1.209,1.209,0,0,0,.056.214A10.1,10.1,0,0,0,606.346,234.533Z" transform="translate(-533.892 -180.078)" fill="url(#linear-gradient-5)"/>
            <path id="Path_3539" data-name="Path 3539" d="M605.094,226.675a3.246,3.246,0,0,1-.328,1.157,23.35,23.35,0,0,0-.723,3.593,12.893,12.893,0,0,0,.419,5.963,9.132,9.132,0,0,0,1.257,2.32c.226.292.458.578.707.848.635.367,1.278.721,1.944,1.032.13.056.27.125.408.19a7.536,7.536,0,0,1-.5-1.094c-1.271-3.286-.735-7.069.3-10.341.125-.388.258-.783.4-1.165.133-.359.207-.531.318-.613A13.7,13.7,0,0,1,605.094,226.675Z" transform="translate(-532.184 -170.922)" fill="url(#linear-gradient-6)"/>
            <path id="Path_3540" data-name="Path 3540" d="M621.164,233.26c-.073-.06-.155-.116-.234-.174-1.054-.757-2.749-.588-3.968-.379a9.907,9.907,0,0,0-4.6,2.16,14.759,14.759,0,0,0-3.183,3.747.772.772,0,0,1-.576.338,19.967,19.967,0,0,0,7.7-1.311,9.924,9.924,0,0,0,3.533-2.3A7.729,7.729,0,0,0,621.164,233.26Z" transform="translate(-528.84 -166.773)" fill="url(#linear-gradient-7)"/>
            <path id="Path_3541" data-name="Path 3541" d="M610.167,229.435a15.169,15.169,0,0,1,4.613-4.788,7.633,7.633,0,0,1,3.651-.993,3.747,3.747,0,0,0-.772-2.081l-.332-.279a7.117,7.117,0,0,0-5.871.451,12.013,12.013,0,0,0-4.366,3.872,17.991,17.991,0,0,0-1.546,2.546c-.244.484-.465.977-.671,1.473A8.484,8.484,0,0,0,610.167,229.435Z" transform="translate(-531.485 -175.057)" fill="url(#linear-gradient-8)"/>
            <path id="Path_3542" data-name="Path 3542" d="M641.361,278.4c-.5-2.269-2.177-3.906-3.65-5.594-1.724-1.972-1.791-3.809-1.945-6.289-.13-2.208-1.654-3.164-3.388-4.229a7.19,7.19,0,0,0-4.479-1.328c-.606.021-1.21.32-1.215-.431a11.074,11.074,0,0,1,.159-1.88,9.369,9.369,0,0,0,.173-3.481c-.429-1.821-2.047-2.879-3.433-3.921a9.224,9.224,0,0,0-4.772-2.216c-2.394-.174-4.648.953-7.019,1.018-.017-2.134,1.609-4.41.673-6.507-.8-1.835-2.877-2.756-4.437-4a6.713,6.713,0,0,0-4.6-1.063c-1.792.248-3.17,2.153-4.62,3.089-.07-1.828.077-3.525-1.271-4.955a24.087,24.087,0,0,0-4.576-3.04,4.054,4.054,0,0,0-1.5-.048,8.062,8.062,0,0,0-2.934,1.177c-1.956,1.16-3.585,2.985-5.664,3.889a5.63,5.63,0,0,0-1.994-4.326,10.464,10.464,0,0,0-3.933-2.519c-2.6-.719-4.868.918-6.467,2.811a33.935,33.935,0,0,0-4.048,6.621c-.289.549,3.11,3.144,3.92,2.942a3.167,3.167,0,0,1,.337-1.224c.273-.531.547-1.063.839-1.586a25.264,25.264,0,0,1,1.9-3.017,8.93,8.93,0,0,1,5.673-3.826,19.654,19.654,0,0,0,.557,3.487c.33.911,1.106,1.235,1.832,1.787,1.49,1.138,2.744,2.488,4.783,1.881,3.369-1,5.223-5.027,8.8-5.551.2,1.186.119,2.4.244,3.586a4.727,4.727,0,0,0,.342,1.43,2.969,2.969,0,0,0,.311.55c.075.116,3.3,3.65,4.969,3.32,1.946-.393,3.33-2.322,5.027-3.231a5.035,5.035,0,0,1,2.987-.536,7.685,7.685,0,0,1-.328,3.487,7.52,7.52,0,0,0-.427,2.929,2.8,2.8,0,0,0,.448,1.194c.092.147,4.161,3.3,4.352,3.393a6.4,6.4,0,0,0,1.189.424,7.605,7.605,0,0,0,2.855.044c1.191-.176,2.358-.5,3.547-.7a10.447,10.447,0,0,1,1.745-.157c.745-.007.943-.009,1.071.755.369,2.143-.878,4.343-.25,6.471a5.417,5.417,0,0,0,1.975,2.257,11.024,11.024,0,0,0,2.56,1.891,7.149,7.149,0,0,0,2.768.543c.55.022,1.1.02,1.654.048.027.519,0,1.037-.005,1.56-.032,2.5,1.548,4.34,3.115,6.1a12.42,12.42,0,0,1,1.886,2.58c.407.806.4,1.635,1.162,2.185C638.895,276.68,641.19,277.621,641.361,278.4Z" transform="translate(-558.753 -167.448)" fill="url(#linear-gradient-9)"/>
            <path id="Path_3543" data-name="Path 3543" d="M634.785,277.017c-.535-.272-1.088-.373-1.418-.88a5.27,5.27,0,0,0-1.469-1.389c-.9-.642-1.816-1.264-2.7-1.931.233.21.186.21-.143-.005a3.1,3.1,0,0,0-.974-.27,9.963,9.963,0,0,0-2.725.279c-.157-1.117.1-2.917-.781-3.759a19.7,19.7,0,0,0-2.544-1.987c-.991-.675-1.49-.273-2.466.434-1.3.945-2.544,2.331-4.18,2.657a10.19,10.19,0,0,1-.331-2.9c.005-.559.273-1.287-.176-1.7a23.747,23.747,0,0,0-2.624-1.953c-.262-.181-.518-.361-.781-.533-.215-.137-1.473,1.256-1.683,1.463-1.312,1.268-2.845,2.824-4.82,2.783.88-1.164,2.479-3.5,1.463-4.964-.9-1.278-2.515-1.871-3.7-2.809a3.255,3.255,0,0,0-1.458,0,2.665,2.665,0,0,0-1.44,1.774,3.174,3.174,0,0,0,.222,2.488,5.585,5.585,0,0,0,.767,1.1c-.417.466-.859.912-1.307,1.351-2.375,2.329-5.673,4.836-9.23,4.155a14.963,14.963,0,0,0,3.371-4.183,6.094,6.094,0,0,0,.827-2.971,4.316,4.316,0,0,0-.913-2.235c-1.64-1.234-3.771-3.95-6.107-2.937-2.493,1.093-2.848,4.658-2.225,6.93a9.436,9.436,0,0,0,.8,1.991,7.165,7.165,0,0,0,.413.726c-.292.272-.6.552-.9.825a15.909,15.909,0,0,1-3.409,2.481,5.437,5.437,0,0,1-3.831.577c-1.056-.935-2.191-1.78-3.322-2.624-1.082-.8-2.125-1.63-3.554-1.469a5.992,5.992,0,0,0-3.173,1.618,18.739,18.739,0,0,0-4.588,6.56,21.022,21.022,0,0,0-1.316,3.891c-.15.67-.742,2.385-.227,2.966.591.673,3.6,1.464,3.542,2.442.222-3.913,2.245-8.289,4.548-11.386,1.078-1.451,2.534-2.98,4.395-3.3,1.316-.227,1.8.316,2.724,1.167a13.483,13.483,0,0,0,3.839,2.715c3.1,1.3,5.492-.69,7.761-2.607.724-.615.742-.791,1.564-.215.446.309.866.622,1.283.87a7.012,7.012,0,0,0,4.439.909c2.877-.359,5.369-2.168,7.344-4.191.2-.21.393-.413.588-.627.439-.506.5-.137.976.214a10.647,10.647,0,0,0,2.214,1.341c1.9.791,3.423.12,4.875-1.2.986,1.6,2.977,2.589,4.443,3.7a4.754,4.754,0,0,0,2.149.589,5.289,5.289,0,0,0,3.206-1.572c.764,1.779,2.992,2.71,4.465,3.814a5.143,5.143,0,0,0,2.454.518c.637-.053,1.259-.246,1.895-.36s.953.318,1.466.682a54.122,54.122,0,0,0,6.194,3.764C637.1,279.093,636.177,277.742,634.785,277.017Zm-43.9-15.926a9.355,9.355,0,0,1-2.16,4.193A4.882,4.882,0,0,1,590.889,261.091Z" transform="translate(-561.922 -148.818)" fill="#7cde3e"/>
            <path id="Path_3544" data-name="Path 3544" d="M617.8,273.243c.286-1.216.836-2.51-.123-3.573a20.077,20.077,0,0,0-2.636-2.141,5.393,5.393,0,0,0-2.621-1.377c-1.263-.123-2.411.615-3.591.9-.316-1.391-.2-2.824-.412-4.23a4.449,4.449,0,0,0-.923-2.23c-.065-.067-4.395-3.253-4.653-3.3a3.214,3.214,0,0,0-1.628.094c-1.391.413-2.56,1.35-3.916,1.847a11.381,11.381,0,0,1,.593-4.073c.255-.808.982-1.473.222-2.057-.294-.227-3.392-2.139-3.284-2.361a11.076,11.076,0,0,0-1.138,5.466A4.741,4.741,0,0,0,596,260.428c1.07.731,2.334,1.868,3.645,1.854,1.943-.008,3.494-1.637,5.285-2.194.254,2.493-.458,5.148,1.8,6.855a24.269,24.269,0,0,0,3.863,2.876c1.232.629,2.592.039,3.812-.338-.289,1.246-.848,2.946.311,3.824a26.465,26.465,0,0,0,4.369,2.807,3.473,3.473,0,0,0,1.806-.275C620.159,276.151,618.36,273.641,617.8,273.243Z" transform="translate(-539.421 -153.872)" fill="url(#linear-gradient-10)"/>
            <path id="Path_3545" data-name="Path 3545" d="M607.55,246.182c.2.2-.483-.178-.483-.178a5.008,5.008,0,0,1,.229-.928c.224-.646.521-1.266.757-1.9a4.615,4.615,0,0,0,.374-1.91,2.488,2.488,0,0,0-.227-.93c-.046-.106-.249-.311-.34-.446-.041-.043-.078-.085-.126-.132-.27-.26-.533-.516-.8-.776-.856-.646-1.712-1.3-2.568-1.934a9.578,9.578,0,0,0-1.591-.22c-.916.055-1.8.318-2.7.444.067-3.241,5.828-8.161,2.01-10.911-1.145-.861-2.295-1.748-3.441-2.619a6.534,6.534,0,0,0-2.954-.591,22.039,22.039,0,0,0-3.6.542,12.162,12.162,0,0,1-3.585.3,7.552,7.552,0,0,1-.116-4.147A24.565,24.565,0,0,1,589.611,216c.258-.661,1.167-1.888.48-2.445-.374-.3-3.552-1.963-3.392-2.39-1,2.712-2.418,5.521-2.112,8.492.337,3.277,2.886,4.873,5.48,6.431,2.929,1.755,6.577-.126,9.657-.26.248,3.041-2.908,5.281-3.341,8.19-.254,1.681.856,2.739,2.026,3.757,1.9,1.656,3.674,2.717,6.237,2.144-.422,1.239-1.278,2.421-1.285,3.764-.009,1.632,1.608,2.607,2.821,3.38a7.182,7.182,0,0,0,3.46,1.517c.453.285,2.014.965,2.073,1.517a2.784,2.784,0,0,0-.46-1.117C610.031,248.055,608.791,247.112,607.55,246.182Z" transform="translate(-545.891 -181.913)" fill="url(#linear-gradient-11)"/>
            <path id="Path_3546" data-name="Path 3546" d="M628.971,241.092c-.255,1.032-.492,2.2-.689,3.306-.319,1.722-.29,2.677.851,4.055-1.364.873-2.854,1-3.658,2.531a20.431,20.431,0,0,0-1.242,3.385c-.511,1.63-1.866,5.529.145,6.679-.413-.243.706-3.064.812-3.462.164-.641.275-.89-.231-1.3-.953-.791.672-2.073,1.454-2.382a5.6,5.6,0,0,0,2.695-1.572,6.789,6.789,0,0,0,1.418-2.7c.449-1.961.9-4.053-.4-5.709,1.227-.477,2.536-.678,3.73-1.254a4.556,4.556,0,0,0,2.324-2.414c.366-1.893,1.083-3.805.885-5.758a11.175,11.175,0,0,0-1.114-3.234,7.7,7.7,0,0,1,2.86-.853c1.828-.248,3.689-.138,5.521-.408,1.661-.244,4.109-1.338,4.263-2.944.289-1.49.574-2.987.861-4.477.417-1.9-2.5-3.426-3.921-4.314-.94-.586-1.924-1.112-2.828-1.753a9.97,9.97,0,0,1-1.216-1c-.634-.625-.878-.806-.079-1.357,4.289-2.961,9.536-.909,13.194,2.061-.544-.448.716-2.954.861-3.494.23-.846.1-1.027-.61-1.55a17.092,17.092,0,0,0-3.159-1.868,10.721,10.721,0,0,0-6.6-.928c-1.973.439-4.677,2.156-4.9,4.14-.54,2.812-1.868,5.627.668,7.832,2.035,1.772,4.8,2.6,6.734,4.5-2.382,1.237-5.364,1.041-7.966,1.269-2.536.229-4.084,1.066-4.6,3.7-.2,1.008-.236,2.047-.454,3.052-.446,1.3.771,3.363,1.225,4.62a12.051,12.051,0,0,1-4.01,1.62C630.749,239.419,629.263,239.884,628.971,241.092Z" transform="translate(-518.42 -184.027)" fill="url(#linear-gradient-12)"/>
            <path id="Path_3547" data-name="Path 3547" d="M622.7,225.38c.109-1.287.584-3.024.853-4.441-.147.646-.06-.743-.084-.928a4.812,4.812,0,0,0-.465-1.57,28.357,28.357,0,0,0-2.095-3.055,10.382,10.382,0,0,1-.906-1.6,6.107,6.107,0,0,1,1.306-.871,12.031,12.031,0,0,1,3.14-.974c.443-.082,2.235-.1,2.467-.454a3.453,3.453,0,0,0,.284-1.43c.034-.354.024-2.973.48-3.04-2.491.354-6.293.784-7.621,3.272a12.4,12.4,0,0,0-.957,3.527,9.089,9.089,0,0,0-.108,4.046,10.834,10.834,0,0,0,2.249,3.791,8.494,8.494,0,0,1,1.145,1.82,19.261,19.261,0,0,1-1.333,1.651c-.8.938-1.811,1.905-1.982,3.176-.144,1.1.137,2.459-.506,3.433C620.031,229.5,622.036,228.1,622.7,225.38Z" transform="translate(-521.781 -184.854)" fill="url(#linear-gradient-13)"/>
            <path id="Path_3548" data-name="Path 3548" d="M622.244,220.639a7.644,7.644,0,0,0,1.189-2.375c-.128.572-.041-.817-.065-1a4.813,4.813,0,0,0-.465-1.57,28.3,28.3,0,0,0-2.095-3.055,10.416,10.416,0,0,1-.906-1.6c.053-.05.118-.1.176-.143a1.036,1.036,0,0,0-.173.121,4.026,4.026,0,0,0-.63.779,6.3,6.3,0,0,0-.554,1.3,6.448,6.448,0,0,0,.173,2.016,10.837,10.837,0,0,0,2.248,3.791A8.37,8.37,0,0,1,622.244,220.639Z" transform="translate(-521.682 -182.106)" fill="#a63b4a" opacity="0.6" style="mix-blend-mode: multiply;isolation: isolate"/>
            <path id="Path_3549" data-name="Path 3549" d="M632.471,258.668a8.988,8.988,0,0,0-.073-1.768,4.619,4.619,0,0,0-1.246-2.107,5.247,5.247,0,0,0,2.613-.214c.933-.436,1.046-1.4,1.282-2.3a13.883,13.883,0,0,0,.639-3.176,8.212,8.212,0,0,0-1.343-3.672c1.266-.83,3.72-.615,3.9-2.384.065-.629-.256-3.234.479-3.534-2.432.974-4.615,1.215-5.181,4.2-.417,2.223-1.213,4.5-.061,6.6-1.44.162-4.063-.836-5,.642a6.44,6.44,0,0,0-.506,2.262,20.986,20.986,0,0,0-.271,3.511,3.1,3.1,0,0,0,.921.912,10.124,10.124,0,0,1,2.126,2.189c-1.745.566-4.123.193-5.041,2.16-.723,1.548-1.018,5.587-1.02,5.654a15.245,15.245,0,0,0,.031,1.6,13.837,13.837,0,0,0,.574,3.142,10.132,10.132,0,0,0,3.171,4.9c-.584-.48.844-3.27.953-3.908.144-.81-.685-1.165-1.153-1.731a11.963,11.963,0,0,1-2.025-3.556,13.138,13.138,0,0,1-.485-1.606c-.221-.909.024-1.1.9-1.425,1.264-.477,2.888-.272,4.046-.976C632.19,263.189,632.284,260.209,632.471,258.668Z" transform="translate(-517.449 -161.821)" fill="url(#linear-gradient-14)"/>
            <path id="Path_3550" data-name="Path 3550" d="M661.807,250.6c-.019.167-.034.337-.053.507.094-.5.188-.988.3-1.478.179-.8.323-.707,1.128-.911a21.422,21.422,0,0,0,3.5-1.194,6.861,6.861,0,0,0,3.882-3.9,24.4,24.4,0,0,0,1.254-5.815,8.739,8.739,0,0,0-2.233-7.327c.5.5-.41,2.139-.595,2.645a5.807,5.807,0,0,0-.391,1.36c-.072.666.613,1.075.964,1.568a8.361,8.361,0,0,1,1.126,2.278c.343,1.1.444,1.7-.3,2.6a9.052,9.052,0,0,1-4.412,2.7c-.725.229-1.452.408-2.182.562-.453.1-.907.174-1.362.253a5.7,5.7,0,0,0-.581-1.423,8.357,8.357,0,0,0-4.067-3.376c-1.5-.615-3.551-.441-4.291,1.225a19.3,19.3,0,0,0-.646,5.377,3.493,3.493,0,0,0,.39,1.087,3.664,3.664,0,0,0,1.909,1.545,11.941,11.941,0,0,0,6.267.219c-1.252,1.753-3.819,4.114-6.139,4.053-2.161-.061-3.9-1.934-5.307-3.376a21.152,21.152,0,0,1-.735,3.028c-.448,1.3-.072,1.572.8,2.546.859.952,4.1,4.507,3.051,5.839a5.8,5.8,0,0,1-4.926,2.05c-2.148-.1-3.61-1.117-5.433-2.069a28.684,28.684,0,0,1-.647,2.864c-.225.774-.588,1.459.145,1.972a7.884,7.884,0,0,1,2.293,1.9,4.317,4.317,0,0,1,.589,1.094c.183.562-.465,1.032-.8,1.445a6.956,6.956,0,0,1-4.094,2.327,7.209,7.209,0,0,1-2.554,0,6.871,6.871,0,0,1-1.054-.285c-.253-.1-.976-.559-.93-.367-.01-.017-.422,1.767-.5,2.2-.285.918-.707,1.8-.193,2.681.249.434.516.871.76,1.319a7.589,7.589,0,0,1-1.036.791c-.618.395-1.589.868-2.274.347.7.533-1.155,3.53-.967,4.4.2.947,2.207-.222,2.57-.446.974-.588,2.677-1.705,2.87-5.039.031-.516-.07-.988.525-.931a7.155,7.155,0,0,0,1.03.005,7.384,7.384,0,0,0,3.795-1.456c2.62-1.934,3.457-5.247,3.752-8.338A6.621,6.621,0,0,0,650.52,267a5.876,5.876,0,0,0,1.736-1.55A6.456,6.456,0,0,0,653,264.19a50.072,50.072,0,0,0,1.237-5.107c.041-.3.068-.6.091-.909.043-.726.255-.41.873-.547a5.85,5.85,0,0,0,2.011-.924A10.524,10.524,0,0,0,661.807,250.6Zm-7.084-6.7a6.021,6.021,0,0,1,3.281.856A6.716,6.716,0,0,1,654.723,243.9Z" transform="translate(-512.653 -168.223)" fill="url(#linear-gradient-15)"/>
            <path id="Path_3551" data-name="Path 3551" d="M578.146,232.7a7.545,7.545,0,0,0-1.538-1.017c-2.465-.511-4.615,1.061-6.148,2.877a33.938,33.938,0,0,0-4.048,6.621c-.289.549,3.11,3.144,3.92,2.942a3.167,3.167,0,0,1,.337-1.223c.273-.531.547-1.063.839-1.586a25.265,25.265,0,0,1,1.9-3.017,8.979,8.979,0,0,1,5.639-3.817A2.87,2.87,0,0,0,578.146,232.7Z" transform="translate(-558.753 -167.444)" fill="#00a290" opacity="0.8" style="mix-blend-mode: multiply;isolation: isolate"/>
            <path id="Path_3552" data-name="Path 3552" d="M588.12,235.307a4.916,4.916,0,0,0-2.327-2.575,4.058,4.058,0,0,0-1.194.008,8.064,8.064,0,0,0-2.934,1.177c-1.926,1.145-3.542,2.934-5.579,3.856a3.306,3.306,0,0,0,.364,2.023,4.986,4.986,0,0,0,.721.931,3.153,3.153,0,0,0,2.225.111C582.738,239.846,584.59,235.869,588.12,235.307Z" transform="translate(-551.899 -166.658)" fill="#00a290" opacity="0.8" style="mix-blend-mode: multiply;isolation: isolate"/>
            <path id="Path_3553" data-name="Path 3553" d="M595.458,238.359a5.521,5.521,0,0,0-.945-1.577.213.213,0,0,1-.056-.123,6.56,6.56,0,0,0-4.475-1.013c-1.794.243-3.17,2.148-4.62,3.089a3.115,3.115,0,0,0,2.635,3.24c1.686-.593,2.968-2.254,4.509-3.079A5.047,5.047,0,0,1,595.458,238.359Z" transform="translate(-545.312 -164.61)" fill="#00a290" opacity="0.8" style="mix-blend-mode: multiply;isolation: isolate"/>
            <path id="Path_3554" data-name="Path 3554" d="M604.331,244.75a5.184,5.184,0,0,0-2.525-2.508,5.906,5.906,0,0,0-1.833-.441c-2.385-.176-4.624.941-6.992,1.011a4.62,4.62,0,0,0,1.832,2.423c.173.058.347.113.516.157a7.607,7.607,0,0,0,2.855.044c1.191-.176,2.358-.5,3.547-.7a10.467,10.467,0,0,1,1.745-.157C603.931,244.577,604.172,244.584,604.331,244.75Z" transform="translate(-539.913 -160.216)" fill="#00a290" opacity="0.8" style="mix-blend-mode: multiply;isolation: isolate"/>
            <path id="Path_3555" data-name="Path 3555" d="M606.428,249.852a4.617,4.617,0,0,0-.427-.466,6.619,6.619,0,0,0-3.115-.591c-.453.012-.912.183-1.117-.05a.417.417,0,0,1-.075.046,3.242,3.242,0,0,0,.518,1.379,3.9,3.9,0,0,0,1.275,1.14,8.881,8.881,0,0,0,1.939.256c.525.026,1.046.02,1.574.046A2.632,2.632,0,0,0,606.428,249.852Z" transform="translate(-533.739 -155.282)" fill="#00a290" opacity="0.8" style="mix-blend-mode: multiply;isolation: isolate"/>
            <path id="Path_3556" data-name="Path 3556" d="M608.766,256.867a6.8,6.8,0,0,1-1.524-2.8c-.005.513-.007,1.034.032,1.557.036.434.08.871.149,1.3a8.65,8.65,0,0,1,.721,1.162c.407.807.4,1.635,1.162,2.185.644.471,2.939,1.413,3.11,2.192C611.917,260.192,610.239,258.555,608.766,256.867Z" transform="translate(-529.808 -151.508)" fill="#00a290" opacity="0.8" style="mix-blend-mode: multiply;isolation: isolate"/>
            <path id="Path_3557" data-name="Path 3557" d="M576.627,267.614c-.757-.774-1.49-1.635-2.29-2.4l-.289-.215c-1.081-.8-2.125-1.63-3.554-1.469a5.994,5.994,0,0,0-3.173,1.618,17.692,17.692,0,0,0-4.077,5.488c1,1.581,1.75,3.441,2.782,4.875a26.041,26.041,0,0,1,3.255-5.891c1.078-1.451,2.534-2.98,4.395-3.3,1.316-.227,1.8.316,2.724,1.167.241.229.492.456.745.672C576.976,267.978,576.8,267.8,576.627,267.614Z" transform="translate(-560.985 -144.82)" fill="url(#linear-gradient-16)"/>
            <path id="Path_3558" data-name="Path 3558" d="M576.855,267.666a7.944,7.944,0,0,0,1.206-1.034,15.018,15.018,0,0,0,1.107-1.389,4.941,4.941,0,0,1,2.056-4.082,4.04,4.04,0,0,0-1.944-3.272,2.6,2.6,0,0,0-1.375.2c-2.493,1.094-2.848,4.658-2.225,6.93a9.44,9.44,0,0,0,.8,1.991C576.592,267.229,576.724,267.452,576.855,267.666Z" transform="translate(-552.364 -148.816)" fill="url(#linear-gradient-17)"/>
            <path id="Path_3559" data-name="Path 3559" d="M585.136,264.209a17.83,17.83,0,0,0,1.114-1.6,5.139,5.139,0,0,0,.991-2.532,1.7,1.7,0,0,0-.545-1.263,3.3,3.3,0,0,0-1.082.068,2.665,2.665,0,0,0-1.44,1.773,3.174,3.174,0,0,0,.222,2.488A5.539,5.539,0,0,0,585.136,264.209Z" transform="translate(-546.265 -148.153)" fill="url(#linear-gradient-18)"/>
            <path id="Path_3560" data-name="Path 3560" d="M586.45,266.649a24.719,24.719,0,0,1-2.442-2.061,7.776,7.776,0,0,1-5.179,1.078c-.216.2-.422.4-.625.6.184-.012.386.087.759.345.446.309.866.622,1.283.87a7.012,7.012,0,0,0,4.439.909,9.548,9.548,0,0,0,2.942-.89C587.214,267.219,586.828,266.924,586.45,266.649Z" transform="translate(-550.384 -144.055)" fill="url(#linear-gradient-19)"/>
            <path id="Path_3561" data-name="Path 3561" d="M596.223,269.07a4.96,4.96,0,0,1-1.695-2.284.782.782,0,0,1-.089-.258,5.48,5.48,0,0,1-.2-1.111,14.423,14.423,0,0,1-.065-1.528,6.524,6.524,0,0,0,.058-1.264c-.507.478-1.082.906-1.555,1.353a15.053,15.053,0,0,0-1.28,1.42c.993,1.557,2.947,2.525,4.383,3.619a3.135,3.135,0,0,0,.967.4A3.775,3.775,0,0,1,596.223,269.07Z" transform="translate(-541.037 -145.446)" fill="url(#linear-gradient-20)"/>
            <path id="Path_3562" data-name="Path 3562" d="M600.394,267.671a14.065,14.065,0,0,0-.26-2.657c-.905-.668-2.146.555-3.021,1.536.656,1.427,2.259,2.3,3.614,3.18A5.345,5.345,0,0,1,600.394,267.671Z" transform="translate(-536.985 -143.888)" fill="url(#linear-gradient-21)"/>
            <path id="Path_3563" data-name="Path 3563" d="M589.159,263.14a4.02,4.02,0,0,1-1.842.448,4.345,4.345,0,0,0-.431.774c.154.044.285.251.554.449a10.645,10.645,0,0,0,2.214,1.341,3.738,3.738,0,0,0,2.925.07A5.289,5.289,0,0,1,589.159,263.14Z" transform="translate(-544.232 -145.081)" fill="url(#linear-gradient-22)"/>
            <path id="Path_3564" data-name="Path 3564" d="M604.073,262.752c-.21-1.249-.145-2.534-.33-3.788a4.584,4.584,0,0,0-.562-1.7,2.437,2.437,0,0,0-.174-.251,4.119,4.119,0,0,0-1.374-.7,2.177,2.177,0,0,0-1.369-.058c.248,2.488-.448,5.128,1.8,6.83a36.826,36.826,0,0,0,3.1,2.426A6.129,6.129,0,0,1,604.073,262.752Z" transform="translate(-534.752 -150.017)" fill="#b14026" opacity="0.6" style="mix-blend-mode: multiply;isolation: isolate"/>
            <path id="Path_3565" data-name="Path 3565" d="M609.36,265.551c.244-1.035.676-2.125.208-3.082a2.818,2.818,0,0,0-1.3-.687,3.51,3.51,0,0,0-2.4.041.971.971,0,0,1,.106-.034c-.289,1.246-.847,2.946.311,3.824a26.481,26.481,0,0,0,4.369,2.807,3.475,3.475,0,0,0,1.806-.275C611.723,268.459,609.924,265.949,609.36,265.551Z" transform="translate(-530.985 -146.18)" fill="#b14026" opacity="0.6" style="mix-blend-mode: multiply;isolation: isolate"/>
            <path id="Path_3566" data-name="Path 3566" d="M598.311,261.7a4.489,4.489,0,0,1-.955-2.5,10.029,10.029,0,0,1,.53-4.048c.255-.808.982-1.473.222-2.057-.294-.227-3.392-2.139-3.284-2.361a11.076,11.076,0,0,0-1.138,5.466A4.741,4.741,0,0,0,596,260.428a13.706,13.706,0,0,0,2.626,1.652A4.1,4.1,0,0,1,598.311,261.7Z" transform="translate(-539.421 -153.872)" fill="#b14026" opacity="0.6" style="mix-blend-mode: multiply;isolation: isolate"/>
            <path id="Path_3567" data-name="Path 3567" d="M632.439,225.99a6.607,6.607,0,0,0-.012-1.088,10.823,10.823,0,0,0-1.089-3.178,1.713,1.713,0,0,0-.212.173,4.225,4.225,0,0,0-1.28,2.032c.012,1.237.89,2.823,1.287,3.884A4.7,4.7,0,0,0,632.439,225.99Z" transform="translate(-513.788 -174.431)" fill="#b14026" opacity="0.6" style="mix-blend-mode: multiply;isolation: isolate"/>
            <path id="Path_3568" data-name="Path 3568" d="M627.95,232.921a11.117,11.117,0,0,0,1.029-1.175,4.222,4.222,0,0,0-.832-2.631,2.7,2.7,0,0,0-1.992,1.384,3.712,3.712,0,0,0,.955,3.086A6.379,6.379,0,0,0,627.95,232.921Z" transform="translate(-516.427 -169.194)" fill="#b14026" opacity="0.6" style="mix-blend-mode: multiply;isolation: isolate"/>
            <path id="Path_3569" data-name="Path 3569" d="M624.843,235.693a5.287,5.287,0,0,0-1.322,1.715c-.343,1.64-.395,3.426.858,4.143-.413-.243.706-3.064.812-3.462.164-.641.275-.89-.231-1.3A.772.772,0,0,1,624.843,235.693Z" transform="translate(-518.42 -164.531)" fill="#b14026" opacity="0.6" style="mix-blend-mode: multiply;isolation: isolate"/>
            <path id="Path_3570" data-name="Path 3570" d="M638.871,215.57c-.94-.586-1.924-1.112-2.828-1.753a9.973,9.973,0,0,1-1.217-1c-.383-.381-.62-.595-.569-.827a5.32,5.32,0,0,0-1.478,1.37,4.383,4.383,0,0,0,1.423,4.294c2.016,1.746,4.738,2.582,6.662,4.441a5.825,5.825,0,0,0,1.871-1.936c.017-.1.037-.183.056-.272C643.21,217.983,640.291,216.459,638.871,215.57Z" transform="translate(-511.762 -181.331)" fill="#b14026" opacity="0.6" style="mix-blend-mode: multiply;isolation: isolate"/>
            <path id="Path_3571" data-name="Path 3571" d="M626.24,257.241a13.142,13.142,0,0,1-.485-1.606,1.313,1.313,0,0,1-.024-.8,1.957,1.957,0,0,0-.8,1.092,8.622,8.622,0,0,0-.255,1.628c.009.279.016.554.039.836a13.817,13.817,0,0,0,.574,3.142,10.131,10.131,0,0,0,3.171,4.9c-.584-.48.844-3.27.953-3.908.143-.81-.685-1.165-1.153-1.731A11.966,11.966,0,0,1,626.24,257.241Z" transform="translate(-517.449 -150.968)" fill="#a63b4a" opacity="0.6" style="mix-blend-mode: multiply;isolation: isolate"/>
            <path id="Path_3572" data-name="Path 3572" d="M629.916,248.538a2.343,2.343,0,0,0-.326-.039.274.274,0,0,1-.173-.08,2.987,2.987,0,0,0-1.331.311,2.938,2.938,0,0,0-1.587,1.816,3.671,3.671,0,0,0,.835.789,10.391,10.391,0,0,1,2.069,2.112.465.465,0,0,1,.215.015,3.246,3.246,0,0,0,1.058-.8c.186-.231.357-.482.526-.731a9.865,9.865,0,0,0-.094-1.334A4.627,4.627,0,0,0,629.916,248.538Z" transform="translate(-516.16 -155.514)" fill="#a63b4a" opacity="0.6" style="mix-blend-mode: multiply;isolation: isolate"/>
            <path id="Path_3573" data-name="Path 3573" d="M629.523,244.565a5.462,5.462,0,0,0,.53,3.206,3.618,3.618,0,0,0,2.23-1.147,7.923,7.923,0,0,0-1.311-3.6A3.811,3.811,0,0,0,629.523,244.565Z" transform="translate(-514.046 -159.339)" fill="#a63b4a" opacity="0.6" style="mix-blend-mode: multiply;isolation: isolate"/>
            <path id="Path_3574" data-name="Path 3574" d="M648.753,241.019a10.52,10.52,0,0,0,4.535-.316,5.592,5.592,0,0,0-.552-1.345,8.358,8.358,0,0,0-4.067-3.376c-1.5-.615-3.55-.441-4.29,1.225-.019.053-.041.106-.06.159a3.085,3.085,0,0,0,1.34,2.862A5.894,5.894,0,0,1,648.753,241.019Z" transform="translate(-503.536 -164.557)" fill="#00a290" opacity="0.8" style="mix-blend-mode: multiply;isolation: isolate"/>
            <path id="Path_3575" data-name="Path 3575" d="M655.285,238.335a3.494,3.494,0,0,1,.234,1.517,4.733,4.733,0,0,0,.412-.748c.171-.384.319-.779.465-1.177.009-.041.014-.079.019-.116a8.739,8.739,0,0,0-2.233-7.327c.5.5-.41,2.139-.595,2.645a5.819,5.819,0,0,0-.391,1.36c-.072.666.613,1.075.964,1.568A8.361,8.361,0,0,1,655.285,238.335Z" transform="translate(-497.246 -168.223)" fill="#00a290" opacity="0.8" style="mix-blend-mode: multiply;isolation: isolate"/>
            <path id="Path_3576" data-name="Path 3576" d="M643.228,253.166c-.034.456-.538.853-.827,1.2a6.955,6.955,0,0,1-4.094,2.327,7.209,7.209,0,0,1-2.555,0,6.9,6.9,0,0,1-1.054-.285c-.125-.051-.36-.188-.564-.287a14.939,14.939,0,0,1,1.022,5.326.415.415,0,0,1,.365-.085,7.139,7.139,0,0,0,1.03.005,7.384,7.384,0,0,0,3.795-1.456,8.659,8.659,0,0,0,3.009-4.511,17.9,17.9,0,0,0-.065-2.117A.729.729,0,0,1,643.228,253.166Z" transform="translate(-510.749 -152.149)" fill="#00a290" opacity="0.8" style="mix-blend-mode: multiply;isolation: isolate"/>
            <path id="Path_3577" data-name="Path 3577" d="M636.143,261.451a4.062,4.062,0,0,0-.275-2.571c-.063-.123-.135-.241-.2-.373a7.129,7.129,0,0,1-.969.74c-.618.395-1.589.868-2.274.347.7.533-1.155,3.53-.967,4.4.2.947,2.207-.222,2.57-.446A5.374,5.374,0,0,0,636.143,261.451Z" transform="translate(-512.653 -148.364)" fill="#00a290" opacity="0.8" style="mix-blend-mode: multiply;isolation: isolate"/>
            <path id="Path_3578" data-name="Path 3578" d="M643.435,250.726c-2.1-.1-3.547-1.073-5.316-2.008.7,1.145,1.246,2.372,1.852,3.573a17.078,17.078,0,0,1,1.306,2.843,6.613,6.613,0,0,0,4.516-.644,5.881,5.881,0,0,0,1.736-1.55,6.775,6.775,0,0,0,.726-1.227,11.308,11.308,0,0,0,.342-3.573C647.819,249.992,645.272,250.815,643.435,250.726Z" transform="translate(-507.926 -155.71)" fill="#00a290" opacity="0.8" style="mix-blend-mode: multiply;isolation: isolate"/>
            <path id="Path_3579" data-name="Path 3579" d="M652.992,241.538c-1.274,1.75-3.795,4.029-6.077,3.969a5.99,5.99,0,0,1-3.667-1.763c.574.87,1.054,1.8,1.386,2.43a15.689,15.689,0,0,1,1.692,3.853,2.082,2.082,0,0,0,.511-.044,5.851,5.851,0,0,0,2.011-.924,10.527,10.527,0,0,0,4.6-6.1c-.019.167-.034.337-.053.507.094-.5.188-.988.3-1.478.1-.443.19-.612.381-.709C653.715,241.377,653.357,241.47,652.992,241.538Z" transform="translate(-504.291 -160.577)" fill="#00a290" opacity="0.8" style="mix-blend-mode: multiply;isolation: isolate"/>
            <path id="Path_3580" data-name="Path 3580" d="M587.468,224.019a2.3,2.3,0,0,0,1.037-.044,7.565,7.565,0,0,1-.108-4.128A24.565,24.565,0,0,1,589.611,216c.258-.661,1.167-1.888.48-2.445-.374-.3-3.552-1.963-3.392-2.39-1,2.712-2.418,5.521-2.112,8.492a6.021,6.021,0,0,0,1.478,3.41A3.742,3.742,0,0,0,587.468,224.019Z" transform="translate(-545.891 -181.913)" fill="#b14026" opacity="0.6" style="mix-blend-mode: multiply;isolation: isolate"/>
            <path id="Path_3581" data-name="Path 3581" d="M595.187,231.171c.06-2.73,4.148-6.654,3.164-9.464a8.221,8.221,0,0,0-2.5-1.681,4.806,4.806,0,0,0-1.022-.25c.212,3.014-2.9,5.247-3.337,8.14-.226,1.5.629,2.5,1.647,3.429A5.437,5.437,0,0,0,595.187,231.171Z" transform="translate(-540.996 -175.811)" fill="#b14026" opacity="0.6" style="mix-blend-mode: multiply;isolation: isolate"/>
            <path id="Path_3582" data-name="Path 3582" d="M598.453,234.213a4.243,4.243,0,0,0,.808-.077,6.182,6.182,0,0,1,.231-.9c.224-.646.521-1.266.757-1.9a4.617,4.617,0,0,0,.374-1.91,2.245,2.245,0,0,0-.107-.579,3.4,3.4,0,0,0-3.672-.767c-.42,1.232-1.278,2.421-1.285,3.764a2.626,2.626,0,0,0,.723,1.774A4.86,4.86,0,0,0,598.453,234.213Z" transform="translate(-538.086 -170.076)" fill="#b14026" opacity="0.6" style="mix-blend-mode: multiply;isolation: isolate"/>
            <path id="Path_3583" data-name="Path 3583" d="M645.5,260.311c-.9.415-2.373,2.373-3.474,1.864.33.157-.8,3.492-.87,3.885-.378,1.9,2.794-.755,3.318-1.1a9.236,9.236,0,0,1,4.207-1.172c.9-.075,2.343.426,2.553-.644.075-.371.405-3.983.671-3.983A15.13,15.13,0,0,0,645.5,260.311Z" transform="translate(-505.793 -147.901)" fill="#7cde3e"/>
            <path id="Path_3584" data-name="Path 3584" d="M644.408,229.848c-2.948-1.287-6.2.443-8.943,1.447-.415.157-.39,1.893-.463,2.281-.07.357-.057,2.153-.419,2.278,2.749-1,6-2.729,8.945-1.447C642.962,234.162,645.037,230.123,644.408,229.848Z" transform="translate(-510.432 -168.998)" fill="url(#linear-gradient-23)"/>
            <path id="Path_3585" data-name="Path 3585" d="M581.775,251.464c.909.906,2.72.125,3.8.056a6.139,6.139,0,0,1,5.15,1.686c-.311-.361.371-1.943.487-2.39.331-1.292.8-2.081-.475-2.935a7.416,7.416,0,0,0-4.516-.909c-1.032.079-2.7.794-3.569-.068.3.3-.388,1.888-.461,2.279C582.1,249.6,581.439,251.131,581.775,251.464Z" transform="translate(-547.92 -156.587)" fill="url(#linear-gradient-24)"/>
            <path id="Path_3586" data-name="Path 3586" d="M599.359,273.631a7.5,7.5,0,0,0-5.152.42c-.906.361-2.548,1.548-3.541.965.79.456-1.727,4.072-.876,4.557,1.015.593,2.754-.677,3.7-1.034a7.319,7.319,0,0,1,4.988-.35C598.057,278.033,599.852,273.805,599.359,273.631Z" transform="translate(-542.3 -137.857)" fill="#7cde3e"/>
            <path id="Path_3587" data-name="Path 3587" d="M577.583,284.68c-.113.6.073,1.84-.422,2.285a17.663,17.663,0,0,1,3.715-2.56,19.625,19.625,0,0,1,2.064-.9c.395-.149,1.69-.316,1.823-.726.155-.47.4-4.282.778-4.379a18.476,18.476,0,0,0-5.714,2.609c-.61.41-1.744,1.011-1.965,1.763C577.675,283.383,577.708,284.042,577.583,284.68Z" transform="translate(-551.124 -134.269)" fill="url(#linear-gradient-25)"/>
            <path id="Path_3588" data-name="Path 3588" d="M667.283,255.1c1.1.313,1.336,1.844,1.917,2.664.413.584,2.469,1.64,3.052.738.42-.659.024-4.306.753-4.451-1.9.381-2.706-.911-3.672-2.271a2.981,2.981,0,0,0-1.658-1.317c-1.245-.3-1.866.632-2.67,1.394-2.455,2.329-5.07-.232-7.414-1.218a3.682,3.682,0,0,0-3.87.357c-.774.554-2.681,2.026-2.72,2.865-.166.856-.54,1.659-.678,2.537-.123.8-.178,1.628-.224,2.424.085-1.688,2.325-3.253,3.771-3.745,1.895-.644,3.467.28,5.066,1.222,1.483.875,3.04,1.567,4.6.484C664.674,255.982,665.716,254.649,667.283,255.1Zm-17.073,2.862c.026-.128.041-.248.072-.371C650.256,257.717,650.236,257.835,650.21,257.964Z" transform="translate(-499.436 -154.211)" fill="url(#linear-gradient-26)"/>
            <path id="Path_3589" data-name="Path 3589" d="M582.454,245.113c.525-3-7.489-4.374-8-1.384C573.926,246.718,581.934,248.1,582.454,245.113Z" transform="translate(-553.059 -160.019)" fill="url(#linear-gradient-27)"/>
            <path id="Path_3590" data-name="Path 3590" d="M579.882,252.225c-.907.319-2.824,1.343-2.383,2.611s2.58.87,3.494.548,2.824-1.341,2.377-2.611S580.788,251.907,579.882,252.225Z" transform="translate(-550.93 -153.043)" fill="#7cde3e"/>
            <path id="Path_3591" data-name="Path 3591" d="M578.4,275.054c.63-.752,1.578-2.314.868-3.289-.9-1.239-2.836.424-3.433,1.148-.634.755-1.58,2.31-.865,3.284C575.87,277.434,577.806,275.775,578.4,275.054Z" transform="translate(-552.855 -139.285)" fill="url(#linear-gradient-28)"/>
            <path id="Path_3592" data-name="Path 3592" d="M651.633,229.439c.9-.395,2.435-1.381,2.228-2.573-.26-1.505-2.731-.866-3.587-.484-.9.391-2.435,1.379-2.23,2.572C648.308,230.455,650.779,229.816,651.633,229.439Z" transform="translate(-500.905 -171.461)" fill="#7cde3e"/>
            <path id="Path_3593" data-name="Path 3593" d="M632.311,218.863c.926-1.2,2.38-3.838,1.058-5.256-1.551-1.656-4.29.926-5.181,2.093-.926,1.2-2.38,3.833-1.054,5.252C628.681,222.609,631.419,220.03,632.311,218.863Z" transform="translate(-516.088 -180.564)" fill="url(#linear-gradient-29)"/>
            <path id="Path_3594" data-name="Path 3594" d="M621.388,232.788c2.172.6,3.761-5.181,1.611-5.779C620.827,226.4,619.235,232.19,621.388,232.788Z" transform="translate(-520.506 -170.716)" fill="url(#linear-gradient-30)"/>
            <path id="Path_3595" data-name="Path 3595" d="M641.081,223.669c-1.519-1.639-5.939,2.421-4.412,4.077C638.19,229.381,642.608,225.321,641.081,223.669Z" transform="translate(-509.177 -173.323)" fill="#7cde3e"/>
            <path id="Path_3596" data-name="Path 3596" d="M653.7,247.937c.178,2.235,6.16,1.767,5.985-.468S653.529,245.7,653.7,247.937Z" transform="translate(-496.884 -157.223)" fill="url(#linear-gradient-31)"/>
            <path id="Path_3597" data-name="Path 3597" d="M666.075,258.374c-1.353-.461-4.521-1.029-5.172.856s2.206,3.381,3.563,3.841,4.521,1.035,5.165-.848S667.423,258.839,666.075,258.374Z" transform="translate(-491.847 -148.781)" fill="#7cde3e"/>
            <path id="Path_3598" data-name="Path 3598" d="M577.7,222.32a1.089,1.089,0,0,0-.525-2.114A1.089,1.089,0,0,0,577.7,222.32Z" transform="translate(-551.679 -175.532)" fill="#ff7426"/>
            <path id="Path_3599" data-name="Path 3599" d="M591.233,210.154a1.261,1.261,0,0,0,.793-2.389A1.261,1.261,0,1,0,591.233,210.154Z" transform="translate(-541.831 -184.383)" fill="#ff7426"/>
            <path id="Path_3600" data-name="Path 3600" d="M590.764,203.8a1.007,1.007,0,0,0-.49-1.948A1.007,1.007,0,0,0,590.764,203.8Z" transform="translate(-542.321 -188.537)" fill="#00cdbc"/>
            <path id="Path_3601" data-name="Path 3601" d="M584.4,204.614c.7.14,1.035-.824.325-1.035C584.082,203.375,583.706,204.47,584.4,204.614Z" transform="translate(-546.256 -187.307)" fill="#00cdbc"/>
            <path id="Path_3602" data-name="Path 3602" d="M564.374,233.465a1.254,1.254,0,0,0-.608-2.431A1.254,1.254,0,0,0,564.374,233.465Z" transform="translate(-561.263 -167.863)" fill="#ff7426"/>
            <path id="Path_3603" data-name="Path 3603" d="M567.008,245.927a.963.963,0,0,0-.473-1.866A.963.963,0,0,0,567.008,245.927Z" transform="translate(-559.152 -158.625)" fill="#ff7426"/>
            <path id="Path_3604" data-name="Path 3604" d="M566.471,256.922a1.279,1.279,0,0,0-.627-2.478A1.279,1.279,0,0,0,566.471,256.922Z" transform="translate(-559.804 -151.275)" fill="#00cdbc"/>
            <path id="Path_3605" data-name="Path 3605" d="M568.393,252.1a.935.935,0,0,0,1.813-.454A.935.935,0,0,0,568.393,252.1Z" transform="translate(-557.359 -153.705)" fill="#00cdbc"/>
            <path id="Path_3606" data-name="Path 3606" d="M619.249,206.49a1.265,1.265,0,0,0-.619-2.452A1.265,1.265,0,0,0,619.249,206.49Z" transform="translate(-522.386 -186.994)" fill="#ff7426"/>
            <path id="Path_3607" data-name="Path 3607" d="M629.309,207.68a1.109,1.109,0,0,0-.543-2.149A1.109,1.109,0,0,0,629.309,207.68Z" transform="translate(-515.124 -185.933)" fill="#ff7426"/>
            <path id="Path_3608" data-name="Path 3608" d="M615.778,213.531a.743.743,0,0,0-.364-1.44A.743.743,0,0,0,615.778,213.531Z" transform="translate(-524.4 -181.275)" fill="#ff7426"/>
            <path id="Path_3609" data-name="Path 3609" d="M639.518,205.089a1.49,1.49,0,0,0-.721-2.889A1.49,1.49,0,0,0,639.518,205.089Z" transform="translate(-508.217 -188.303)" fill="#ff7426"/>
            <path id="Path_3610" data-name="Path 3610" d="M649.855,215.822a1.178,1.178,0,0,0-.574-2.284A1.178,1.178,0,0,0,649.855,215.822Z" transform="translate(-500.627 -180.261)" fill="#ff7426"/>
            <path id="Path_3611" data-name="Path 3611" d="M651.942,224.905a1.783,1.783,0,0,0-.872-3.457A1.783,1.783,0,0,0,651.942,224.905Z" transform="translate(-499.669 -174.669)" fill="url(#linear-gradient-32)"/>
            <path id="Path_3612" data-name="Path 3612" d="M655.155,223.71a.925.925,0,0,0-.454-1.792A.925.925,0,0,0,655.155,223.71Z" transform="translate(-496.651 -174.315)" fill="#ff7426"/>
            <path id="Path_3613" data-name="Path 3613" d="M659.8,226.56a1.073,1.073,0,0,0-2.081.521A1.073,1.073,0,0,0,659.8,226.56Z" transform="translate(-494.061 -171.557)" fill="#00cdbc"/>
            <path id="Path_3614" data-name="Path 3614" d="M663.855,244.677a1.046,1.046,0,0,0,.5,2.028A1.046,1.046,0,0,0,663.855,244.677Z" transform="translate(-490.224 -158.19)" fill="#ff7426"/>
            <path id="Path_3615" data-name="Path 3615" d="M668.488,250.166a1.22,1.22,0,0,0,.593,2.365A1.22,1.22,0,0,0,668.488,250.166Z" transform="translate(-487.03 -154.304)" fill="#00cdbc"/>
            <path id="Path_3616" data-name="Path 3616" d="M568.156,276.547a1.165,1.165,0,0,0,.569,2.259A1.165,1.165,0,0,0,568.156,276.547Z" transform="translate(-558.107 -135.609)" fill="#ff7426"/>
            <path id="Path_3617" data-name="Path 3617" d="M567.142,281.326a1.161,1.161,0,0,0,.567,2.25A1.161,1.161,0,0,0,567.142,281.326Z" transform="translate(-558.824 -132.221)" fill="#00cdbc"/>
            <path id="Path_3618" data-name="Path 3618" d="M573.481,280.63a.887.887,0,0,0,.434,1.719A.887.887,0,0,0,573.481,280.63Z" transform="translate(-554.19 -132.709)" fill="#ff7426"/>
            <path id="Path_3619" data-name="Path 3619" d="M613.041,268.038a1.271,1.271,0,0,0,.622,2.464A1.271,1.271,0,0,0,613.041,268.038Z" transform="translate(-526.353 -141.641)" fill="#00cdbc"/>
            <path id="Path_3620" data-name="Path 3620" d="M614.957,265.023a1.148,1.148,0,0,0-2.226.554A1.148,1.148,0,0,0,614.957,265.023Z" transform="translate(-525.944 -144.34)" fill="#ff7426"/>
            <path id="Path_3621" data-name="Path 3621" d="M625.458,265.664a1.282,1.282,0,0,0,.627,2.484A1.282,1.282,0,0,0,625.458,265.664Z" transform="translate(-517.559 -143.324)" fill="#00cdbc"/>
            <path id="Path_3622" data-name="Path 3622" d="M624.7,263.29c.19-.612-.75-1.374-1.293-.888C622.474,263.222,624.314,264.55,624.7,263.29Z" transform="translate(-518.537 -145.713)" fill="#ff7426"/>
            <path id="Path_3623" data-name="Path 3623" d="M619.844,246.616c.1.989,1.533,1.447,1.844.326C622.083,245.48,619.713,245.347,619.844,246.616Z" transform="translate(-520.88 -157.406)" fill="#00cdbc"/>
            <path id="Path_3624" data-name="Path 3624" d="M622.784,243.179a1.1,1.1,0,0,0,2.131-.535A1.1,1.1,0,0,0,622.784,243.179Z" transform="translate(-518.819 -160.171)" fill="#00cdbc"/>
            <path id="Path_3625" data-name="Path 3625" d="M633.406,265.283a1.07,1.07,0,0,0,.526,2.073A1.07,1.07,0,0,0,633.406,265.283Z" transform="translate(-511.819 -143.589)" fill="#ff7426"/>
            <path id="Path_3626" data-name="Path 3626" d="M639.07,265.844a1.247,1.247,0,0,0,.6,2.418A1.247,1.247,0,0,0,639.07,265.844Z" transform="translate(-507.894 -143.196)" fill="#ff7426"/>
            <path id="Path_3627" data-name="Path 3627" d="M603.559,275.405c-.755.439.494,1.075.892.974C605.994,275.986,604.056,273.922,603.559,275.405Z" transform="translate(-532.585 -136.764)" fill="#ff7426"/>
            <path id="Path_3628" data-name="Path 3628" d="M599.835,277.683a.7.7,0,0,0,.342,1.35A.7.7,0,0,0,599.835,277.683Z" transform="translate(-535.415 -134.791)" fill="#ff7426"/>
            <path id="Path_3629" data-name="Path 3629" d="M621.768,273.672c-1.473-.087-1.627,2.442-.159,2.329C622.839,275.927,623.022,273.739,621.768,273.672Z" transform="translate(-520.353 -137.619)" fill="#00cdbc"/>
            <path id="Path_3630" data-name="Path 3630" d="M616.008,272.2a1.067,1.067,0,0,0,.521,2.069A1.067,1.067,0,0,0,616.008,272.2Z" transform="translate(-524.147 -138.684)" fill="#ff7426"/>
            <path id="Path_3631" data-name="Path 3631" d="M611.733,254.776a10.445,10.445,0,0,1-1.157-5.02A22.76,22.76,0,0,1,613,239.839c.147-.3.311-.583.472-.87a4.307,4.307,0,0,1,.227-.424c.039,0,.08,0,.12,0-1.034-.219-2.095-.376-3.118-.661-.538-.227-1.066-.475-1.613-.678a.452.452,0,0,1,0,.282c-.046.111-.13.272-.225.516a23.488,23.488,0,0,0-1.7,6.3c-.385,3.089,1.632,7.545,3.578,10.223C611.073,254.624,611.4,254.713,611.733,254.776Z" transform="translate(-529.899 -163.459)" fill="url(#linear-gradient-33)"/>
            <path id="Path_3632" data-name="Path 3632" d="M613.073,261.2a2.145,2.145,0,0,0,2.9.818c-.188-2.636,1.921-5.117,3.246-7.185a11.024,11.024,0,0,0,1.69-3.431,4.184,4.184,0,0,0-.19-2.037,5.687,5.687,0,0,0-2.1-.583,4.175,4.175,0,0,0-1.521.19c-.646,1.912-2.138,3.4-3.147,5.1a8.464,8.464,0,0,0-1.305,6.286,2.925,2.925,0,0,0,.285.723A.263.263,0,0,1,613.073,261.2Z" transform="translate(-526.105 -155.263)" fill="url(#linear-gradient-34)"/>
            <path id="Path_3633" data-name="Path 3633" d="M622.451,257.69a2.249,2.249,0,0,0-.627-.292,3.975,3.975,0,0,0-2,0c-.07,1.854-1.305,3.332-2.068,4.943a11.529,11.529,0,0,0,2.927,6.343,8.384,8.384,0,0,1,.074-1.116c.273-2.115,1.572-3.68,2.363-5.6A3.582,3.582,0,0,0,622.451,257.69Z" transform="translate(-522.357 -149.241)" fill="url(#linear-gradient-35)"/>
        </g>
    </g>
</svg>
