<svg viewBox="0 0 36.25 37.15" xmlns="http://www.w3.org/2000/svg" xmlns:xlink="http://www.w3.org/1999/xlink"><linearGradient id="a" gradientUnits="userSpaceOnUse" x1="16.56" x2="18.62" y1="26.79" y2="19.28"><stop offset="0" stop-color="#bcbec0"/><stop offset=".27" stop-color="#e6e7e8"/><stop offset=".67" stop-color="#bcbec0"/><stop offset="1" stop-color="#939598"/></linearGradient><linearGradient id="b" gradientUnits="userSpaceOnUse" x1="22.54" x2="24.68" y1="19" y2="30.05"><stop offset="0" stop-color="#bcbec0"/><stop offset=".35" stop-color="#e6e7e8"/><stop offset=".67" stop-color="#bcbec0"/><stop offset="1" stop-color="#939598"/></linearGradient><linearGradient id="c" gradientUnits="userSpaceOnUse" x1="18.45" x2="7.78" y1="24.18" y2="31.81"><stop offset="0" stop-color="#d1d3d4"/><stop offset=".5" stop-color="#e6e7e8"/><stop offset="1" stop-color="#bcbec0"/></linearGradient><linearGradient id="d" gradientUnits="userSpaceOnUse" x1="17.7" x2="28.29" y1="24.14" y2="31.81"><stop offset="0" stop-color="#f1f2f2"/><stop offset=".5" stop-color="#fff"/><stop offset="1" stop-color="#e6e7e8"/></linearGradient><linearGradient id="e" gradientTransform="matrix(.98 -.2 .2 .98 1234.26 78.23)" gradientUnits="userSpaceOnUse" x1="-834.6" x2="-835.57" y1="188.35" y2="191.76"><stop offset="0" stop-color="#ed1c24"/><stop offset=".53" stop-color="#cd1f2a"/><stop offset="1" stop-color="#851e2d"/></linearGradient><linearGradient id="f" gradientTransform="matrix(.98 -.2 .2 .98 1234.26 78.23)" gradientUnits="userSpaceOnUse" x1="-834.23" x2="-834.23" y1="186.14" y2="192.83"><stop offset="0" stop-color="#3f1e2d"/><stop offset=".22" stop-color="#5b1d2c"/><stop offset=".55" stop-color="#7f1b2c"/><stop offset=".83" stop-color="#961a2b"/><stop offset="1" stop-color="#9e1a2b"/></linearGradient><linearGradient id="g" x1="-836.69" x2="-837.11" xlink:href="#e" y1="189.95" y2="192.56"/><linearGradient id="h" gradientTransform="matrix(.98 -.2 .2 .98 1234.26 78.23)" gradientUnits="userSpaceOnUse" x1="-837.64" x2="-834.94" y1="190.49" y2="192.62"><stop offset="0" stop-color="#691e2d"/><stop offset=".08" stop-color="#701d2d"/><stop offset=".43" stop-color="#891c2c"/><stop offset=".75" stop-color="#991a2b"/><stop offset="1" stop-color="#9e1a2b"/></linearGradient><linearGradient id="i" gradientTransform="matrix(-.98 -.2 -.2 .98 1263.81 78.23)" x1="718.45" x2="717.47" xlink:href="#e" y1="503.33" y2="506.79"/><linearGradient id="j" gradientTransform="matrix(-.98 -.2 -.2 .98 1263.81 78.23)" gradientUnits="userSpaceOnUse" x1="718.8" x2="718.8" y1="498.26" y2="504.95"><stop offset="0" stop-color="#3f1e2d"/><stop offset=".09" stop-color="#4d1d2d"/><stop offset=".35" stop-color="#701c2c"/><stop offset=".6" stop-color="#891b2b"/><stop offset=".82" stop-color="#991a2b"/><stop offset="1" stop-color="#9e1a2b"/></linearGradient><linearGradient id="k" gradientTransform="matrix(-.98 -.2 -.2 .98 1263.81 78.23)" x1="716.34" x2="715.92" xlink:href="#e" y1="504.99" y2="507.61"/><linearGradient id="l" gradientTransform="matrix(-.98 -.2 -.2 .98 1263.81 78.23)" x1="715.39" x2="718.09" xlink:href="#h" y1="505.54" y2="507.66"/><linearGradient id="m" gradientUnits="userSpaceOnUse" x1="5.85" x2="18.45" y1="8.23" y2="9.35"><stop offset="0" stop-color="#929497"/><stop offset=".79" stop-color="#bcbdbf"/><stop offset=".99" stop-color="#a7a8ab"/></linearGradient><linearGradient id="n" gradientUnits="userSpaceOnUse" x1="29.15" x2="18.79" y1="8.28" y2="9.26"><stop offset="0" stop-color="#929497"/><stop offset="1" stop-color="#bcbdbf"/></linearGradient><linearGradient id="o" gradientUnits="userSpaceOnUse" x1="17.99" x2="29.04" y1="6.78" y2="6.78"><stop offset="0" stop-color="#f1f1f1"/><stop offset=".5" stop-color="#fff"/><stop offset="1" stop-color="#e6e6e6"/></linearGradient><linearGradient id="p" gradientUnits="userSpaceOnUse" x1="6.89" x2="17.99" y1="6.78" y2="6.78"><stop offset="0" stop-color="#d1d2d3"/><stop offset=".5" stop-color="#e6e6e6"/><stop offset="1" stop-color="#bcbdbf"/></linearGradient><linearGradient id="q" x1="448.72" x2="449.95" xlink:href="#e" y1="438.91" y2="433.24"/><linearGradient id="r" gradientTransform="matrix(-1 0 0 1 2498.07 0)" x1="2033.33" x2="2034.55" xlink:href="#e" y1="438.91" y2="433.24"/><linearGradient id="s" x1="443.5" x2="443.5" xlink:href="#e" y1="440.72" y2="445.53"/><linearGradient id="t" x1="447.73" x2="447.73" xlink:href="#e" y1="440.72" y2="445.53"/><linearGradient id="u" x1="452.33" x2="452.33" xlink:href="#e" y1="440.72" y2="445.53"/><linearGradient id="v" x1="456.38" x2="456.38" xlink:href="#e" y1="440.72" y2="445.53"/><linearGradient id="w" x1="460.54" x2="460.54" xlink:href="#e" y1="440.72" y2="445.53"/><linearGradient id="x" x1="463.5" x2="463.5" xlink:href="#e" y1="440.72" y2="445.53"/><linearGradient id="y" x1="466.44" x2="466.44" xlink:href="#e" y1="440.72" y2="445.53"/><linearGradient id="z" x1="470.47" x2="470.47" xlink:href="#e" y1="440.72" y2="445.53"/><path d="m7.46 21.33 10.62 2.13 10.57-2.13-10.57-2.07z" fill="url(#a)"/><path d="m18.08 19.25v4.75l10.34-2.66z" fill="url(#b)"/><path d="m18.08 23.46v11.69l-10.62-3.99v-9.83z" fill="url(#c)"/><path d="m18.08 23.46v11.69l10.57-3.99v-9.83z" fill="url(#d)"/><path d="m15.35 22.91v11.22l1.12.42v-11.41z" fill="#d41c24"/><path d="m13.01 22.44v10.81l1.08.4v-10.99z" fill="#d41c24"/><path d="m10.71 21.98v10.4l1 .38v-10.58z" fill="#d41c24"/><path d="m8.58 21.55v10.03l.86.33v-10.18z" fill="#d41c24"/><path d="m19.69 23.14v11.41l1.12-.43v-11.21z" fill="#ed1c24"/><path d="m22.07 22.66v10.99l1.08-.41v-10.8z" fill="#ed1c24"/><path d="m24.45 22.18v10.57l1-.38v-10.4z" fill="#ed1c24"/><path d="m26.72 21.72v10.17l.86-.32v-10.03z" fill="#ed1c24"/><path d="m7.46 21.34 10.62-2.09 10.57 2.09" fill="none" stroke="#e6e7e8" stroke-linecap="round" stroke-linejoin="round" stroke-width="4"/><path d="m7.46 21.33 10.62 2.13 10.57-2.13" fill="none" stroke="#fff" stroke-linecap="round" stroke-linejoin="round" stroke-width="4"/><path d="m18.08 23.46v11.69" fill="none" stroke="#fff" stroke-linecap="round" stroke-linejoin="round" stroke-width="4"/><path d="m456.48 432.45a4.89 4.89 0 0 1 -.79-1.12c-.21-.54-.32-1.58-.47-2.14a.93.93 0 0 0 -1.07-.7c-.81.12-1.79.28-2.43.45a1.82 1.82 0 0 0 -1 2c.31 1.22 1.37 1.37 2 1.6a13.51 13.51 0 0 0 3.76-.09z" fill="url(#e)" transform="translate(-438.75 -427.7)"/><path d="m456.22 432.35a2.84 2.84 0 0 1 -.78-1.05c-.23-.59-.16-2.13-.7-2.47a.88.88 0 0 0 -1.18.29 1.73 1.73 0 0 0 -.26 1.69 2.33 2.33 0 0 0 1.07 1.31 3 3 0 0 0 1.85.23z" fill="url(#f)" transform="translate(-438.75 -427.7)"/><path d="m454.32 428.71a.8.8 0 0 1 .42.12c.54.34.47 1.88.7 2.47a2.84 2.84 0 0 0 .78 1.05 3.24 3.24 0 0 1 -.6 0 2.69 2.69 0 0 1 -1.25-.28 2.33 2.33 0 0 1 -1.07-1.31 1.73 1.73 0 0 1 .26-1.69 1 1 0 0 1 .76-.41m0-.23a1.21 1.21 0 0 0 -.94.49 2 2 0 0 0 -.3 1.92 2.63 2.63 0 0 0 1.18 1.44 3.06 3.06 0 0 0 1.36.31 3 3 0 0 0 .65-.07l.47-.11-.38-.3a2.52 2.52 0 0 1 -.7-1 4.84 4.84 0 0 1 -.16-.84c-.1-.72-.2-1.46-.63-1.73a1 1 0 0 0 -.55-.16z" fill="#ff4b33" transform="translate(-438.75 -427.7)"/><path d="m449.6 431.16a1.18 1.18 0 0 0 -.49 1.34 1.64 1.64 0 0 0 1.34 1.1 14 14 0 0 0 3.46-.59l1.29-.34a6.42 6.42 0 0 1 -1.7-.66c-.51-.34-.42-1.08-1.05-1.23a5.71 5.71 0 0 0 -1.62.13 5.47 5.47 0 0 0 -1.23.25z" fill="url(#g)" transform="translate(-438.75 -427.7)"/><path d="m455.36 432.64a4.3 4.3 0 0 1 -2.09-.58c-.4-.33-.43-1.16-1-1.15s-1 .94-.5 1.66a1.25 1.25 0 0 0 1.36.57c.53-.14 2.23-.5 2.23-.5z" fill="url(#h)" transform="translate(-438.75 -427.7)"/><path d="m457 432.45a4.89 4.89 0 0 0 .79-1.12c.2-.54.25-1.65.4-2.21a.92.92 0 0 1 1.07-.7 22.81 22.81 0 0 1 2.44.45 2.09 2.09 0 0 1 1.06 2.1c-.31 1.22-1.37 1.37-2 1.6a13.51 13.51 0 0 1 -3.76-.12z" fill="url(#i)" transform="translate(-438.75 -427.7)"/><path d="m457.25 432.35a2.76 2.76 0 0 0 .77-1.05c.24-.59.17-2.13.71-2.47a.88.88 0 0 1 1.18.29 1.73 1.73 0 0 1 .26 1.69 2.33 2.33 0 0 1 -1.07 1.31 3 3 0 0 1 -1.85.23z" fill="url(#j)" transform="translate(-438.75 -427.7)"/><path d="m463.87 431.16a1.18 1.18 0 0 1 .49 1.34 1.64 1.64 0 0 1 -1.34 1.1 14 14 0 0 1 -3.46-.59l-1.29-.34a6.56 6.56 0 0 0 1.73-.67c.5-.34.42-1.08 1-1.23a5.71 5.71 0 0 1 1.62.13 5.47 5.47 0 0 1 1.25.26z" fill="url(#k)" transform="translate(-438.75 -427.7)"/><path d="m458.11 432.64a4.3 4.3 0 0 0 2.09-.58c.4-.33.43-1.16 1-1.15s1 .94.51 1.66a1.25 1.25 0 0 1 -1.36.57c-.54-.14-2.24-.5-2.24-.5z" fill="url(#l)" transform="translate(-438.75 -427.7)"/><path d="m6.89 9.27 11.1-2.23 11.06 2.23z" fill="#818284"/><path d="m17.99 10.28v-1.93l-11.1-.65v1.57z" fill="url(#m)"/><path d="m29.05 9.27v-1.57l-11.06.65v1.93z" fill="url(#n)"/><path d="m17.99 7.04v-2.75l11.06 3.41v1.57z" fill="url(#o)"/><path d="m17.99 7.04v-2.75l-11.1 3.41v1.57z" fill="url(#p)"/><path d="m15.07 5.19v2.44l1.2-.24v-2.56z" fill="#d32027"/><path d="m12.59 5.96v2.17l1.14-.23v-2.3z" fill="#d32027"/><path d="m10.13 6.71v1.91l1.07-.21v-2.03z" fill="#d32027"/><path d="m7.87 7.4v1.68l.92-.19v-1.77z" fill="#d32027"/><path d="m19.7 4.82v2.57l1.19.24v-2.44z" fill="#eb2027"/><path d="m22.23 5.6v2.3l1.15.23v-2.17z" fill="#eb2027"/><path d="m24.77 6.38v2.03l1.06.21v-1.91z" fill="#eb2027"/><path d="m27.18 7.13v1.77l.92.18v-1.67z" fill="#eb2027"/><path d="m6.89 9.27 11.1-2.23 11.06 2.23" fill="none" stroke="#fff" stroke-linecap="round" stroke-linejoin="round" stroke-width="4"/><path d="m17.99 4.3v2.75" fill="none" stroke="#fff" stroke-linecap="round" stroke-linejoin="round" stroke-width="4"/><g transform="translate(-438.75 -427.7)"><path d="m449.43 439.79a8.49 8.49 0 0 0 1-3.43 9.66 9.66 0 0 1 -.21-2c.06-.34 1.26-.75 2-1l2.07-.7s-1 .2-2 .46-1.48.32-2 .41-2 0-2.28.48.57 1.29.43 2.37a15.16 15.16 0 0 1 -1.35 2.83l.11.14 1.74-1.34.27 1.67z" fill="#910029"/><path d="m449.26 439.72a8.79 8.79 0 0 0 1-3.47 9.09 9.09 0 0 1 -.19-1.93c.17-.9 2.36-1.18 1.67-1a3.81 3.81 0 0 1 -2 0c-.55.09-1.42.11-1.75.56s.19 1.39 0 2.47a20.23 20.23 0 0 1 -.89 2.91l1.54-1.33z" fill="url(#q)"/><path d="m464 439.79a8.49 8.49 0 0 1 -1-3.43 9.66 9.66 0 0 0 .21-2c-.06-.34-1.26-.75-2-1-1.25-.41-2.07-.7-2.07-.7s1 .2 2 .46 1.48.32 2 .41 2 0 2.28.48-.57 1.29-.43 2.37a15.16 15.16 0 0 0 1.35 2.83l-.11.14-1.74-1.34-.27 1.67z" fill="#910029"/><path d="m464.21 439.72a8.92 8.92 0 0 1 -1-3.47 8.5 8.5 0 0 0 .2-1.93c-.18-.9-2.36-1.18-1.67-1a3.81 3.81 0 0 0 2 0c.55.09 1.42.11 1.75.56s-.19 1.39-.05 2.47a20.23 20.23 0 0 0 .89 2.91l-1.54-1.33z" fill="url(#r)"/><path d="m442.17 444.12a2.83 2.83 0 0 0 1.38.45c.39 0 .55-.23.55-.45s-.05-.35-.43-.51l-.8-.34a1.36 1.36 0 0 1 -1-1.26 1.52 1.52 0 0 1 1.66-1.43 3.82 3.82 0 0 1 1.6.39 1.23 1.23 0 0 1 -.37.82 3.36 3.36 0 0 0 -1.22-.33c-.4 0-.55.22-.55.4s.1.31.4.43l.82.35a1.47 1.47 0 0 1 1 1.35c0 .82-.6 1.45-1.79 1.45a3.45 3.45 0 0 1 -1.73-.5 1.32 1.32 0 0 1 .48-.82z" fill="url(#s)"/><path d="m449.57 443.62a1.84 1.84 0 0 1 -3.68 0v-2.93l.05-.05h.4c.41 0 .64.2.64.69v2.31c0 .62.2.94.75.94s.75-.32.75-.94v-2.95a2.6 2.6 0 0 1 .54 0 2.74 2.74 0 0 1 .55 0z" fill="url(#t)"/><path d="m453.05 443.37a1 1 0 0 1 .53.63l.2.58a1.06 1.06 0 0 0 .34.5.94.94 0 0 1 -.72.32c-.4 0-.53-.21-.67-.62l-.25-.72a.54.54 0 0 0 -.57-.42h-.28v1.7a2.74 2.74 0 0 1 -.55 0 2.69 2.69 0 0 1 -.54 0v-4.62-.05h1.64c.94 0 1.65.45 1.65 1.48a1.32 1.32 0 0 1 -.78 1.22zm-1.42-.57h.5c.52 0 .64-.32.64-.66s-.12-.66-.64-.66h-.5z" fill="url(#u)"/><path d="m456.36 443.88h-.54v1.46a2.55 2.55 0 0 1 -.54 0 2.79 2.79 0 0 1 -.55 0v-4.62-.05h1.58a1.62 1.62 0 1 1 0 3.23zm-.54-.81h.45c.54 0 .65-.45.65-.78s-.11-.79-.65-.79h-.45z" fill="url(#v)"/><path d="m461.26 443.37a1 1 0 0 1 .52.63l.21.58a1 1 0 0 0 .34.5 1 1 0 0 1 -.73.32c-.39 0-.52-.21-.66-.62l-.25-.72a.54.54 0 0 0 -.58-.42h-.28v1.7a2.6 2.6 0 0 1 -.54 0 2.69 2.69 0 0 1 -.54 0v-4.62l.05-.05h1.63c.95 0 1.66.45 1.66 1.48a1.32 1.32 0 0 1 -.83 1.22zm-1.43-.57h.51a.58.58 0 0 0 .64-.66c0-.36-.13-.66-.64-.66h-.51z" fill="url(#w)"/><path d="m463 440.69a2.79 2.79 0 0 1 .55 0 2.69 2.69 0 0 1 .55 0v4.65a2.69 2.69 0 0 1 -.55 0 2.79 2.79 0 0 1 -.55 0z" fill="url(#x)"/><path d="m465.11 444.12a2.83 2.83 0 0 0 1.38.45c.4 0 .55-.23.55-.45s-.05-.35-.43-.51l-.8-.34a1.35 1.35 0 0 1 -1-1.26 1.51 1.51 0 0 1 1.65-1.43 3.82 3.82 0 0 1 1.6.39 1.22 1.22 0 0 1 -.36.82 3.47 3.47 0 0 0 -1.23-.33c-.4 0-.55.22-.55.4s.11.31.41.43l.81.35a1.47 1.47 0 0 1 1 1.35c0 .82-.6 1.45-1.79 1.45a3.39 3.39 0 0 1 -1.72-.5 1.31 1.31 0 0 1 .48-.82z" fill="url(#y)"/><path d="m472 444.84a.62.62 0 0 1 -.7.52h-1.81a.58.58 0 0 1 -.63-.63v-4h.05 2.94a2.29 2.29 0 0 1 0 .43 1.58 1.58 0 0 1 -.1.48h-1.75v.49.48h1.5a1.45 1.45 0 0 1 0 .89h-1.5v.5.49h2.09a2.89 2.89 0 0 1 -.09.35z" fill="url(#z)"/><path d="m471.79 462.45a.45.45 0 1 1 .8-.4c.09.62-.5.71-.8.4z" fill="#27aae1" fill-rule="evenodd"/><path d="m458.39 440.24c-.41.09-.52-.13-.79-.2 0-.35.34-.45.79-.39z" fill="#ffab17" fill-rule="evenodd"/><path d="m446.39 461.24c.27-.33.5-.22.75-.34a.94.94 0 0 0 .22.59c-.36.37-.68.19-.97-.25z" fill="#ffab17" fill-rule="evenodd"/><path d="m441.66 448.52c.27-.32.5-.22.75-.34a.94.94 0 0 0 .22.59c-.37.37-.63.23-.97-.25z" fill="#8dc63f" fill-rule="evenodd"/><path d="m471.55 432.07c.27-.32.5-.22.75-.34a.89.89 0 0 0 .22.59c-.37.37-.69.19-.97-.25z" fill="#8dc63f" fill-rule="evenodd"/><path d="m474.19 437.84c.39-.33.25 0 .79 0a.42.42 0 1 1 -.79 0z" fill="#ffab17" fill-rule="evenodd"/><path d="m443.43 429c.4-.33.26 0 .8 0a.43.43 0 1 1 -.8 0z" fill="#ffab17" fill-rule="evenodd"/><path d="m442.14 464.1a.89.89 0 0 0 .2-.59 1 1 0 0 0 .6.2c.06.62-.5.71-.8.39z" fill="#ff5370" fill-rule="evenodd"/><path d="m453.12 446.89c-.42.09-.53-.13-.8-.19.05-.35.34-.46.8-.4z" fill="#27aae1" fill-rule="evenodd"/><path d="m445.32 447.51c-.42.09-.53-.14-.8-.2a.89.89 0 0 0 .2-.59c.53-.06.66.28.6.79z" fill="#ff5370" fill-rule="evenodd"/><path d="m470.84 435.81c-.41.08-.52-.14-.79-.2a1 1 0 0 0 .2-.6c.52-.01.65.28.59.8z" fill="#27aae1" fill-rule="evenodd"/><path d="m439.16 443.93c.54 0 .4-.33.79 0a.42.42 0 1 1 -.79 0z" fill="#ff5370" fill-rule="evenodd"/><path d="m470.23 455.37c.55 0 .4-.33.8 0a.43.43 0 1 1 -.8 0z" fill="#8dc63f" fill-rule="evenodd"/><path d="m453.93 436.84c.39-.33.25 0 .79 0a.42.42 0 1 1 -.79 0z" fill="#ff5370" fill-rule="evenodd"/><path d="m474.68 442.84a1 1 0 0 0 -.19.6.92.92 0 0 0 -.6-.2c-.09-.62.5-.71.79-.4z" fill="#27c087" fill-rule="evenodd"/><path d="m472.4 445.63c.41-.09.52.13.79.2-.05.35-.34.45-.79.39z" fill="#27aae1" fill-rule="evenodd"/><path d="m464.55 464.14c.42-.09.53.13.8.2-.05.35-.34.45-.8.39z" fill="#9e1f63" fill-rule="evenodd"/><path d="m468 430.14c.42-.09.53.13.8.2-.05.35-.34.45-.8.39z" fill="#9e1f63" fill-rule="evenodd"/><path d="m444.43 451.86c.42-.09.53.13.8.2-.05.35-.34.45-.8.4z" fill="#9e1f63" fill-rule="evenodd"/><path d="m460 438.6c.42-.08.53.14.8.2-.05.35-.34.45-.8.4z" fill="#ed1c24" fill-rule="evenodd"/><path d="m443.59 432.13c.42-.08.53.14.8.2-.05.35-.34.46-.8.4z" fill="#ed1c24" fill-rule="evenodd"/><path d="m469.92 453.9c-.41.08-.52-.14-.79-.2.05-.35.34-.45.79-.4z" fill="#ffab17" fill-rule="evenodd"/><path d="m473.94 449.08c.41-.08.52.14.79.2 0 .35-.34.45-.79.4z" fill="#ed1c24" fill-rule="evenodd"/><path d="m447.53 427.72c.41-.08.52.14.79.2a1 1 0 0 0 -.2.6c-.52.06-.65-.28-.59-.8z" fill="#27aae1" fill-rule="evenodd"/><path d="m444 457.39c.42-.09.53.13.8.2a1 1 0 0 0 -.2.59c-.5.06-.6-.27-.6-.79z" fill="#27aae1" fill-rule="evenodd"/><path d="m467.15 463.51c-.54 0-.4.33-.79 0a.42.42 0 1 1 .79 0z" fill="#27c087" fill-rule="evenodd"/><path d="m439.56 454.26c-.54 0-.4.34-.79 0a.42.42 0 1 1 .79 0z" fill="#27c087" fill-rule="evenodd"/><path d="m443.1 438c-.54 0-.4.33-.79 0a.42.42 0 1 1 .79 0z" fill="#27c087" fill-rule="evenodd"/><path d="m465.75 447.89c-.39.33-.25 0-.79 0a.42.42 0 1 1 .79 0z" fill="#27c087" fill-rule="evenodd"/><path d="m442.54 455.21c-.39.33-.25 0-.79 0a.42.42 0 1 1 .79 0z" fill="#fff" fill-rule="evenodd"/><path d="m473.72 455.06c-.39.33-.25 0-.79 0a.42.42 0 1 1 .79 0z" fill="#fff" fill-rule="evenodd"/><path d="m441.5 433.25c-.39.34-.25 0-.79 0a.42.42 0 1 1 .79 0z" fill="#fff" fill-rule="evenodd"/><path d="m465.44 430.42c-.41.08-.52-.14-.79-.2.05-.35.34-.46.79-.4z" fill="#fff" fill-rule="evenodd"/><path d="m469.1 428.8c.27-.33.5-.23.74-.35a.94.94 0 0 0 .22.59c-.37.38-.68.2-.96-.24z" fill="#fff" fill-rule="evenodd"/></g></svg>