<svg xmlns="http://www.w3.org/2000/svg" width="68.663" height="93.761" viewBox="0 0 68.663 93.761">
    <g id="Group_2873" data-name="Group 2873" opacity="0.65">
        <g id="Group_2866" data-name="Group 2866" transform="translate(6.326)">
            <g id="Group_2860" data-name="Group 2860" transform="translate(0 7.852)">
                <g id="Group_2859" data-name="Group 2859">
                    <rect id="Rectangle_682" data-name="Rectangle 682" width="56.791" height="21.327" rx="10.664" transform="translate(0 13.366)" fill="#c5d9ff"/>
                    <circle id="Ellipse_1176" data-name="Ellipse 1176" cx="14.997" cy="14.997" r="14.997" transform="translate(13.399)" fill="#599af2"/>
                </g>
            </g>
            <g id="Group_2861" data-name="Group 2861" transform="translate(0 0)">
                <rect id="Rectangle_683" data-name="Rectangle 683" width="56.791" height="21.327" rx="10.664" transform="translate(0 18.076)" fill="#599af2"/>
                <circle id="Ellipse_1177" data-name="Ellipse 1177" cx="14.997" cy="14.997" r="14.997" transform="translate(8.689 11.868) rotate(-23.309)" fill="#599af2"/>
            </g>
            <g id="Group_2863" data-name="Group 2863" transform="translate(0 0)" opacity="0.35">
                <g id="Group_2862" data-name="Group 2862">
                    <rect id="Rectangle_684" data-name="Rectangle 684" width="56.791" height="21.327" rx="10.664" transform="translate(0 18.076)" fill="#ecf1f7"/>
                    <circle id="Ellipse_1178" data-name="Ellipse 1178" cx="14.997" cy="14.997" r="14.997" transform="translate(8.689 11.868) rotate(-23.309)" fill="#ecf1f7"/>
                </g>
            </g>
            <g id="Group_2865" data-name="Group 2865" transform="translate(20.062 16.801)">
                <g id="Group_2864" data-name="Group 2864" transform="translate(4.136)">
                    <path id="Path_6080" data-name="Path 6080" d="M238.209,109.727a.69.69,0,0,1-.483-1.182l4.025-3.957,3.961,3.961a.69.69,0,0,1-.976.976l-2.993-2.993-3.049,3A.687.687,0,0,1,238.209,109.727Z" transform="translate(-237.52 -104.589)" fill="#fff"/>
                    <path id="Path_6081" data-name="Path 6081" d="M250.917,115.953a.69.69,0,0,1-.69-.69V106.3a.69.69,0,0,1,1.38,0v8.964A.69.69,0,0,1,250.917,115.953Z" transform="translate(-246.72 -105.328)" fill="#fff"/>
                </g>
                <path id="Path_6082" data-name="Path 6082" d="M237.386,139.694H224.24a1.711,1.711,0,0,1-1.709-1.709v-4.776a.69.69,0,1,1,1.38,0v4.776a.33.33,0,0,0,.329.329h13.146a.433.433,0,0,0,.432-.432v-4.673a.69.69,0,0,1,1.38,0v4.673A1.814,1.814,0,0,1,237.386,139.694Z" transform="translate(-222.531 -124.811)" fill="#fff"/>
            </g>
        </g>
        <g id="Group_2868" data-name="Group 2868" transform="translate(0 34.438)">
            <path id="Path_6083" data-name="Path 6083" d="M190.96,216.256l-37.621,12.43a1.755,1.755,0,0,1-2.216-1.115l-12.43-37.621a1.754,1.754,0,0,1,1.115-2.216L177.43,175.3a1.754,1.754,0,0,1,2.216,1.115l12.43,37.621A1.754,1.754,0,0,1,190.96,216.256Z" transform="translate(-135.377 -173.361)" fill="#4c65ba" opacity="0.36"/>
            <rect id="Rectangle_685" data-name="Rectangle 685" width="43.13" height="43.13" rx="6.357" transform="translate(0 13.531) rotate(-18.283)" fill="#fff"/>
            <g id="Group_2867" data-name="Group 2867" transform="translate(4.616 4.648)">
                <rect id="Rectangle_686" data-name="Rectangle 686" width="35.784" height="35.784" transform="translate(0 11.226) rotate(-18.283)" fill="#c5d9ff"/>
                <path id="Path_6084" data-name="Path 6084" d="M176.6,276.114l-2.542-7.693,3.718-8.961a2.572,2.572,0,0,1,3.153-1.478l6.882,2.137a.919.919,0,0,0,1.063-.405l5.729-9.536a4.761,4.761,0,0,1,5.942-1.915l6.31,2.714.058.177,4.451,13.472-.393.129Zm-1.659-7.66,2.185,6.614L210.323,264.1l-4.133-12.509-5.968-2.568a3.93,3.93,0,0,0-4.9,1.581l-5.729,9.536a1.745,1.745,0,0,1-2.018.77l-6.881-2.137a1.748,1.748,0,0,0-2.143,1Z" transform="translate(-165.667 -230.622)" fill="#fff" opacity="0.47"/>
                <path id="Path_6085" data-name="Path 6085" d="M212.816,231.067a4.406,4.406,0,1,1,1.378-.223A4.411,4.411,0,0,1,212.816,231.067Zm-.006-7.98a3.576,3.576,0,1,0,3.4,2.454A3.554,3.554,0,0,0,212.811,223.087Z" transform="translate(-190.535 -212.071)" fill="#fff" opacity="0.47"/>
            </g>
        </g>
        <g id="Group_2870" data-name="Group 2870" transform="translate(34.115 49.559)">
            <rect id="Rectangle_687" data-name="Rectangle 687" width="32.879" height="32.879" rx="6.357" transform="translate(1.669 1.669)" fill="#4c65ba" opacity="0.36"/>
            <rect id="Rectangle_688" data-name="Rectangle 688" width="32.879" height="32.879" rx="6.357" fill="#fff"/>
            <g id="Group_2869" data-name="Group 2869" transform="translate(2.405 2.8)">
                <rect id="Rectangle_689" data-name="Rectangle 689" width="27.279" height="27.279" transform="translate(0.376)" fill="#f7a9b4" opacity="0.39"/>
                <path id="Path_6086" data-name="Path 6086" d="M287.354,292.39H259.247v-6.311l4.858-5.625a2.06,2.06,0,0,1,2.767-.331l4.47,3.193a.6.6,0,0,0,.745-.034l6.428-5.532a3.727,3.727,0,0,1,4.888.036l3.951,3.5Zm-27.279-.828h26.451v-9.9l-3.673-3.256a2.9,2.9,0,0,0-3.8-.028l-6.428,5.532a1.428,1.428,0,0,1-1.766.08l-4.47-3.193a1.236,1.236,0,0,0-1.66.2l-4.656,5.392Z" transform="translate(-259.247 -264.874)" fill="#fff" opacity="0.47"/>
                <path id="Path_6087" data-name="Path 6087" d="M307.06,255.963a3.455,3.455,0,1,1,3.455-3.455A3.459,3.459,0,0,1,307.06,255.963Zm0-6.083a2.628,2.628,0,1,0,2.627,2.628A2.63,2.63,0,0,0,307.06,249.88Z" transform="translate(-291.364 -244.743)" fill="#fff" opacity="0.47"/>
            </g>
        </g>
        <g id="Group_2872" data-name="Group 2872" transform="translate(18.856 65.788)">
            <rect id="Rectangle_690" data-name="Rectangle 690" width="21.239" height="21.239" rx="6.357" transform="translate(1.388 8.083) rotate(-20.54)" fill="#4c65ba" opacity="0.36"/>
            <rect id="Rectangle_691" data-name="Rectangle 691" width="21.239" height="21.239" rx="6.357" transform="translate(0 7.452) rotate(-20.54)" fill="#fff"/>
            <g id="Group_2871" data-name="Group 2871" transform="translate(2.317 2.333)">
                <rect id="Rectangle_692" data-name="Rectangle 692" width="17.622" height="17.622" transform="matrix(0.936, -0.351, 0.351, 0.936, 0, 6.183)" fill="#599af2"/>
                <path id="Path_6088" data-name="Path 6088" d="M221.16,335.429l-1.5-4.006,1.683-4.555a1.476,1.476,0,0,1,1.774-.918l3.428.918a.243.243,0,0,0,.277-.118l2.634-4.8a2.557,2.557,0,0,1,3.147-1.152l3.245,1.247,2.59,6.914Zm-.618-4.008,1.1,2.942,15.726-5.892-2.169-5.79-2.9-1.114a1.724,1.724,0,0,0-2.123.778l-2.634,4.8a1.069,1.069,0,0,1-1.216.52l-3.428-.918a.65.65,0,0,0-.783.405Z" transform="translate(-215.237 -312.327)" fill="#fff" opacity="0.47"/>
                <path id="Path_6089" data-name="Path 6089" d="M237.355,313.53a2.379,2.379,0,1,1,2.225-3.213h0a2.379,2.379,0,0,1-2.225,3.213Zm0-3.93a1.551,1.551,0,1,0,1.454,1.007A1.546,1.546,0,0,0,237.35,309.6Z" transform="translate(-226.324 -303.744)" fill="#fff" opacity="0.47"/>
            </g>
        </g>
    </g>
</svg>
