<svg xmlns="http://www.w3.org/2000/svg" width="52.506" height="51.481" viewBox="0 0 52.506 51.481">
    <g id="ecommerce" transform="translate(0 -5)">
        <path id="Path_2501" data-name="Path 2501" d="M191,157.768h11.92L204.7,151H191Z" transform="translate(-171.413 -131.027)" fill="#212121"/>
        <path id="Path_2502" data-name="Path 2502" d="M46.247,5H6.26A6.267,6.267,0,0,0,0,11.26v28.2H52.506V11.26A6.267,6.267,0,0,0,46.247,5ZM21.331,35.971H18.869a1.538,1.538,0,0,1,0-3.077h2.461a1.538,1.538,0,0,1,0,3.077Zm10.665,0H29.535a1.538,1.538,0,0,1,0-3.077H32a1.538,1.538,0,0,1,0,3.077Zm4.521-16.2-2.188,8.338a2.294,2.294,0,0,1-2.217,1.71H18.8a2.3,2.3,0,0,1-2.292-2.292V14.64H13.186a1.538,1.538,0,0,1,0-3.077h4.863A1.539,1.539,0,0,1,19.587,13.1V16.9H34.3a2.292,2.292,0,0,1,2.217,2.873Z" fill="#212121"/>
        <path id="Path_2503" data-name="Path 2503" d="M6.26,377.563H16.368v4.307H11.486a1.538,1.538,0,1,0,0,3.077H41.021a1.538,1.538,0,1,0,0-3.077H36.138v-4.307H46.247A6.273,6.273,0,0,0,52.506,371H0A6.277,6.277,0,0,0,6.26,377.563Z" transform="translate(0 -328.466)" fill="#212121"/>
    </g>
</svg>
