<svg xmlns="http://www.w3.org/2000/svg" width="70.737" height="58.948" viewBox="0 0 70.737 58.948">
    <path id="binoculars" d="M69.7,37.03,58.3,6.705c0-.006,0-.012-.006-.018l0,0a10.315,10.315,0,0,0-19.971,3.632V23.579H32.421V10.316A10.317,10.317,0,0,0,12.446,6.688c0,.006,0,.012-.006.018L1.037,37.022a0,0,0,0,1,0,0,16.213,16.213,0,1,0,31.387,5.712V41.263h5.894v1.473A16.211,16.211,0,1,0,69.7,37.031ZM16.21,53.053A10.316,10.316,0,1,1,26.526,42.737,10.327,10.327,0,0,1,16.21,53.053Zm38.316,0A10.322,10.322,0,1,1,64.842,42.737,10.327,10.327,0,0,1,54.526,53.053Zm0,0" transform="translate(0 0)" fill="#212121"/>
</svg>
