<svg id="information-button" xmlns="http://www.w3.org/2000/svg" width="52.508" height="52.508" viewBox="0 0 52.508 52.508">
    <path id="Path_2500" data-name="Path 2500" d="M26.253,0A26.254,26.254,0,1,0,52.508,26.253,26.254,26.254,0,0,0,26.253,0Zm5.465,40.688q-2.027.8-3.234,1.218a8.531,8.531,0,0,1-2.8.42,5.59,5.59,0,0,1-3.816-1.2,3.866,3.866,0,0,1-1.358-3.038,11.036,11.036,0,0,1,.1-1.465c.069-.5.178-1.058.327-1.687l1.691-5.974c.149-.573.278-1.118.38-1.625a7.2,7.2,0,0,0,.151-1.407,2.167,2.167,0,0,0-.471-1.594,2.677,2.677,0,0,0-1.807-.447,4.742,4.742,0,0,0-1.345.2c-.456.14-.851.267-1.176.391l.447-1.84q1.66-.677,3.178-1.158A9.39,9.39,0,0,1,24.848,21a5.486,5.486,0,0,1,3.761,1.178,3.914,3.914,0,0,1,1.32,3.058q0,.39-.091,1.371a9.176,9.176,0,0,1-.338,1.8l-1.682,5.956c-.138.478-.26,1.025-.371,1.636a8.65,8.65,0,0,0-.162,1.391,2,2,0,0,0,.531,1.618,2.974,2.974,0,0,0,1.838.431,5.332,5.332,0,0,0,1.391-.216,7.91,7.91,0,0,0,1.125-.378Zm-.3-24.177A4.015,4.015,0,0,1,28.586,17.6a4.057,4.057,0,0,1-2.845-1.093,3.491,3.491,0,0,1-1.185-2.652A3.526,3.526,0,0,1,25.742,11.2a4.028,4.028,0,0,1,2.845-1.1,3.983,3.983,0,0,1,2.834,1.1,3.581,3.581,0,0,1,0,5.31Z" fill="#212121"/>
</svg>
