<svg xmlns="http://www.w3.org/2000/svg" width="59.625" height="67.575" viewBox="0 0 59.625 67.575">
    <g id="XMLID_389_" transform="translate(-30)">
        <path id="XMLID_390_" d="M30,75H89.625v5.963H30Z" transform="translate(0 -65.063)" fill="#212121"/>
        <path id="XMLID_391_" d="M86.57,427.95h3.8v3.975h3.975V427.95h27.825v3.975h3.975V427.95h3.8l.723-7.95H85.847Z" transform="translate(-48.447 -364.35)" fill="#212121"/>
        <path id="XMLID_392_" d="M111.675,5.962V0H60V5.962Z" transform="translate(-26.025)" fill="#212121"/>
        <path id="XMLID_395_" d="M64.193,181.8h45.548l2.891-31.8H61.3Zm36.114-3.975H88.955V173.85H93.5l-1.691-3,3.462-1.953Zm-13.34-23.656,6.065,10.755-3.462,1.953-2.6-4.615-2.6,4.615L80.9,164.924ZM78.661,168.9l3.462,1.953-1.691,3h4.548v3.975H73.627Z" transform="translate(-27.154 -130.125)" fill="#212121"/>
    </g>
</svg>
