<svg id="information-button" xmlns="http://www.w3.org/2000/svg" width="16.812" height="16.812" viewBox="0 0 16.812 16.812">
    <path id="Path_1045" data-name="Path 1045" d="M8.406,0a8.406,8.406,0,1,0,8.406,8.406A8.406,8.406,0,0,0,8.406,0Zm1.75,13.028q-.649.256-1.035.39a2.732,2.732,0,0,1-.9.134A1.79,1.79,0,0,1,7,13.169a1.238,1.238,0,0,1-.435-.973,3.534,3.534,0,0,1,.032-.469c.022-.159.057-.339.1-.54l.542-1.913c.048-.184.089-.358.122-.52a2.307,2.307,0,0,0,.048-.45.694.694,0,0,0-.151-.51.857.857,0,0,0-.579-.143,1.518,1.518,0,0,0-.431.064c-.146.045-.273.085-.376.125L6.02,7.25q.532-.217,1.018-.371a3.006,3.006,0,0,1,.918-.155,1.756,1.756,0,0,1,1.2.377,1.253,1.253,0,0,1,.423.979q0,.125-.029.439a2.938,2.938,0,0,1-.108.577L8.907,11c-.044.153-.083.328-.119.524a2.769,2.769,0,0,0-.052.445.64.64,0,0,0,.17.518.952.952,0,0,0,.589.138,1.707,1.707,0,0,0,.445-.069,2.533,2.533,0,0,0,.36-.121Zm-.1-7.741a1.286,1.286,0,0,1-.907.35,1.3,1.3,0,0,1-.911-.35,1.118,1.118,0,0,1-.379-.849,1.129,1.129,0,0,1,.379-.851,1.29,1.29,0,0,1,.911-.354,1.275,1.275,0,0,1,.907.354,1.146,1.146,0,0,1,0,1.7Z" fill="#007bc2"/>
</svg>
