<svg xmlns="http://www.w3.org/2000/svg" width="61.009" height="61.009" viewBox="0 0 61.009 61.009">
  <g id="Group_5134" data-name="Group 5134" transform="translate(-37.496 -1319.494)">
    <g id="Group_5100" data-name="Group 5100" transform="translate(-11053 21869)">
      <g id="Group_5085" data-name="Group 5085" transform="translate(-104 229.324)">
        <path id="Path_14388" data-name="Path 14388" d="M61.009,30.537c0,.038,0,.076,0,.114,0,.112,0,.223,0,.334,0,.045,0,.089,0,.133-.006.3-.015.59-.031.883l0,.086c0,.091-.008.18-.014.27,0,.021,0,.042,0,.063q-.046.781-.135,1.55-.079.7-.188,1.381A30.537,30.537,0,0,1,37.531,60.2q-.865.2-1.749.359c-.143.025-.286.049-.43.071a29.878,29.878,0,0,1-3,.326l-.051,0c-.073.006-.144.01-.217.013l-.222.012-.119,0L31.429,61c-.318.01-.637.013-.957.013-.161,0-.321,0-.48,0q-.71-.011-1.41-.055-.388-.025-.775-.058-.869-.075-1.723-.2l-.017,0c-.184-.026-.367-.055-.549-.085q-.492-.08-.977-.176l-.083-.017a30.283,30.283,0,0,1-4.483-1.267q-.629-.232-1.245-.491A30.508,30.508,0,1,1,60.035,22.835c.041.158.081.317.119.477.083.344.161.69.232,1.039.046.23.092.461.132.694.014.069.026.138.038.207q.2,1.155.313,2.339c0,.007,0,.013,0,.02q.055.593.089,1.193h0c0,.03,0,.058,0,.088l.014.312C61,29.646,61.009,30.091,61.009,30.537Z" transform="translate(11194.496 -20778.83)" fill="#ffefcc"/>
      </g>
      <path id="Path_14463" data-name="Path 14463" d="M211.09,116.892c15.379-1.827,21.493-12.9,24.847-19.413,0-.015-21.608-27.484-21.608-27.484l-6.942,13.857-10.733,16.207Z" transform="translate(10913.606 -20605.389)" fill="#ffe4a7"/>
    </g>
    <g id="icon" transform="translate(18.847 1309.996)">
      <path id="Path_14502" data-name="Path 14502" d="M60.774,53.672s-.112.33-1.131.922c-.048.029-.1.059-.154.088a.508.508,0,0,0-.238.578l.057.216a.5.5,0,0,1-.242.564,2,2,0,0,1-.942.238h-.093l-.28-.013-.465-.021a.692.692,0,0,0-.412.112.7.7,0,0,0-.32.574.513.513,0,0,1-.513.5.33.33,0,0,1-.065,0l-.774-.1-.065-.006a1.273,1.273,0,0,0-.719.155,1.034,1.034,0,0,0-.242.176,3.067,3.067,0,0,0-.54.742.913.913,0,0,1-.282.337,1.472,1.472,0,0,1-.846.267H51.015c-.267,0-.53-.013-.8-.036-.246-.021-.615-.048-1.064-.063-.452.015-.82.044-1.066.063-.263.023-.527.036-.793.036H45.79a1.329,1.329,0,0,1-1.176-.81,1.668,1.668,0,0,0-.7-.834.772.772,0,0,0-.4-.078l-.343.044c-.366.044-.892.109-.907.109a.513.513,0,0,1-.513-.5.7.7,0,0,0-.732-.686l-.465.021-.277.013h-.093a2,2,0,0,1-.948-.242A.49.49,0,0,1,39,55.478l.059-.216a.509.509,0,0,0-.242-.576l-.154-.088c-1.02-.593-1.131-.925-1.131-.925a61.751,61.751,0,0,1,5.484-14.519,10.405,10.405,0,0,1,1.146-1.7l.4-.477a7.194,7.194,0,0,0,1.1-1.862l.37-.929a11.267,11.267,0,0,1-2.192-7.458l-.368-2.743L44,23.2l1.033-.166L45.261,23a3.993,3.993,0,0,0,7.784,0l.229.036,1.033.166.527.778-.368,2.743a11.269,11.269,0,0,1-2.192,7.458l.372.929a7,7,0,0,0,.641,1.232,7.112,7.112,0,0,0,.463.629l.4.477a10.685,10.685,0,0,1,1.146,1.7,61.87,61.87,0,0,1,5.483,14.52Z" fill="#ef5261"/>
      <g id="Group_5107" data-name="Group 5107" transform="translate(38.664 39.92)">
        <path id="Path_14503" data-name="Path 14503" d="M81.549,77.931c-.048.029-.1.059-.154.088a.508.508,0,0,0-.238.577l.057.216a.5.5,0,0,1-.242.564,2,2,0,0,1-.942.238h-.093l-.28-.013-3.073-15Z" transform="translate(-60.57 -63.257)" fill="#da364c"/>
        <path id="Path_14504" data-name="Path 14504" d="M77.029,77.976a.7.7,0,0,0-.32.574.513.513,0,0,1-.513.5.33.33,0,0,1-.065,0l-.774-.1-.065-.006-1.827-17.4Z" transform="translate(-58.819 -61.543)" fill="#da364c"/>
        <path id="Path_14505" data-name="Path 14505" d="M72.15,80.14a1.034,1.034,0,0,0-.242.176,3.067,3.067,0,0,0-.54.742.913.913,0,0,1-.282.337,1.473,1.473,0,0,1-.846.267H69.147l.29-18.264Z" transform="translate(-56.398 -62.582)" fill="#da364c"/>
        <path id="Path_14506" data-name="Path 14506" d="M45.077,64.6,42,79.6l-.277.013h-.093a2,2,0,0,1-.948-.242.49.49,0,0,1-.238-.559l.059-.216a.509.509,0,0,0-.242-.576l-.154-.088Z" transform="translate(-40.108 -63.257)" fill="#da364c"/>
        <path id="Path_14507" data-name="Path 14507" d="M49.986,61.54l-1.828,17.4c-.366.044-.892.109-.907.109a.513.513,0,0,1-.513-.5.692.692,0,0,0-.317-.571Z" transform="translate(-43.649 -61.54)" fill="#da364c"/>
        <path id="Path_14508" data-name="Path 14508" d="M55.042,81.664h-1.1a1.329,1.329,0,0,1-1.176-.81,1.668,1.668,0,0,0-.7-.834L54.752,63.4Z" transform="translate(-46.813 -62.583)" fill="#da364c"/>
      </g>
      <path id="Path_14509" data-name="Path 14509" d="M53.9,47.151a23.181,23.181,0,0,0,8.869,0v2.1a31.32,31.32,0,0,1-8.869,0Z" transform="translate(-9.181 -13.548)" fill="none"/>
      <ellipse id="Ellipse_1420" data-name="Ellipse 1420" cx="1.124" cy="0.651" rx="1.124" ry="0.651" transform="translate(48.05 34.387)" fill="none"/>
      <path id="Path_14510" data-name="Path 14510" d="M78.047,26.32a8.159,8.159,0,0,1-2.274.527,9.435,9.435,0,0,1-.158-3.521,1.7,1.7,0,0,1,2.288,1.5Z" transform="translate(-21.309 -0.123)" fill="#da364c"/>
      <path id="Path_14511" data-name="Path 14511" d="M46.725,26.32A8.159,8.159,0,0,0,49,26.847a9.435,9.435,0,0,0,.158-3.521,1.7,1.7,0,0,0-2.288,1.5Z" transform="translate(-5.156 -0.123)" fill="#da364c"/>
      <path id="Path_14512" data-name="Path 14512" d="M62.868,23.044A4.117,4.117,0,0,1,58.71,26.39a3.952,3.952,0,0,1-4.169-3.35L54.8,23a3.993,3.993,0,0,0,7.784,0Z" transform="translate(-9.541 0)" fill="#da364c"/>
    </g>
  </g>
</svg>
