<svg xmlns="http://www.w3.org/2000/svg" width="62" height="62" viewBox="0 0 62 62">
  <g id="Group_4952" data-name="Group 4952" transform="translate(-10579 21152)">
    <circle id="Ellipse_1401" data-name="Ellipse 1401" cx="31" cy="31" r="31" transform="translate(10579 -21152)" fill="#ffefcc"/>
    <path id="Path_14165" data-name="Path 14165" d="M211.09,116.892c15.379-1.827,27.218-13.264,27.218-29.134,0-.019-21.07-12.24-21.07-12.24l-24.118,24.613Z" transform="translate(10402.606 -21206.893)" fill="#ffe4a7"/>
    <g id="_039-cake" data-name="039-cake" transform="translate(10591.03 -21143.764)">
      <path id="Path_12675" data-name="Path 12675" d="M18.539,471.966l3.186,2.934H50.163l3.186-2.934" transform="translate(-16.974 -437.374)" fill="#57bae5"/>
      <path id="Path_12676" data-name="Path 12676" d="M18.539,471.966l3.186,2.934h2.282l-3.186-2.934Z" transform="translate(-16.974 -437.374)" fill="#34a9d1"/>
      <path id="Path_12677" data-name="Path 12677" d="M231.755,75.793c-1.352-.383-2.964-.019-2.964,1.331v2.725h3.99V77.124A1.36,1.36,0,0,0,231.755,75.793Z" transform="translate(-211.815 -70.105)" fill="#57bae5"/>
      <path id="Path_12678" data-name="Path 12678" d="M231.928,75.722c-1.057-.478-3.136-.254-3.136,1.261v2.725h2.282V76.983A1.31,1.31,0,0,1,231.928,75.722Z" transform="translate(-211.816 -69.964)" fill="#34a9d1"/>
      <path id="Path_12679" data-name="Path 12679" d="M127.057,169.246v-3.01a1.411,1.411,0,0,0-1.411-1.411H106.318a1.411,1.411,0,0,0-1.41,1.411v8.37h22.15v-3.377" transform="translate(-97.012 -152.744)" fill="#7c5437"/>
      <path id="Path_12680" data-name="Path 12680" d="M272.019,164.825h-9.13a19.174,19.174,0,0,0,2.024,9.781h8.516v-8.37A1.411,1.411,0,0,0,272.019,164.825Z" transform="translate(-243.384 -152.744)" fill="#8e5e3d"/>
      <path id="Path_12681" data-name="Path 12681" d="M182.464,134.253v-1.614a.8.8,0,0,0-.8-.8H170.636a.8.8,0,0,0-.8.8v1.614Z" transform="translate(-157.178 -122.172)" fill="#ff4b4e"/>
      <path id="Path_12682" data-name="Path 12682" d="M268.276,131.835h-4.685a19.312,19.312,0,0,0-.293,2.418h5.782v-1.614A.8.8,0,0,0,268.276,131.835Z" transform="translate(-243.794 -122.172)" fill="#fc5162"/>
      <path id="Path_12683" data-name="Path 12683" d="M108.6,164.825h-2.282a1.411,1.411,0,0,0-1.41,1.411v8.37h2.282v-8.37A1.411,1.411,0,0,1,108.6,164.825Z" transform="translate(-97.011 -152.744)" fill="#603d26"/>
      <path id="Path_12684" data-name="Path 12684" d="M172.918,131.835h-2.282a.8.8,0,0,0-.8.8v1.614h2.282v-1.614A.8.8,0,0,1,172.918,131.835Z" transform="translate(-157.177 -122.172)" fill="#ef2235"/>
      <path id="Path_12685" data-name="Path 12685" d="M237.38.01a2.3,2.3,0,0,0-1.386,2.108,1.569,1.569,0,1,0,2.934,0C238.928.685,237.629-.1,237.38.01Z" transform="translate(-218.49 0)" fill="#f99830"/>
      <path id="Path_12686" data-name="Path 12686" d="M125.627,164.825H106.3a1.411,1.411,0,0,0-1.352,1.008,5.258,5.258,0,0,0-.058,1.484l2.625,1.705a1.875,1.875,0,0,0,2.024.072l1.8-1.167h0a1.659,1.659,0,0,1,1.79-.057c3.156,2.05,2.511,2.06,5.681,0a1.659,1.659,0,0,1,1.79.057h0l1.8,1.167a1.875,1.875,0,0,0,2.024-.072l2.625-1.705v-1.081A1.411,1.411,0,0,0,125.627,164.825Z" transform="translate(-96.993 -152.744)" fill="#ffc373"/>
      <path id="Path_12687" data-name="Path 12687" d="M272.016,164.825h-9.13a19.3,19.3,0,0,0,.243,4.376c.091-.046-.079.061,2.064-1.331a1.659,1.659,0,0,1,1.79.057h0l1.8,1.167a1.875,1.875,0,0,0,2.023-.072l2.625-1.705c0-1.188,0-1.128-.007-1.225A1.41,1.41,0,0,0,272.016,164.825Z" transform="translate(-243.382 -152.744)" fill="#fcca8d"/>
      <path id="Path_12688" data-name="Path 12688" d="M107.189,166.154a1.411,1.411,0,0,1,1.411-1.411c-2.3,0-2.438-.045-2.806.1a1.411,1.411,0,0,0-.887,1.309v1.081l2.282,1.483Z" transform="translate(-97.011 -152.663)" fill="#f7ac52"/>
      <path id="Path_12689" data-name="Path 12689" d="M86.877,303.451v-3.331a1.85,1.85,0,0,0-1.85-1.85H59.676a1.85,1.85,0,0,0-1.85,1.85v8.517H86.877v-3.23" transform="translate(-53.381 -276.408)" fill="#7c5437"/>
      <path id="Path_12690" data-name="Path 12690" d="M301.029,298.269H290.912a19.282,19.282,0,0,0,11.967,9.859v-8.009A1.85,1.85,0,0,0,301.029,298.269Z" transform="translate(-269.383 -276.408)" fill="#8e5e3d"/>
      <path id="Path_12691" data-name="Path 12691" d="M36.509,439.717H1.462a1.223,1.223,0,0,0,0,2.445H36.509a1.223,1.223,0,1,0,0-2.445Z" transform="translate(-0.015 -407.488)" fill="#bad8e8"/>
      <path id="Path_12692" data-name="Path 12692" d="M36.494,448.668H1.446a1.221,1.221,0,0,1-1.058-.611,1.222,1.222,0,0,0,1.058,1.834H36.494a1.221,1.221,0,0,0,1.058-1.834A1.221,1.221,0,0,1,36.494,448.668Z" transform="translate(0 -415.217)" fill="#91c5db"/>
      <path id="Path_12693" data-name="Path 12693" d="M61.958,298.269H59.676a1.85,1.85,0,0,0-1.85,1.85v8.517h2.282v-8.517A1.85,1.85,0,0,1,61.958,298.269Z" transform="translate(-53.381 -276.408)" fill="#603d26"/>
      <path id="Path_12694" data-name="Path 12694" d="M57.826,300.12v1.131l2.373,1.542a1.875,1.875,0,0,0,2.024.072l1.8-1.167h0a1.659,1.659,0,0,1,1.79-.057c3.141,2.04,2.561,2.042,5.615.057a1.734,1.734,0,0,1,.933-.292,1.7,1.7,0,0,1,.924.292h0c1.79,1.163,2.089,1.442,2.7,1.461a1.73,1.73,0,0,0,.938-.235l1.975-1.283a1.659,1.659,0,0,1,1.79.057h0l1.8,1.167a1.875,1.875,0,0,0,2.024-.072l2.373-1.542V300.12a1.85,1.85,0,0,0-1.85-1.85H59.676A1.85,1.85,0,0,0,57.826,300.12Z" transform="translate(-53.381 -276.409)" fill="#ffc373"/>
      <path id="Path_12695" data-name="Path 12695" d="M301.029,298.269H290.912a19.264,19.264,0,0,0,2.815,4.131l1.17-.76a1.659,1.659,0,0,1,1.79.057h0l1.8,1.167a1.875,1.875,0,0,0,2.024-.072l2.373-1.542v-1.131A1.85,1.85,0,0,0,301.029,298.269Z" transform="translate(-269.383 -276.408)" fill="#fcca8d"/>
      <path id="Path_12696" data-name="Path 12696" d="M60.108,300.119a1.85,1.85,0,0,1,1.85-1.85H59.676a1.85,1.85,0,0,0-1.85,1.85v1.131l2.282,1.483Z" transform="translate(-53.381 -276.408)" fill="#f7ac52"/>
      <circle id="Ellipse_1347" data-name="Ellipse 1347" cx="0.794" cy="0.794" r="0.794" transform="translate(12.165 18.713)" fill="#00cdb3"/>
      <circle id="Ellipse_1348" data-name="Ellipse 1348" cx="0.794" cy="0.794" r="0.794" transform="translate(20.152 17.409)" fill="#57bae5"/>
      <circle id="Ellipse_1349" data-name="Ellipse 1349" cx="0.794" cy="0.794" r="0.794" transform="translate(25.526 18.22)" fill="#00cdb3"/>
      <path id="Path_12697" data-name="Path 12697" d="M297.816,263.149a.611.611,0,0,1,.294-.813l1.1-.518a.611.611,0,0,1,.52,1.107l-1.1.518A.611.611,0,0,1,297.816,263.149Z" transform="translate(-275.727 -242.574)" fill="#ff4b4e"/>
      <path id="Path_12698" data-name="Path 12698" d="M203.739,247.626l-1.04-.635a.611.611,0,0,1,.637-1.043l1.04.635a.611.611,0,0,1-.637,1.043Z" transform="translate(-187.365 -227.838)" fill="#ffca54"/>
      <circle id="Ellipse_1350" data-name="Ellipse 1350" cx="0.794" cy="0.794" r="0.794" transform="translate(23.024 29.056)" fill="#57bae5"/>
      <circle id="Ellipse_1351" data-name="Ellipse 1351" cx="0.794" cy="0.794" r="0.794" transform="translate(15.036 27.752)" fill="#00cdb3"/>
      <circle id="Ellipse_1352" data-name="Ellipse 1352" cx="0.794" cy="0.794" r="0.794" transform="translate(9.662 28.562)" fill="#ff4b4e"/>
      <path id="Path_12699" data-name="Path 12699" d="M168.085,404.563l-1.1-.518a.611.611,0,0,1,.52-1.107l1.1.518a.611.611,0,1,1-.52,1.107Z" transform="translate(-154.211 -373.352)" fill="#ffca54"/>
      <path id="Path_12700" data-name="Path 12700" d="M360.662,397.5l-1.1-.518a.611.611,0,0,1,.52-1.107l1.1.518a.611.611,0,0,1-.52,1.107Z" transform="translate(-332.673 -366.805)" fill="#57bae5"/>
      <path id="Path_12701" data-name="Path 12701" d="M262.936,388.542a.611.611,0,0,1,.2-.84l1.04-.635a.611.611,0,1,1,.637,1.043l-1.04.635A.611.611,0,0,1,262.936,388.542Z" transform="translate(-243.375 -358.614)" fill="#ffca54"/>
    </g>
  </g>
</svg>
