<svg xmlns="http://www.w3.org/2000/svg" width="62" height="62" viewBox="0 0 62 62">
  <g id="Group_4991" data-name="Group 4991" transform="translate(-11089 21076)">
    <g id="Group_4989" data-name="Group 4989" transform="translate(-65 198)">
      <g id="Group_4984" data-name="Group 4984" transform="translate(19 -64)">
        <g id="Group_4956" data-name="Group 4956" transform="translate(10978 -21751)">
          <g id="Group_4953" data-name="Group 4953" transform="translate(-10419 21613)">
            <circle id="Ellipse_1402" data-name="Ellipse 1402" cx="31" cy="31" r="31" transform="translate(10576 -21072)" fill="#ffefcc"/>
            <path id="Path_14166" data-name="Path 14166" d="M211.09,116.892c15.379-1.827,26.391-11.309,26.391-27.179,0-.019-18.043-19.434-18.043-19.434H197.97V89.713l-5.262,8.98Z" transform="translate(10399.606 -21126.893)" fill="#ffe4a7"/>
          </g>
        </g>
      </g>
    </g>
    <g id="beauty-saloon" transform="translate(11079.694 -21109.479)">
      <g id="Group_4990" data-name="Group 4990" transform="translate(46.662 48)">
        <path id="Path_14195" data-name="Path 14195" d="M356.007,49.105h-3.455a.553.553,0,0,1,0-1.105h3.455a.553.553,0,0,1,0,1.105Z" transform="translate(-352 -48)" fill="#fbd699"/>
        <path id="Path_14196" data-name="Path 14196" d="M355.869,81.105h-3.316a.553.553,0,0,1,0-1.105h3.316a.553.553,0,0,1,0,1.105Z" transform="translate(-352 -77.789)" fill="#fbd699"/>
        <path id="Path_14197" data-name="Path 14197" d="M355.869,113.105h-3.316a.553.553,0,0,1,0-1.105h3.316a.553.553,0,0,1,0,1.105Z" transform="translate(-352 -107.578)" fill="#fbd699"/>
        <path id="Path_14198" data-name="Path 14198" d="M355.869,145.105h-3.316a.553.553,0,0,1,0-1.105h3.316a.553.553,0,0,1,0,1.105Z" transform="translate(-352 -137.367)" fill="#fbd699"/>
        <path id="Path_14199" data-name="Path 14199" d="M355.869,177.105h-3.316a.553.553,0,0,1,0-1.105h3.316a.553.553,0,0,1,0,1.105Z" transform="translate(-352 -167.156)" fill="#fbd699"/>
        <path id="Path_14200" data-name="Path 14200" d="M355.869,209.105h-3.316a.553.553,0,0,1,0-1.105h3.316a.553.553,0,0,1,0,1.105Z" transform="translate(-352 -196.945)" fill="#fbd699"/>
        <path id="Path_14201" data-name="Path 14201" d="M355.869,241.105h-3.316a.553.553,0,0,1,0-1.105h3.316a.553.553,0,0,1,0,1.105Z" transform="translate(-352 -226.734)" fill="#fbd699"/>
        <path id="Path_14202" data-name="Path 14202" d="M355.869,273.105h-3.316a.553.553,0,0,1,0-1.105h3.316a.553.553,0,0,1,0,1.105Z" transform="translate(-352 -256.523)" fill="#fbd699"/>
      </g>
      <path id="Path_14203" data-name="Path 14203" d="M392,48h1.658v1.105H392Z" transform="translate(-342.574)" fill="#eac88f"/>
      <path id="Path_14204" data-name="Path 14204" d="M392,80h1.658v1.105H392Z" transform="translate(-342.574 -29.789)" fill="#eac88f"/>
      <path id="Path_14205" data-name="Path 14205" d="M392,112h1.658v1.105H392Z" transform="translate(-342.574 -59.578)" fill="#eac88f"/>
      <path id="Path_14206" data-name="Path 14206" d="M392,144h1.658v1.105H392Z" transform="translate(-342.574 -89.367)" fill="#eac88f"/>
      <path id="Path_14207" data-name="Path 14207" d="M392,176h1.658v1.105H392Z" transform="translate(-342.574 -119.156)" fill="#eac88f"/>
      <path id="Path_14208" data-name="Path 14208" d="M392,208h1.658v1.105H392Z" transform="translate(-342.574 -148.945)" fill="#eac88f"/>
      <path id="Path_14209" data-name="Path 14209" d="M392,240h1.658v1.105H392Z" transform="translate(-342.574 -178.734)" fill="#eac88f"/>
      <path id="Path_14210" data-name="Path 14210" d="M392,272h1.658v1.105H392Z" transform="translate(-342.574 -208.523)" fill="#eac88f"/>
      <path id="Path_14211" data-name="Path 14211" d="M231.727,256.844a1.5,1.5,0,0,1-1.493-1.65l.388-3.877L230.069,248h3.316l-.553,3.316.388,3.877a1.5,1.5,0,0,1-1.493,1.65Z" transform="translate(-191.831 -186.182)" fill="#c38325"/>
      <path id="Path_14212" data-name="Path 14212" d="M62.08,328l-1.657,1.864-.584.656-2.181,2.454H56l2.291-4.123.473-.851Z" transform="translate(-29.789 -260.654)" fill="#cdcdcd"/>
      <path id="Path_14213" data-name="Path 14213" d="M102.08,79.768h-1.658L96,74.793V63.025A15.707,15.707,0,0,1,97.658,56a15.707,15.707,0,0,1,1.658,7.024V74.793Z" transform="translate(-67.025 -7.448)" fill="#dbdbdb"/>
      <path id="Path_14214" data-name="Path 14214" d="M112,288h1.105v1.105H112Z" transform="translate(-81.92 -223.418)" fill="#c3c3c3"/>
      <path id="Path_14215" data-name="Path 14215" d="M131.316,392a3.316,3.316,0,1,0,3.316,3.316A3.316,3.316,0,0,0,131.316,392Zm0,4.422a1.105,1.105,0,1,1,1.105-1.105A1.105,1.105,0,0,1,131.316,396.422Z" transform="translate(-96.814 -320.232)" fill="#428dc5"/>
      <path id="Path_14216" data-name="Path 14216" d="M27.316,392a3.316,3.316,0,1,0,3.316,3.316A3.316,3.316,0,0,0,27.316,392Zm0,4.422a1.105,1.105,0,1,1,1.105-1.105A1.105,1.105,0,0,1,27.316,396.422Z" transform="translate(0 -320.232)" fill="#3775a4"/>
      <ellipse id="Ellipse_1403" data-name="Ellipse 1403" cx="4.288" cy="6.909" rx="4.288" ry="6.909" transform="translate(35.607 48.553)" fill="#ea9d2d"/>
      <path id="Path_14217" data-name="Path 14217" d="M230.069,160h1.105v1.105h-1.105Z" transform="translate(-191.831 -104.262)" fill="#c38325"/>
      <path id="Path_14218" data-name="Path 14218" d="M230.069,192h1.105v1.105h-1.105Z" transform="translate(-191.831 -134.051)" fill="#c38325"/>
      <path id="Path_14219" data-name="Path 14219" d="M230.069,96h1.105v1.105h-1.105Z" transform="translate(-191.831 -44.684)" fill="#c38325"/>
      <path id="Path_14220" data-name="Path 14220" d="M230.069,128h1.105v1.105h-1.105Z" transform="translate(-191.831 -74.473)" fill="#c38325"/>
      <path id="Path_14221" data-name="Path 14221" d="M262.069,96h1.105v1.105h-1.105Z" transform="translate(-221.62 -44.684)" fill="#c38325"/>
      <path id="Path_14222" data-name="Path 14222" d="M262.069,128h1.105v1.105h-1.105Z" transform="translate(-221.62 -74.473)" fill="#c38325"/>
      <path id="Path_14223" data-name="Path 14223" d="M262.069,192h1.105v1.105h-1.105Z" transform="translate(-221.62 -134.051)" fill="#c38325"/>
      <path id="Path_14224" data-name="Path 14224" d="M262.069,160h1.105v1.105h-1.105Z" transform="translate(-221.62 -104.262)" fill="#c38325"/>
      <path id="Path_14225" data-name="Path 14225" d="M402.764,67.346h-2.211a.553.553,0,0,1-.553-.553V48h1.658a1.658,1.658,0,0,1,1.658,1.658V66.793A.553.553,0,0,1,402.764,67.346Z" transform="translate(-350.022)" fill="#fbd699"/>
      <path id="Path_14226" data-name="Path 14226" d="M91.292,329.864l-.584.656-1.548-1.669.473-.851h.015Z" transform="translate(-60.658 -260.654)" fill="#a8a8a8"/>
      <ellipse id="Ellipse_1404" data-name="Ellipse 1404" cx="6" cy="6.5" rx="6" ry="6.5" transform="translate(43.305 65.478)" fill="#fbb540"/>
      <path id="Path_14227" data-name="Path 14227" d="M371.079,403.316a1.748,1.748,0,1,0-2.211-2.211h0a1.105,1.105,0,1,0,.021,2.21Z" transform="translate(-319.995 -327.68)" fill="#c38325"/>
      <ellipse id="Ellipse_1405" data-name="Ellipse 1405" cx="1" cy="0.5" rx="1" ry="0.5" transform="translate(49.305 69.477)" fill="#c38325"/>
      <ellipse id="Ellipse_1406" data-name="Ellipse 1406" cx="0.5" cy="1" rx="0.5" ry="1" transform="translate(46.305 70.477)" fill="#c38325"/>
      <circle id="Ellipse_1407" data-name="Ellipse 1407" cx="1" cy="1" r="1" transform="translate(52.305 70.477)" fill="#c38325"/>
      <path id="Path_14228" data-name="Path 14228" d="M310.633,317.266a6.633,6.633,0,1,1,6.633-6.633A6.633,6.633,0,0,1,310.633,317.266Zm0-12.16a5.527,5.527,0,1,0,5.527,5.527A5.527,5.527,0,0,0,310.633,305.105Z" transform="translate(-260.654 -238.313)" fill="#c38325"/>
    </g>
  </g>
</svg>
